%TF.GenerationSoftware,KiCad,Pcbnew,7.0.7*%
%TF.CreationDate,2023-12-03T17:08:09+03:00*%
%TF.ProjectId,camera_v3s,63616d65-7261-45f7-9633-732e6b696361,rev?*%
%TF.SameCoordinates,Original*%
%TF.FileFunction,Copper,L2,Bot*%
%TF.FilePolarity,Positive*%
%FSLAX46Y46*%
G04 Gerber Fmt 4.6, Leading zero omitted, Abs format (unit mm)*
G04 Created by KiCad (PCBNEW 7.0.7) date 2023-12-03 17:08:09*
%MOMM*%
%LPD*%
G01*
G04 APERTURE LIST*
G04 Aperture macros list*
%AMRoundRect*
0 Rectangle with rounded corners*
0 $1 Rounding radius*
0 $2 $3 $4 $5 $6 $7 $8 $9 X,Y pos of 4 corners*
0 Add a 4 corners polygon primitive as box body*
4,1,4,$2,$3,$4,$5,$6,$7,$8,$9,$2,$3,0*
0 Add four circle primitives for the rounded corners*
1,1,$1+$1,$2,$3*
1,1,$1+$1,$4,$5*
1,1,$1+$1,$6,$7*
1,1,$1+$1,$8,$9*
0 Add four rect primitives between the rounded corners*
20,1,$1+$1,$2,$3,$4,$5,0*
20,1,$1+$1,$4,$5,$6,$7,0*
20,1,$1+$1,$6,$7,$8,$9,0*
20,1,$1+$1,$8,$9,$2,$3,0*%
G04 Aperture macros list end*
%TA.AperFunction,SMDPad,CuDef*%
%ADD10RoundRect,0.135000X-0.135000X-0.185000X0.135000X-0.185000X0.135000X0.185000X-0.135000X0.185000X0*%
%TD*%
%TA.AperFunction,SMDPad,CuDef*%
%ADD11RoundRect,0.140000X-0.170000X0.140000X-0.170000X-0.140000X0.170000X-0.140000X0.170000X0.140000X0*%
%TD*%
%TA.AperFunction,SMDPad,CuDef*%
%ADD12RoundRect,0.140000X-0.140000X-0.170000X0.140000X-0.170000X0.140000X0.170000X-0.140000X0.170000X0*%
%TD*%
%TA.AperFunction,SMDPad,CuDef*%
%ADD13RoundRect,0.140000X0.170000X-0.140000X0.170000X0.140000X-0.170000X0.140000X-0.170000X-0.140000X0*%
%TD*%
%TA.AperFunction,ComponentPad*%
%ADD14RoundRect,0.250000X0.400000X-0.250000X0.400000X0.250000X-0.400000X0.250000X-0.400000X-0.250000X0*%
%TD*%
%TA.AperFunction,ComponentPad*%
%ADD15O,1.300000X1.000000*%
%TD*%
%TA.AperFunction,ComponentPad*%
%ADD16O,1.000000X1.300000*%
%TD*%
%TA.AperFunction,ComponentPad*%
%ADD17RoundRect,0.250000X0.250000X0.400000X-0.250000X0.400000X-0.250000X-0.400000X0.250000X-0.400000X0*%
%TD*%
%TA.AperFunction,SMDPad,CuDef*%
%ADD18RoundRect,0.135000X0.185000X-0.135000X0.185000X0.135000X-0.185000X0.135000X-0.185000X-0.135000X0*%
%TD*%
%TA.AperFunction,SMDPad,CuDef*%
%ADD19RoundRect,0.135000X-0.185000X0.135000X-0.185000X-0.135000X0.185000X-0.135000X0.185000X0.135000X0*%
%TD*%
%TA.AperFunction,SMDPad,CuDef*%
%ADD20RoundRect,0.150000X0.150000X-0.587500X0.150000X0.587500X-0.150000X0.587500X-0.150000X-0.587500X0*%
%TD*%
%TA.AperFunction,SMDPad,CuDef*%
%ADD21RoundRect,0.140000X0.140000X0.170000X-0.140000X0.170000X-0.140000X-0.170000X0.140000X-0.170000X0*%
%TD*%
%TA.AperFunction,SMDPad,CuDef*%
%ADD22RoundRect,0.050000X-0.375000X-0.050000X0.375000X-0.050000X0.375000X0.050000X-0.375000X0.050000X0*%
%TD*%
%TA.AperFunction,SMDPad,CuDef*%
%ADD23RoundRect,0.050000X-0.050000X-0.375000X0.050000X-0.375000X0.050000X0.375000X-0.050000X0.375000X0*%
%TD*%
%TA.AperFunction,SMDPad,CuDef*%
%ADD24R,1.650000X1.650000*%
%TD*%
%TA.AperFunction,SMDPad,CuDef*%
%ADD25RoundRect,0.225000X-0.225000X-0.250000X0.225000X-0.250000X0.225000X0.250000X-0.225000X0.250000X0*%
%TD*%
%TA.AperFunction,SMDPad,CuDef*%
%ADD26RoundRect,0.150000X-0.512500X-0.150000X0.512500X-0.150000X0.512500X0.150000X-0.512500X0.150000X0*%
%TD*%
%TA.AperFunction,SMDPad,CuDef*%
%ADD27RoundRect,0.225000X-0.250000X0.225000X-0.250000X-0.225000X0.250000X-0.225000X0.250000X0.225000X0*%
%TD*%
%TA.AperFunction,SMDPad,CuDef*%
%ADD28C,1.000000*%
%TD*%
%TA.AperFunction,SMDPad,CuDef*%
%ADD29RoundRect,0.225000X0.250000X-0.225000X0.250000X0.225000X-0.250000X0.225000X-0.250000X-0.225000X0*%
%TD*%
%TA.AperFunction,SMDPad,CuDef*%
%ADD30RoundRect,0.135000X0.135000X0.185000X-0.135000X0.185000X-0.135000X-0.185000X0.135000X-0.185000X0*%
%TD*%
%TA.AperFunction,SMDPad,CuDef*%
%ADD31RoundRect,0.250000X0.375000X1.075000X-0.375000X1.075000X-0.375000X-1.075000X0.375000X-1.075000X0*%
%TD*%
%TA.AperFunction,SMDPad,CuDef*%
%ADD32RoundRect,0.250000X-0.375000X-1.075000X0.375000X-1.075000X0.375000X1.075000X-0.375000X1.075000X0*%
%TD*%
%TA.AperFunction,SMDPad,CuDef*%
%ADD33RoundRect,0.225000X0.225000X0.250000X-0.225000X0.250000X-0.225000X-0.250000X0.225000X-0.250000X0*%
%TD*%
%TA.AperFunction,SMDPad,CuDef*%
%ADD34RoundRect,0.150000X0.650000X0.150000X-0.650000X0.150000X-0.650000X-0.150000X0.650000X-0.150000X0*%
%TD*%
%TA.AperFunction,SMDPad,CuDef*%
%ADD35R,1.200000X1.400000*%
%TD*%
%TA.AperFunction,SMDPad,CuDef*%
%ADD36RoundRect,0.150000X-0.150000X0.587500X-0.150000X-0.587500X0.150000X-0.587500X0.150000X0.587500X0*%
%TD*%
%TA.AperFunction,SMDPad,CuDef*%
%ADD37R,1.000000X1.000000*%
%TD*%
%TA.AperFunction,SMDPad,CuDef*%
%ADD38R,1.050000X2.200000*%
%TD*%
%TA.AperFunction,SMDPad,CuDef*%
%ADD39RoundRect,0.200000X-0.200000X-0.275000X0.200000X-0.275000X0.200000X0.275000X-0.200000X0.275000X0*%
%TD*%
%TA.AperFunction,ViaPad*%
%ADD40C,0.700000*%
%TD*%
%TA.AperFunction,ViaPad*%
%ADD41C,1.500000*%
%TD*%
%TA.AperFunction,ViaPad*%
%ADD42C,0.800000*%
%TD*%
%TA.AperFunction,ViaPad*%
%ADD43C,3.000000*%
%TD*%
%TA.AperFunction,ViaPad*%
%ADD44C,2.000000*%
%TD*%
%TA.AperFunction,ViaPad*%
%ADD45C,1.200000*%
%TD*%
%TA.AperFunction,Conductor*%
%ADD46C,0.200000*%
%TD*%
%TA.AperFunction,Conductor*%
%ADD47C,0.500000*%
%TD*%
%TA.AperFunction,Conductor*%
%ADD48C,1.000000*%
%TD*%
%TA.AperFunction,Conductor*%
%ADD49C,0.127000*%
%TD*%
%TA.AperFunction,Conductor*%
%ADD50C,0.250000*%
%TD*%
G04 APERTURE END LIST*
D10*
%TO.P,R36,1*%
%TO.N,GNDD*%
X4040000Y-10250000D03*
%TO.P,R36,2*%
%TO.N,Net-(C65-Pad1)*%
X5060000Y-10250000D03*
%TD*%
D11*
%TO.P,C69,1*%
%TO.N,+3V3*%
X8550000Y-7070000D03*
%TO.P,C69,2*%
%TO.N,GNDD*%
X8550000Y-8030000D03*
%TD*%
D12*
%TO.P,C68,1*%
%TO.N,GNDD*%
X4070000Y-9300000D03*
%TO.P,C68,2*%
%TO.N,Net-(C65-Pad1)*%
X5030000Y-9300000D03*
%TD*%
%TO.P,C67,2*%
%TO.N,GNDD*%
X6980000Y-10250000D03*
%TO.P,C67,1*%
%TO.N,Net-(C64-Pad1)*%
X6020000Y-10250000D03*
%TD*%
D13*
%TO.P,C66,1*%
%TO.N,Net-(C65-Pad1)*%
X7850000Y-12080000D03*
%TO.P,C66,2*%
%TO.N,Net-(C64-Pad1)*%
X7850000Y-11120000D03*
%TD*%
D12*
%TO.P,C65,1*%
%TO.N,Net-(C65-Pad1)*%
X8770000Y-12150000D03*
%TO.P,C65,2*%
%TO.N,Net-(DD1-MICIN1N)*%
X9730000Y-12150000D03*
%TD*%
%TO.P,C64,1*%
%TO.N,Net-(C64-Pad1)*%
X8790000Y-11050000D03*
%TO.P,C64,2*%
%TO.N,Net-(DD1-MICIN1P)*%
X9750000Y-11050000D03*
%TD*%
D14*
%TO.P,J4,1,Pin_1*%
%TO.N,+5V*%
X2650000Y-21475000D03*
D15*
%TO.P,J4,2,Pin_2*%
%TO.N,/UART0_RX*%
X2650000Y-20225000D03*
%TO.P,J4,3,Pin_3*%
%TO.N,/UART0_TX*%
X2650000Y-18975000D03*
%TO.P,J4,4,Pin_4*%
%TO.N,GNDD*%
X2650000Y-17725000D03*
%TD*%
D16*
%TO.P,J3,8,Pin_8*%
%TO.N,GNDD*%
X21825000Y-35350000D03*
%TO.P,J3,7,Pin_7*%
%TO.N,+3V3*%
X23075000Y-35350000D03*
%TO.P,J3,6,Pin_6*%
%TO.N,/SDC0_D2*%
X24325000Y-35350000D03*
%TO.P,J3,5,Pin_5*%
%TO.N,/SDC0_D3*%
X25575000Y-35350000D03*
%TO.P,J3,4,Pin_4*%
%TO.N,/SDC0_CMD*%
X26825000Y-35350000D03*
%TO.P,J3,3,Pin_3*%
%TO.N,/SDC0_CLK*%
X28075000Y-35350000D03*
%TO.P,J3,2,Pin_2*%
%TO.N,/SDC0_D0*%
X29325000Y-35350000D03*
D17*
%TO.P,J3,1,Pin_1*%
%TO.N,/SDC0_D1*%
X30575000Y-35350000D03*
%TD*%
D18*
%TO.P,R23,1*%
%TO.N,/I2C1_SCK*%
X23000000Y-8510000D03*
%TO.P,R23,2*%
%TO.N,+3V0*%
X23000000Y-7490000D03*
%TD*%
D19*
%TO.P,R4,1*%
%TO.N,Net-(R1-Pad2)*%
X12400000Y-30890000D03*
%TO.P,R4,2*%
%TO.N,Net-(DA1-FB1)*%
X12400000Y-31910000D03*
%TD*%
D20*
%TO.P,DA3,1,GND*%
%TO.N,GNDD*%
X12750000Y-5137500D03*
%TO.P,DA3,2,VO*%
%TO.N,+1V35*%
X10850000Y-5137500D03*
%TO.P,DA3,3,VI*%
%TO.N,+5V*%
X11800000Y-3262500D03*
%TD*%
D19*
%TO.P,R29,1*%
%TO.N,+3V0*%
X21950000Y-7490000D03*
%TO.P,R29,2*%
%TO.N,/RESETB*%
X21950000Y-8510000D03*
%TD*%
D18*
%TO.P,R14,1*%
%TO.N,Net-(DD1-SZQ)*%
X15800000Y-25910000D03*
%TO.P,R14,2*%
%TO.N,GNDD*%
X15800000Y-24890000D03*
%TD*%
D10*
%TO.P,R2,1*%
%TO.N,GNDD*%
X4690000Y-29000000D03*
%TO.P,R2,2*%
%TO.N,Net-(R2-Pad2)*%
X5710000Y-29000000D03*
%TD*%
D21*
%TO.P,C37,1*%
%TO.N,+1V2*%
X25080000Y-25000000D03*
%TO.P,C37,2*%
%TO.N,GNDD*%
X24120000Y-25000000D03*
%TD*%
D22*
%TO.P,DA1,1,GND3*%
%TO.N,GNDD*%
X7474750Y-30000000D03*
%TO.P,DA1,2,FB3*%
%TO.N,Net-(DA1-FB3)*%
X7474750Y-29600000D03*
%TO.P,DA1,3,FB2*%
%TO.N,Net-(DA1-FB2)*%
X7474750Y-29200000D03*
%TO.P,DA1,4,GND2*%
%TO.N,GNDD*%
X7474750Y-28800000D03*
%TO.P,DA1,5,GND2*%
X7474750Y-28400000D03*
D23*
%TO.P,DA1,6,LX2*%
%TO.N,Net-(DA1-LX2)*%
X8124750Y-27750000D03*
%TO.P,DA1,7,VIN2*%
%TO.N,+5V*%
X8524750Y-27750000D03*
%TO.P,DA1,8,EN2*%
X8924750Y-27750000D03*
%TO.P,DA1,9,EN1*%
X9324750Y-27750000D03*
%TO.P,DA1,10,VIN1*%
X9724750Y-27750000D03*
D22*
%TO.P,DA1,11,LX1*%
%TO.N,Net-(DA1-LX1)*%
X10374750Y-28400000D03*
%TO.P,DA1,12,GND1*%
%TO.N,GNDD*%
X10374750Y-28800000D03*
%TO.P,DA1,13,GND1*%
X10374750Y-29200000D03*
%TO.P,DA1,14,FB1*%
%TO.N,Net-(DA1-FB1)*%
X10374750Y-29600000D03*
%TO.P,DA1,15,AGND*%
%TO.N,GNDD*%
X10374750Y-30000000D03*
D23*
%TO.P,DA1,16,VCC*%
%TO.N,+5V*%
X9724750Y-30650000D03*
%TO.P,DA1,17,AGND*%
%TO.N,GNDD*%
X9324750Y-30650000D03*
%TO.P,DA1,18,EN3*%
%TO.N,+5V*%
X8924750Y-30650000D03*
%TO.P,DA1,19,VIN3*%
X8524750Y-30650000D03*
%TO.P,DA1,20,LX3*%
%TO.N,Net-(DA1-LX3)*%
X8124750Y-30650000D03*
D24*
%TO.P,DA1,21,EPad*%
%TO.N,GNDD*%
X8924750Y-29200000D03*
%TD*%
D25*
%TO.P,C7,1*%
%TO.N,+5V*%
X9625000Y-32200000D03*
%TO.P,C7,2*%
%TO.N,GNDD*%
X11175000Y-32200000D03*
%TD*%
D11*
%TO.P,C4,1*%
%TO.N,+1V2*%
X13400000Y-30920000D03*
%TO.P,C4,2*%
%TO.N,Net-(DA1-FB1)*%
X13400000Y-31880000D03*
%TD*%
D26*
%TO.P,DA5,1,EN*%
%TO.N,+5V*%
X33462500Y-25350000D03*
%TO.P,DA5,2,GND*%
%TO.N,GNDD*%
X33462500Y-24400000D03*
%TO.P,DA5,3,SW*%
%TO.N,Net-(DA5-SW)*%
X33462500Y-23450000D03*
%TO.P,DA5,4,VIN*%
%TO.N,+5V*%
X35737500Y-23450000D03*
%TO.P,DA5,5,FB*%
%TO.N,Net-(DA5-FB)*%
X35737500Y-25350000D03*
%TD*%
D27*
%TO.P,C12,1*%
%TO.N,+5V*%
X14600000Y-3025000D03*
%TO.P,C12,2*%
%TO.N,GNDD*%
X14600000Y-4575000D03*
%TD*%
D28*
%TO.P,TP13,1,1*%
%TO.N,/ANT*%
X28800000Y-4600000D03*
%TD*%
%TO.P,TP8,1,1*%
%TO.N,+5V*%
X35700000Y-31350000D03*
%TD*%
D29*
%TO.P,C61,1*%
%TO.N,/3V3_2*%
X26600000Y-7475000D03*
%TO.P,C61,2*%
%TO.N,GNDD*%
X26600000Y-5925000D03*
%TD*%
D30*
%TO.P,R5,1*%
%TO.N,Net-(R2-Pad2)*%
X5710000Y-30000000D03*
%TO.P,R5,2*%
%TO.N,Net-(DA1-FB2)*%
X4690000Y-30000000D03*
%TD*%
D13*
%TO.P,C36,1*%
%TO.N,VAA*%
X18800000Y-25880000D03*
%TO.P,C36,2*%
%TO.N,GNDD*%
X18800000Y-24920000D03*
%TD*%
D12*
%TO.P,C55,1*%
%TO.N,+3V3*%
X22920000Y-32000000D03*
%TO.P,C55,2*%
%TO.N,GNDD*%
X23880000Y-32000000D03*
%TD*%
D31*
%TO.P,L1,1,1*%
%TO.N,+1V2*%
X16800000Y-28800000D03*
%TO.P,L1,2,2*%
%TO.N,Net-(DA1-LX1)*%
X14000000Y-28800000D03*
%TD*%
D13*
%TO.P,C54,1*%
%TO.N,+1V8*%
X16800000Y-25880000D03*
%TO.P,C54,2*%
%TO.N,GNDD*%
X16800000Y-24920000D03*
%TD*%
D11*
%TO.P,C35,1*%
%TO.N,+1V2*%
X16800000Y-15320000D03*
%TO.P,C35,2*%
%TO.N,GNDD*%
X16800000Y-16280000D03*
%TD*%
D28*
%TO.P,TP12,1,1*%
%TO.N,GNDD*%
X27600000Y-16800000D03*
%TD*%
D10*
%TO.P,R28,1*%
%TO.N,Net-(R13-Pad2)*%
X35290000Y-27800000D03*
%TO.P,R28,2*%
%TO.N,Net-(DA5-FB)*%
X36310000Y-27800000D03*
%TD*%
D32*
%TO.P,L2,1,1*%
%TO.N,+1V8*%
X3000000Y-26600000D03*
%TO.P,L2,2,2*%
%TO.N,Net-(DA1-LX2)*%
X5800000Y-26600000D03*
%TD*%
D30*
%TO.P,R13,1*%
%TO.N,GNDD*%
X36310000Y-28800000D03*
%TO.P,R13,2*%
%TO.N,Net-(R13-Pad2)*%
X35290000Y-28800000D03*
%TD*%
D13*
%TO.P,C53,1*%
%TO.N,+1V2*%
X20000000Y-29080000D03*
%TO.P,C53,2*%
%TO.N,GNDD*%
X20000000Y-28120000D03*
%TD*%
D29*
%TO.P,C3,1*%
%TO.N,+3V3*%
X13800000Y-35575000D03*
%TO.P,C3,2*%
%TO.N,GNDD*%
X13800000Y-34025000D03*
%TD*%
D19*
%TO.P,R16,1*%
%TO.N,/USB-ID*%
X29150000Y-30440000D03*
%TO.P,R16,2*%
%TO.N,GNDD*%
X29150000Y-31460000D03*
%TD*%
D27*
%TO.P,C11,1*%
%TO.N,+5V*%
X21900000Y-2562500D03*
%TO.P,C11,2*%
%TO.N,GNDD*%
X21900000Y-4112500D03*
%TD*%
D19*
%TO.P,R6,1*%
%TO.N,Net-(R3-Pad2)*%
X6400000Y-32170000D03*
%TO.P,R6,2*%
%TO.N,Net-(DA1-FB3)*%
X6400000Y-33190000D03*
%TD*%
D33*
%TO.P,C22,1*%
%TO.N,+1V2*%
X13175000Y-23650000D03*
%TO.P,C22,2*%
%TO.N,GNDD*%
X11625000Y-23650000D03*
%TD*%
D34*
%TO.P,DD2,1,~{CS}*%
%TO.N,/SPI_CS*%
X22800000Y-18595000D03*
%TO.P,DD2,2,SO/SIO1*%
%TO.N,/SPI_MISO*%
X22800000Y-19865000D03*
%TO.P,DD2,3,~{WP}/SIO2*%
%TO.N,+3V3*%
X22800000Y-21135000D03*
%TO.P,DD2,4,GND*%
%TO.N,GNDD*%
X22800000Y-22405000D03*
%TO.P,DD2,5,SI/SIO0*%
%TO.N,/SPI_MOSI*%
X15600000Y-22405000D03*
%TO.P,DD2,6,SCLK*%
%TO.N,/SPI_SCK*%
X15600000Y-21135000D03*
%TO.P,DD2,7,~{HOLD}/SIO3*%
%TO.N,+3V3*%
X15600000Y-19865000D03*
%TO.P,DD2,8,VCC*%
X15600000Y-18595000D03*
%TD*%
D11*
%TO.P,C26,1*%
%TO.N,+1V2*%
X18200000Y-15320000D03*
%TO.P,C26,2*%
%TO.N,GNDD*%
X18200000Y-16280000D03*
%TD*%
D29*
%TO.P,C1,1*%
%TO.N,+1V2*%
X18600000Y-29575000D03*
%TO.P,C1,2*%
%TO.N,GNDD*%
X18600000Y-28025000D03*
%TD*%
D20*
%TO.P,DA2,1,GND*%
%TO.N,GNDD*%
X20350000Y-4037500D03*
%TO.P,DA2,2,VO*%
%TO.N,+3V0*%
X18450000Y-4037500D03*
%TO.P,DA2,3,VI*%
%TO.N,+5V*%
X19400000Y-2162500D03*
%TD*%
D28*
%TO.P,TP11,1,1*%
%TO.N,/USB-D-_R*%
X33800000Y-16800000D03*
%TD*%
D30*
%TO.P,R12,1*%
%TO.N,+3V3*%
X7010000Y-9300000D03*
%TO.P,R12,2*%
%TO.N,Net-(C64-Pad1)*%
X5990000Y-9300000D03*
%TD*%
D13*
%TO.P,C6,1*%
%TO.N,+3V3*%
X7400000Y-35160000D03*
%TO.P,C6,2*%
%TO.N,Net-(DA1-FB3)*%
X7400000Y-34200000D03*
%TD*%
D35*
%TO.P,Y3,1,1*%
%TO.N,Net-(U1-XTAL_OUT)*%
X36350000Y-5100000D03*
%TO.P,Y3,2,2*%
%TO.N,GNDD*%
X36350000Y-7300000D03*
%TO.P,Y3,3,3*%
%TO.N,Net-(U1-XTAL_IN)*%
X34650000Y-7300000D03*
%TO.P,Y3,4,4*%
%TO.N,GNDD*%
X34650000Y-5100000D03*
%TD*%
D19*
%TO.P,R31,1*%
%TO.N,+3V0*%
X20850000Y-7490000D03*
%TO.P,R31,2*%
%TO.N,/PWDN*%
X20850000Y-8510000D03*
%TD*%
D30*
%TO.P,R21,1*%
%TO.N,GNDD*%
X25710000Y-2200000D03*
%TO.P,R21,2*%
%TO.N,/STROB*%
X24690000Y-2200000D03*
%TD*%
D29*
%TO.P,C15,1*%
%TO.N,+1V35*%
X16200000Y-5975000D03*
%TO.P,C15,2*%
%TO.N,GNDD*%
X16200000Y-4425000D03*
%TD*%
D21*
%TO.P,C25,1*%
%TO.N,+3V3*%
X12480000Y-19200000D03*
%TO.P,C25,2*%
%TO.N,GNDD*%
X11520000Y-19200000D03*
%TD*%
D10*
%TO.P,R17,1*%
%TO.N,+3V3*%
X27290000Y-25000000D03*
%TO.P,R17,2*%
%TO.N,/RESET*%
X28310000Y-25000000D03*
%TD*%
D32*
%TO.P,L4,1,1*%
%TO.N,Net-(DA5-SW)*%
X33200000Y-21120000D03*
%TO.P,L4,2,2*%
%TO.N,/3V3_2*%
X36000000Y-21120000D03*
%TD*%
D27*
%TO.P,C34,1*%
%TO.N,VAA*%
X20600000Y-31025000D03*
%TO.P,C34,2*%
%TO.N,GNDD*%
X20600000Y-32575000D03*
%TD*%
D29*
%TO.P,C29,1*%
%TO.N,+5V*%
X15700000Y-33125000D03*
%TO.P,C29,2*%
%TO.N,GNDD*%
X15700000Y-31575000D03*
%TD*%
D28*
%TO.P,TP14,1,1*%
%TO.N,GNDD*%
X26600000Y-4600000D03*
%TD*%
D31*
%TO.P,L3,1,1*%
%TO.N,+3V3*%
X11600000Y-34600000D03*
%TO.P,L3,2,2*%
%TO.N,Net-(DA1-LX3)*%
X8800000Y-34600000D03*
%TD*%
D18*
%TO.P,R9,1*%
%TO.N,+3V3*%
X6400000Y-35190000D03*
%TO.P,R9,2*%
%TO.N,Net-(DA1-FB3)*%
X6400000Y-34170000D03*
%TD*%
D33*
%TO.P,C2,1*%
%TO.N,+1V8*%
X3775000Y-24200000D03*
%TO.P,C2,2*%
%TO.N,GNDD*%
X2225000Y-24200000D03*
%TD*%
D11*
%TO.P,C31,1*%
%TO.N,+1V2*%
X19400000Y-15320000D03*
%TO.P,C31,2*%
%TO.N,GNDD*%
X19400000Y-16280000D03*
%TD*%
D13*
%TO.P,C46,1*%
%TO.N,VAA*%
X17800000Y-25880000D03*
%TO.P,C46,2*%
%TO.N,GNDD*%
X17800000Y-24920000D03*
%TD*%
D12*
%TO.P,C16,1*%
%TO.N,/RESET*%
X28520000Y-26000000D03*
%TO.P,C16,2*%
%TO.N,GNDD*%
X29480000Y-26000000D03*
%TD*%
D18*
%TO.P,R3,1*%
%TO.N,GNDD*%
X7400000Y-33190000D03*
%TO.P,R3,2*%
%TO.N,Net-(R3-Pad2)*%
X7400000Y-32170000D03*
%TD*%
D10*
%TO.P,R25,1*%
%TO.N,/VRA2*%
X28290000Y-18200000D03*
%TO.P,R25,2*%
%TO.N,GNDD*%
X29310000Y-18200000D03*
%TD*%
D12*
%TO.P,C5,1*%
%TO.N,+1V8*%
X2720000Y-29000000D03*
%TO.P,C5,2*%
%TO.N,Net-(DA1-FB2)*%
X3680000Y-29000000D03*
%TD*%
%TO.P,C28,1*%
%TO.N,+3V3*%
X28720000Y-24000000D03*
%TO.P,C28,2*%
%TO.N,GNDD*%
X29680000Y-24000000D03*
%TD*%
D36*
%TO.P,DA4,1,GND*%
%TO.N,GNDD*%
X17250000Y-31462500D03*
%TO.P,DA4,2,VO*%
%TO.N,VAA*%
X19150000Y-31462500D03*
%TO.P,DA4,3,VI*%
%TO.N,+5V*%
X18200000Y-33337500D03*
%TD*%
D18*
%TO.P,R32,1*%
%TO.N,+3V3*%
X30200000Y-31460000D03*
%TO.P,R32,2*%
%TO.N,/USB-ID*%
X30200000Y-30440000D03*
%TD*%
D13*
%TO.P,C20,1*%
%TO.N,+3V3*%
X21800000Y-13600000D03*
%TO.P,C20,2*%
%TO.N,GNDD*%
X21800000Y-12640000D03*
%TD*%
D10*
%TO.P,R8,1*%
%TO.N,+1V8*%
X2690000Y-30000000D03*
%TO.P,R8,2*%
%TO.N,Net-(DA1-FB2)*%
X3710000Y-30000000D03*
%TD*%
%TO.P,R10,1*%
%TO.N,+3V3*%
X20690000Y-16600000D03*
%TO.P,R10,2*%
%TO.N,/SPI_CS*%
X21710000Y-16600000D03*
%TD*%
D19*
%TO.P,R7,1*%
%TO.N,+1V2*%
X14400000Y-30890000D03*
%TO.P,R7,2*%
%TO.N,Net-(DA1-FB1)*%
X14400000Y-31910000D03*
%TD*%
D29*
%TO.P,C14,1*%
%TO.N,+3V0*%
X23400000Y-6175000D03*
%TO.P,C14,2*%
%TO.N,GNDD*%
X23400000Y-4625000D03*
%TD*%
D37*
%TO.P,X2,1,In*%
%TO.N,/ANT*%
X28800000Y-3900000D03*
D38*
%TO.P,X2,2,Ext*%
%TO.N,GNDD*%
X27325000Y-2400000D03*
X30275000Y-2400000D03*
D37*
X28800000Y-900000D03*
%TD*%
D18*
%TO.P,R30,1*%
%TO.N,GNDD*%
X21950000Y-10410000D03*
%TO.P,R30,2*%
%TO.N,/RESETB*%
X21950000Y-9390000D03*
%TD*%
D25*
%TO.P,C10,1*%
%TO.N,+5V*%
X8625000Y-23650000D03*
%TO.P,C10,2*%
%TO.N,GNDD*%
X10175000Y-23650000D03*
%TD*%
D18*
%TO.P,R34,1*%
%TO.N,GNDD*%
X20850000Y-10410000D03*
%TO.P,R34,2*%
%TO.N,/PWDN*%
X20850000Y-9390000D03*
%TD*%
D28*
%TO.P,TP9,1,1*%
%TO.N,/3V3_2*%
X36300000Y-16800000D03*
%TD*%
D33*
%TO.P,C17,1*%
%TO.N,+1V2*%
X12375000Y-21800000D03*
%TO.P,C17,2*%
%TO.N,GNDD*%
X10825000Y-21800000D03*
%TD*%
D10*
%TO.P,R27,1*%
%TO.N,Net-(DA5-FB)*%
X35290000Y-26800000D03*
%TO.P,R27,2*%
%TO.N,/3V3_2*%
X36310000Y-26800000D03*
%TD*%
D33*
%TO.P,C41,1*%
%TO.N,/3V3_2*%
X35975000Y-18800000D03*
%TO.P,C41,2*%
%TO.N,GNDD*%
X34425000Y-18800000D03*
%TD*%
D12*
%TO.P,C24,1*%
%TO.N,+3V3*%
X8520000Y-21200000D03*
%TO.P,C24,2*%
%TO.N,GNDD*%
X9480000Y-21200000D03*
%TD*%
D29*
%TO.P,C38,1*%
%TO.N,+5V*%
X31900000Y-27125000D03*
%TO.P,C38,2*%
%TO.N,GNDD*%
X31900000Y-25575000D03*
%TD*%
D12*
%TO.P,C44,1*%
%TO.N,+3V3*%
X25520000Y-29000000D03*
%TO.P,C44,2*%
%TO.N,GNDD*%
X26480000Y-29000000D03*
%TD*%
D13*
%TO.P,C32,1*%
%TO.N,+3V3*%
X14000000Y-13680000D03*
%TO.P,C32,2*%
%TO.N,GNDD*%
X14000000Y-12720000D03*
%TD*%
D39*
%TO.P,R37,1*%
%TO.N,Net-(J5-VBUS)*%
X30175000Y-29150000D03*
%TO.P,R37,2*%
%TO.N,+5V*%
X31825000Y-29150000D03*
%TD*%
D18*
%TO.P,R22,1*%
%TO.N,/I2C1_SDA*%
X24000000Y-8510000D03*
%TO.P,R22,2*%
%TO.N,+3V0*%
X24000000Y-7490000D03*
%TD*%
D13*
%TO.P,C52,1*%
%TO.N,+1V2*%
X21800000Y-29080000D03*
%TO.P,C52,2*%
%TO.N,GNDD*%
X21800000Y-28120000D03*
%TD*%
D19*
%TO.P,R1,1*%
%TO.N,GNDD*%
X12550000Y-28890000D03*
%TO.P,R1,2*%
%TO.N,Net-(R1-Pad2)*%
X12550000Y-29910000D03*
%TD*%
D12*
%TO.P,C57,1*%
%TO.N,+3V3*%
X28320000Y-22200000D03*
%TO.P,C57,2*%
%TO.N,GNDD*%
X29280000Y-22200000D03*
%TD*%
D25*
%TO.P,C8,1*%
%TO.N,+5V*%
X8625000Y-25400000D03*
%TO.P,C8,2*%
%TO.N,GNDD*%
X10175000Y-25400000D03*
%TD*%
D28*
%TO.P,TP10,1,1*%
%TO.N,/USB-D+_R*%
X30300000Y-16800000D03*
%TD*%
D12*
%TO.P,C50,1*%
%TO.N,+1V2*%
X14120000Y-17100000D03*
%TO.P,C50,2*%
%TO.N,GNDD*%
X15080000Y-17100000D03*
%TD*%
D28*
%TO.P,TP1,1,1*%
%TO.N,/LRADC*%
X23400000Y-26400000D03*
%TD*%
D40*
%TO.N,GNDD*%
X37000000Y-29500000D03*
X22150000Y-25000000D03*
%TO.N,+3V3*%
X9550000Y-6800000D03*
%TO.N,GNDD*%
X9400000Y-7900000D03*
X2450000Y-10300000D03*
D41*
%TO.N,*%
X8000000Y-19000000D03*
D40*
%TO.N,+1V2*%
X25200000Y-22200000D03*
X14000000Y-17400000D03*
X22025000Y-29575000D03*
X14000000Y-20400000D03*
X20200000Y-29600000D03*
X13034165Y-24143058D03*
X16200000Y-15200000D03*
X18200000Y-15200000D03*
X24100000Y-17500000D03*
X17200000Y-15200000D03*
X14000000Y-19000000D03*
X11600000Y-27400000D03*
%TO.N,GNDD*%
X26600000Y-4600000D03*
X32100000Y-7650000D03*
X29850000Y-9750000D03*
X2200000Y-24200000D03*
D42*
X20800000Y-18000000D03*
D40*
X32100000Y-9750000D03*
X28800000Y-32400000D03*
D42*
X20800000Y-22600000D03*
D40*
X23750000Y-33550000D03*
X17800000Y-16223500D03*
X30400000Y-18400000D03*
X35700000Y-33050000D03*
X29850000Y-7650000D03*
X11800000Y-13000000D03*
X31000000Y-7600000D03*
X11023500Y-30860178D03*
X30950000Y-9750000D03*
D42*
X18600000Y-22600000D03*
D40*
X14000000Y-32743500D03*
X17800000Y-31200000D03*
D43*
X35500000Y-2500000D03*
D40*
X7600000Y-22800000D03*
D42*
X20800000Y-20800000D03*
D40*
X8200000Y-32650000D03*
X30275551Y-19395803D03*
X24800000Y-14600000D03*
D43*
X35500000Y-35500000D03*
D40*
X34450000Y-4350000D03*
X6600000Y-28400000D03*
X15073500Y-17200000D03*
X14800000Y-34310000D03*
X32800000Y-18800000D03*
X9400000Y-18400000D03*
X37000000Y-8500000D03*
X27000000Y-29000000D03*
D42*
X20800000Y-19400000D03*
D40*
X29850000Y-8750000D03*
D42*
X18600000Y-21000000D03*
X18600000Y-18000000D03*
D40*
X36200000Y-13400000D03*
X28200000Y-16800000D03*
X33600000Y-28400000D03*
D43*
X2500000Y-2500000D03*
D40*
X11750500Y-29000000D03*
X28936000Y-26850000D03*
X32100000Y-8700000D03*
D42*
X18600000Y-19400000D03*
D40*
X19600000Y-16200000D03*
X19400000Y-32800000D03*
D43*
X2500000Y-35500000D03*
D40*
X20100000Y-25200000D03*
X9600000Y-22400000D03*
X7000000Y-31200000D03*
X31000000Y-8700000D03*
X9075250Y-29342109D03*
X12400000Y-5200000D03*
%TO.N,+1V8*%
X3825000Y-25600000D03*
X16888262Y-26125011D03*
%TO.N,+3V3*%
X22300000Y-31150000D03*
X25900000Y-27700000D03*
X20800000Y-14150500D03*
X24500000Y-16100000D03*
X28350500Y-22160000D03*
X8520000Y-21276500D03*
X15200000Y-16176500D03*
X12807648Y-20207648D03*
X23800000Y-29800000D03*
X13830528Y-14096673D03*
X28650500Y-24040000D03*
%TO.N,+5V*%
X9762375Y-31962375D03*
X35700000Y-31350000D03*
X18400000Y-36000000D03*
X16800000Y-33800000D03*
X8000000Y-26000000D03*
X3400000Y-32600000D03*
%TO.N,+3V0*%
X19992352Y-7192352D03*
X23600000Y-6600000D03*
%TO.N,+1V35*%
X20000000Y-6200000D03*
%TO.N,/RESET*%
X28520000Y-26040000D03*
%TO.N,/VRA2*%
X28109510Y-18090490D03*
%TO.N,/LRADC*%
X23400000Y-26400000D03*
%TO.N,/CSI_D5*%
X14600000Y-9200000D03*
X13000000Y-9400000D03*
%TO.N,/CSI_D4*%
X16000000Y-9800000D03*
X13200000Y-10500000D03*
%TO.N,/CSI_VS*%
X19700000Y-10150000D03*
X11600000Y-9800000D03*
%TO.N,/CSI_HS*%
X19700000Y-8150000D03*
X10600000Y-9800000D03*
%TO.N,/CSI_MCLK*%
X9600000Y-9800000D03*
X18423500Y-8000000D03*
%TO.N,/CLK_PCLK*%
X8600000Y-9800000D03*
X16800000Y-7200000D03*
%TO.N,/SPI_MISO*%
X14257648Y-22442352D03*
%TO.N,/SPI_SCK*%
X14653282Y-23291183D03*
%TO.N,/SPI_CS*%
X14869248Y-24723500D03*
%TO.N,/SPI_MOSI*%
X13850000Y-24723500D03*
%TO.N,Net-(DD1-SZQ)*%
X16249500Y-26649500D03*
%TO.N,/USB-ID*%
X29050000Y-29700000D03*
X31600000Y-22400000D03*
%TO.N,VAA*%
X17804102Y-26619398D03*
X19200000Y-26000000D03*
X21392352Y-30807648D03*
%TO.N,/I2C1_SDA*%
X24893162Y-7593162D03*
%TO.N,Net-(J5-VBUS)*%
X31400000Y-24200000D03*
%TO.N,/STROB*%
X24490000Y-4400000D03*
%TO.N,/I2C1_SCK*%
X23050000Y-9300000D03*
D44*
%TO.N,Net-(C64-Pad1)*%
X5950000Y-7550000D03*
D40*
%TO.N,Net-(DD1-MICIN1P)*%
X30150000Y-14473500D03*
%TO.N,Net-(DD1-MICIN1N)*%
X28650000Y-14473500D03*
D44*
%TO.N,Net-(C65-Pad1)*%
X3400000Y-7550000D03*
D40*
%TO.N,/3V3_2*%
X27250000Y-8886000D03*
X35800000Y-16800000D03*
X33350000Y-5300000D03*
X31400000Y-5150000D03*
X26900000Y-7740000D03*
X33350000Y-12450000D03*
%TO.N,/USB-D-_R*%
X33800000Y-16800000D03*
%TO.N,/USB-D+_R*%
X30751838Y-23110000D03*
X30300000Y-16800000D03*
X30803162Y-20943162D03*
%TO.N,/RESETB*%
X21700000Y-9550000D03*
%TO.N,/PWDN*%
X20086688Y-9150241D03*
%TO.N,Net-(U1-XTAL_OUT)*%
X35900000Y-5100000D03*
D45*
%TO.N,/ANT*%
X29200000Y-4300000D03*
D40*
%TO.N,Net-(U1-XTAL_IN)*%
X34700000Y-8500000D03*
%TO.N,/SDC1_D3*%
X32150000Y-13600000D03*
X30276500Y-12260000D03*
%TO.N,/PE24*%
X26500000Y-9750000D03*
X33649500Y-6200000D03*
%TO.N,/SDC1_CMD*%
X24450000Y-11150000D03*
X25600000Y-10200000D03*
%TO.N,/SDC1_D2*%
X26100000Y-12600000D03*
X26500000Y-10650000D03*
%TD*%
D46*
%TO.N,/SPI_MOSI*%
X13850000Y-24723500D02*
X14573500Y-24000000D01*
X14573500Y-24000000D02*
X15100000Y-24000000D01*
X15100000Y-24000000D02*
X15600000Y-23500000D01*
X15600000Y-23500000D02*
X15600000Y-22405000D01*
%TO.N,/SPI_CS*%
X15600000Y-24200000D02*
X23800000Y-24200000D01*
X23800000Y-24200000D02*
X24400000Y-23600000D01*
X23995000Y-18595000D02*
X22800000Y-18595000D01*
X14869248Y-24723500D02*
X15076500Y-24723500D01*
X15076500Y-24723500D02*
X15600000Y-24200000D01*
X24400000Y-23600000D02*
X24400000Y-19000000D01*
X24400000Y-19000000D02*
X23995000Y-18595000D01*
D47*
%TO.N,GNDD*%
X10400000Y-25400000D02*
X10450000Y-25450000D01*
X10450000Y-25450000D02*
X15215923Y-25450000D01*
X15215923Y-25450000D02*
X15775923Y-24890000D01*
X15775923Y-24890000D02*
X15800000Y-24890000D01*
X10175000Y-22975000D02*
X9600000Y-22400000D01*
X10175000Y-23650000D02*
X10175000Y-22975000D01*
X10175000Y-25400000D02*
X10175000Y-23650000D01*
X10400000Y-25400000D02*
X10400000Y-23875000D01*
D48*
%TO.N,+5V*%
X8625000Y-23650000D02*
X8600000Y-23675000D01*
X8375000Y-23900000D02*
X8625000Y-23650000D01*
X8600000Y-23675000D02*
X8600000Y-25375000D01*
D47*
%TO.N,GNDD*%
X10400000Y-23875000D02*
X10175000Y-23650000D01*
D48*
%TO.N,+5V*%
X3675000Y-21475000D02*
X6100000Y-23900000D01*
X8600000Y-25375000D02*
X8625000Y-25400000D01*
X2650000Y-21475000D02*
X3675000Y-21475000D01*
X6100000Y-23900000D02*
X8375000Y-23900000D01*
D46*
%TO.N,/SPI_SCK*%
X14653282Y-23291183D02*
X14241183Y-23291183D01*
X14241183Y-23291183D02*
X13600000Y-22650000D01*
X13600000Y-22650000D02*
X13600000Y-22250000D01*
X13600000Y-22250000D02*
X14400000Y-21450000D01*
X14400000Y-21450000D02*
X15285000Y-21450000D01*
X15285000Y-21450000D02*
X15600000Y-21135000D01*
D48*
%TO.N,+1V2*%
X12375000Y-21800000D02*
X12375000Y-22525000D01*
X12375000Y-22525000D02*
X13034165Y-23184165D01*
X13034165Y-23184165D02*
X13034165Y-24143058D01*
X14000000Y-20400000D02*
X14000000Y-20609114D01*
X14000000Y-20609114D02*
X12809114Y-21800000D01*
X12809114Y-21800000D02*
X12375000Y-21800000D01*
D46*
%TO.N,/SPI_MISO*%
X24000000Y-23200000D02*
X24000000Y-20000000D01*
X14866841Y-21805000D02*
X16436396Y-21805000D01*
X17000000Y-22368604D02*
X17000000Y-23600000D01*
X23400000Y-23800000D02*
X24000000Y-23200000D01*
X17200000Y-23800000D02*
X23400000Y-23800000D01*
X17000000Y-23600000D02*
X17200000Y-23800000D01*
X16436396Y-21805000D02*
X17000000Y-22368604D01*
X14257648Y-22414193D02*
X14866841Y-21805000D01*
X24000000Y-20000000D02*
X23865000Y-19865000D01*
X14257648Y-22442352D02*
X14257648Y-22414193D01*
X23865000Y-19865000D02*
X22800000Y-19865000D01*
D49*
%TO.N,/USB-D+_R*%
X30751838Y-23110000D02*
X30751838Y-20994486D01*
X30751838Y-20994486D02*
X30803162Y-20943162D01*
D47*
%TO.N,Net-(J5-VBUS)*%
X31400000Y-24200000D02*
X30850000Y-24750000D01*
X30850000Y-24750000D02*
X30850000Y-27400000D01*
X30850000Y-27400000D02*
X30175000Y-28075000D01*
X30175000Y-28075000D02*
X30175000Y-29150000D01*
D49*
%TO.N,/USB-ID*%
X29050000Y-29700000D02*
X29050000Y-28100000D01*
X29050000Y-28100000D02*
X30300000Y-26850000D01*
X30300000Y-24535617D02*
X31176117Y-23659500D01*
X30300000Y-26850000D02*
X30300000Y-24535617D01*
X31176117Y-23659500D02*
X31400000Y-23659500D01*
X31400000Y-23659500D02*
X31680500Y-23379000D01*
X31680500Y-23379000D02*
X31680500Y-22480500D01*
X31680500Y-22480500D02*
X31600000Y-22400000D01*
D47*
%TO.N,GNDD*%
X33462500Y-24400000D02*
X32550000Y-24400000D01*
X32550000Y-24400000D02*
X31900000Y-25050000D01*
X31900000Y-25050000D02*
X31900000Y-25575000D01*
D48*
%TO.N,+5V*%
X33800000Y-25800000D02*
X32700000Y-26900000D01*
X32700000Y-26900000D02*
X32700000Y-27450000D01*
X32700000Y-27450000D02*
X32000000Y-28150000D01*
X32000000Y-28150000D02*
X32000000Y-30900000D01*
D47*
X33800000Y-25800000D02*
X33800000Y-25687500D01*
X33800000Y-25687500D02*
X33462500Y-25350000D01*
%TO.N,GNDD*%
X29150000Y-27050000D02*
X27200000Y-29000000D01*
X29800000Y-26400000D02*
X29150000Y-27050000D01*
D46*
X29150000Y-27050000D02*
X29136000Y-27050000D01*
X29136000Y-27050000D02*
X28936000Y-26850000D01*
%TO.N,/USB-ID*%
X29150000Y-30440000D02*
X29150000Y-29800000D01*
X29150000Y-29800000D02*
X29050000Y-29700000D01*
D49*
X29460000Y-29700000D02*
X30200000Y-30440000D01*
X29050000Y-29700000D02*
X29460000Y-29700000D01*
D48*
%TO.N,GNDD*%
X22650000Y-33950000D02*
X21825000Y-34775000D01*
D46*
X22650000Y-33950000D02*
X23050000Y-33550000D01*
D48*
X23600000Y-33000000D02*
X22650000Y-33950000D01*
D46*
X23050000Y-33550000D02*
X23750000Y-33550000D01*
%TO.N,+3V3*%
X30200000Y-31460000D02*
X30200000Y-33000000D01*
X24900000Y-34000000D02*
X24700000Y-34200000D01*
X30200000Y-33000000D02*
X29200000Y-34000000D01*
X29200000Y-34000000D02*
X24900000Y-34000000D01*
X24700000Y-34200000D02*
X23700000Y-34200000D01*
X23700000Y-34200000D02*
X23075000Y-34825000D01*
X23075000Y-34825000D02*
X23075000Y-35350000D01*
%TO.N,/CSI_HS*%
X19700000Y-8150000D02*
X19250000Y-8600000D01*
X12350000Y-8050000D02*
X10600000Y-9800000D01*
X16560775Y-8600000D02*
X16010775Y-8050000D01*
X19250000Y-8600000D02*
X16560775Y-8600000D01*
X16010775Y-8050000D02*
X12350000Y-8050000D01*
%TO.N,/CSI_VS*%
X19700000Y-10150000D02*
X19332648Y-9782648D01*
X15779551Y-8550000D02*
X12850000Y-8550000D01*
X19332648Y-9782648D02*
X17012199Y-9782648D01*
X17012199Y-9782648D02*
X15779551Y-8550000D01*
X12850000Y-8550000D02*
X11600000Y-9800000D01*
%TO.N,GNDD*%
X37000000Y-29500000D02*
X36825000Y-29675000D01*
X36825000Y-29675000D02*
X36125000Y-29675000D01*
D47*
X36125000Y-29675000D02*
X35800000Y-30000000D01*
X36310000Y-29490000D02*
X36125000Y-29675000D01*
D46*
%TO.N,Net-(DA5-FB)*%
X35290000Y-26800000D02*
X35310000Y-26800000D01*
X35310000Y-26800000D02*
X36310000Y-27800000D01*
D47*
%TO.N,/3V3_2*%
X36310000Y-26800000D02*
X37200000Y-25910000D01*
X37200000Y-25910000D02*
X37200000Y-21600000D01*
X37200000Y-21600000D02*
X36720000Y-21120000D01*
X36720000Y-21120000D02*
X36000000Y-21120000D01*
D46*
%TO.N,GNDD*%
X29150000Y-31460000D02*
X29150000Y-32050000D01*
X29150000Y-32050000D02*
X28800000Y-32400000D01*
D49*
X11750500Y-29000000D02*
X11860500Y-28890000D01*
X11860500Y-28890000D02*
X12550000Y-28890000D01*
%TO.N,Net-(R1-Pad2)*%
X12550000Y-29910000D02*
X12400000Y-30060000D01*
X12400000Y-30060000D02*
X12400000Y-30890000D01*
D46*
%TO.N,GNDD*%
X11023500Y-30860178D02*
X11023500Y-32048500D01*
X11023500Y-32048500D02*
X11175000Y-32200000D01*
X11023500Y-30860178D02*
X11023500Y-30223500D01*
X11023500Y-30223500D02*
X10800000Y-30000000D01*
X10800000Y-30000000D02*
X10374750Y-30000000D01*
X8200000Y-32650000D02*
X7660000Y-33190000D01*
X7660000Y-33190000D02*
X7400000Y-33190000D01*
%TO.N,Net-(DA1-LX3)*%
X8124750Y-30650000D02*
X8124750Y-31724750D01*
X8124750Y-31724750D02*
X8800000Y-32400000D01*
X8800000Y-32400000D02*
X8800000Y-34600000D01*
D49*
%TO.N,GNDD*%
X36350000Y-7300000D02*
X36350000Y-7850000D01*
X36350000Y-7850000D02*
X37000000Y-8500000D01*
D50*
X37000000Y-8500000D02*
X37000000Y-7750000D01*
X37000000Y-7750000D02*
X34650000Y-5400000D01*
X34650000Y-5400000D02*
X34650000Y-5100000D01*
D46*
%TO.N,Net-(U1-XTAL_IN)*%
X34700000Y-8500000D02*
X34700000Y-7350000D01*
X34700000Y-7350000D02*
X34650000Y-7300000D01*
%TO.N,/I2C1_SDA*%
X24000000Y-8510000D02*
X24540000Y-8510000D01*
X24540000Y-8510000D02*
X24893162Y-8156838D01*
X24893162Y-8156838D02*
X24893162Y-7593162D01*
D47*
%TO.N,/I2C1_SCK*%
X23050000Y-9300000D02*
X23000000Y-9250000D01*
X23000000Y-9250000D02*
X23000000Y-8510000D01*
D46*
%TO.N,GNDD*%
X20850000Y-10410000D02*
X23640000Y-10410000D01*
X23640000Y-10410000D02*
X25600000Y-8450000D01*
X25600000Y-8450000D02*
X25600000Y-6100000D01*
X25600000Y-6100000D02*
X24900000Y-5400000D01*
D49*
%TO.N,/PE24*%
X34200000Y-12600000D02*
X34200000Y-12200000D01*
X33650000Y-13150000D02*
X34200000Y-12600000D01*
X33650000Y-6200500D02*
X33649500Y-6200000D01*
X33100000Y-13150000D02*
X33650000Y-13150000D01*
X33650000Y-11650000D02*
X33650000Y-6200500D01*
X26500000Y-9750000D02*
X28400000Y-11650000D01*
X34200000Y-12200000D02*
X33650000Y-11650000D01*
X31600000Y-11650000D02*
X33100000Y-13150000D01*
X28400000Y-11650000D02*
X31600000Y-11650000D01*
D46*
%TO.N,/PWDN*%
X20086688Y-9150241D02*
X20209759Y-9150241D01*
X20209759Y-9150241D02*
X20850000Y-8510000D01*
D47*
%TO.N,GNDD*%
X20300000Y-25000000D02*
X22150000Y-25000000D01*
X24120000Y-25000000D02*
X22150000Y-25000000D01*
D49*
%TO.N,+3V3*%
X7010000Y-9300000D02*
X7750000Y-8560000D01*
X7750000Y-8560000D02*
X7750000Y-7870000D01*
X7750000Y-7870000D02*
X8550000Y-7070000D01*
%TO.N,GNDD*%
X6980000Y-10250000D02*
X7350000Y-10250000D01*
X7350000Y-10250000D02*
X7700000Y-9900000D01*
X7700000Y-9900000D02*
X7700000Y-9550000D01*
X7700000Y-9550000D02*
X9350000Y-7900000D01*
X9350000Y-7900000D02*
X9400000Y-7900000D01*
D46*
%TO.N,/CSI_D4*%
X15712309Y-10087691D02*
X16000000Y-9800000D01*
X13200000Y-10500000D02*
X13612309Y-10087691D01*
X13612309Y-10087691D02*
X15712309Y-10087691D01*
D49*
%TO.N,+3V3*%
X8550000Y-7070000D02*
X9280000Y-7070000D01*
X9280000Y-7070000D02*
X9550000Y-6800000D01*
%TO.N,Net-(C64-Pad1)*%
X7750000Y-11120000D02*
X7220000Y-11650000D01*
X7220000Y-11650000D02*
X6400000Y-11650000D01*
X6400000Y-11650000D02*
X5950000Y-11200000D01*
X5950000Y-11200000D02*
X5950000Y-7550000D01*
%TO.N,GNDD*%
X8550000Y-8030000D02*
X9270000Y-8030000D01*
X9270000Y-8030000D02*
X9400000Y-7900000D01*
X2500000Y-10250000D02*
X2450000Y-10300000D01*
X4040000Y-10250000D02*
X2500000Y-10250000D01*
X4040000Y-10250000D02*
X4040000Y-9330000D01*
X4040000Y-9330000D02*
X4070000Y-9300000D01*
%TO.N,Net-(C65-Pad1)*%
X5030000Y-9030000D02*
X4600000Y-8600000D01*
X5030000Y-9300000D02*
X5030000Y-9030000D01*
X4600000Y-8600000D02*
X4450000Y-8600000D01*
X4450000Y-8600000D02*
X3400000Y-7550000D01*
X5060000Y-10250000D02*
X5060000Y-9330000D01*
X5060000Y-9330000D02*
X5030000Y-9300000D01*
X7750000Y-12080000D02*
X6230000Y-12080000D01*
X6230000Y-12080000D02*
X5060000Y-10910000D01*
X5060000Y-10910000D02*
X5060000Y-10250000D01*
X8770000Y-12150000D02*
X7820000Y-12150000D01*
X7820000Y-12150000D02*
X7750000Y-12080000D01*
%TO.N,Net-(C64-Pad1)*%
X8790000Y-11050000D02*
X7820000Y-11050000D01*
X7820000Y-11050000D02*
X7750000Y-11120000D01*
D48*
%TO.N,+3V3*%
X12600000Y-35600000D02*
X11600000Y-34600000D01*
X16781687Y-35600000D02*
X12600000Y-35600000D01*
X17581687Y-34800000D02*
X16781687Y-35600000D01*
X20200000Y-34800000D02*
X17581687Y-34800000D01*
X22451547Y-32548453D02*
X20200000Y-34800000D01*
X22451547Y-31200000D02*
X22451547Y-31148453D01*
X22451547Y-31148453D02*
X23800000Y-29800000D01*
X22451547Y-31200000D02*
X22451547Y-32548453D01*
D49*
%TO.N,Net-(DD1-MICIN1P)*%
X10500000Y-11200000D02*
X9900000Y-11200000D01*
X9900000Y-11200000D02*
X9750000Y-11050000D01*
X30150000Y-14473500D02*
X29573500Y-14473500D01*
X29000000Y-13900000D02*
X26309210Y-13900000D01*
X29573500Y-14473500D02*
X29000000Y-13900000D01*
X26309210Y-13900000D02*
X23709210Y-11300000D01*
X23709210Y-11300000D02*
X10600000Y-11300000D01*
X10600000Y-11300000D02*
X10500000Y-11200000D01*
%TO.N,Net-(DD1-MICIN1N)*%
X28650000Y-14473500D02*
X26323500Y-14473500D01*
X26323500Y-14473500D02*
X23450000Y-11600000D01*
X23450000Y-11600000D02*
X10280000Y-11600000D01*
X10280000Y-11600000D02*
X9730000Y-12150000D01*
D48*
%TO.N,+1V2*%
X25200000Y-18600000D02*
X25200000Y-22200000D01*
X20200000Y-29600000D02*
X17600000Y-29600000D01*
X14400000Y-15200000D02*
X16200000Y-15200000D01*
X12225000Y-26775000D02*
X14775000Y-26775000D01*
X14000000Y-20400000D02*
X14000000Y-19000000D01*
X22025000Y-29575000D02*
X20225000Y-29575000D01*
X24100000Y-17500000D02*
X25200000Y-18600000D01*
D50*
X14910000Y-30890000D02*
X16800000Y-29000000D01*
D48*
X25200000Y-22200000D02*
X25200000Y-26400000D01*
D50*
X14400000Y-30890000D02*
X14910000Y-30890000D01*
D48*
X17200000Y-15200000D02*
X18200000Y-15200000D01*
X14000000Y-15600000D02*
X14400000Y-15200000D01*
X14000000Y-17400000D02*
X14000000Y-15600000D01*
X14000000Y-19000000D02*
X14000000Y-17400000D01*
X20225000Y-29575000D02*
X20200000Y-29600000D01*
X18200000Y-15200000D02*
X21800000Y-15200000D01*
X17600000Y-29600000D02*
X16800000Y-28800000D01*
D50*
X16800000Y-29000000D02*
X16800000Y-28800000D01*
D48*
X25200000Y-26400000D02*
X22025000Y-29575000D01*
X14775000Y-26775000D02*
X16800000Y-28800000D01*
X21800000Y-15200000D02*
X24100000Y-17500000D01*
D50*
X14400000Y-30890000D02*
X13430000Y-30890000D01*
D48*
X11600000Y-27400000D02*
X12225000Y-26775000D01*
X16200000Y-15200000D02*
X17200000Y-15200000D01*
D50*
X13430000Y-30890000D02*
X13400000Y-30920000D01*
D47*
%TO.N,GNDD*%
X35500000Y-2500000D02*
X33600000Y-600000D01*
X15073500Y-17200000D02*
X15073500Y-17106500D01*
D48*
X6800000Y-17000000D02*
X11000000Y-17000000D01*
X6075000Y-17725000D02*
X6800000Y-17000000D01*
D46*
X9075250Y-29342109D02*
X8533141Y-28800000D01*
X8533141Y-28800000D02*
X7474750Y-28800000D01*
D47*
X34000000Y-24400000D02*
X33462500Y-24400000D01*
D46*
X11600000Y-29000000D02*
X11400000Y-28800000D01*
D48*
X11200000Y-17200000D02*
X11200000Y-18800000D01*
D47*
X24900000Y-5400000D02*
X25800000Y-5400000D01*
D46*
X19400000Y-32800000D02*
X20375000Y-32800000D01*
D47*
X18200000Y-16280000D02*
X18143500Y-16223500D01*
D46*
X7474750Y-28400000D02*
X7724750Y-28400000D01*
D47*
X9480000Y-21200000D02*
X11200000Y-21200000D01*
X34425000Y-18800000D02*
X34425000Y-19225000D01*
X31000000Y-8700000D02*
X29450000Y-7150000D01*
X30400000Y-7000000D02*
X30400000Y-5121866D01*
D50*
X19837500Y-4037500D02*
X18800000Y-3000000D01*
D48*
X25650000Y-15450000D02*
X34150000Y-15450000D01*
D46*
X11750500Y-29000000D02*
X11600000Y-29000000D01*
D47*
X20000000Y-27400000D02*
X20200000Y-27200000D01*
X7800000Y-22400000D02*
X7600000Y-22600000D01*
X33600000Y-600000D02*
X30600000Y-600000D01*
X20100000Y-25200000D02*
X20200000Y-25300000D01*
X22800000Y-22405000D02*
X20995000Y-22405000D01*
X15812500Y-31462500D02*
X15700000Y-31575000D01*
D48*
X28287631Y-16800000D02*
X28200000Y-16800000D01*
D50*
X18800000Y-3000000D02*
X17800000Y-3000000D01*
X17800000Y-3000000D02*
X16375000Y-4425000D01*
D47*
X29826162Y-19845192D02*
X29826162Y-21496151D01*
D48*
X21825000Y-34775000D02*
X21825000Y-35350000D01*
D47*
X20100000Y-25200000D02*
X20300000Y-25000000D01*
D46*
X11400000Y-28800000D02*
X10374750Y-28800000D01*
D48*
X22800000Y-12600000D02*
X12400000Y-12600000D01*
D47*
X30275000Y-925000D02*
X30600000Y-600000D01*
X23425000Y-4625000D02*
X24200000Y-5400000D01*
X16800000Y-16280000D02*
X19520000Y-16280000D01*
D46*
X9217359Y-29200000D02*
X9075250Y-29342109D01*
D47*
X14000000Y-33825000D02*
X13800000Y-34025000D01*
X11718500Y-32743500D02*
X11175000Y-32200000D01*
X29826162Y-21496151D02*
X29327000Y-21995313D01*
X12462500Y-5137500D02*
X12400000Y-5200000D01*
X33021866Y-2500000D02*
X35500000Y-2500000D01*
X14610577Y-32743500D02*
X15700000Y-31654077D01*
X3725000Y-17725000D02*
X2650000Y-17725000D01*
X29327000Y-23327000D02*
X29800000Y-23800000D01*
X15700000Y-31654077D02*
X15700000Y-31575000D01*
D48*
X25000000Y-32000000D02*
X24000000Y-33000000D01*
D47*
X18143500Y-16223500D02*
X17800000Y-16223500D01*
X4800000Y-18800000D02*
X3725000Y-17725000D01*
X34600000Y-19400000D02*
X34600000Y-23800000D01*
X31000000Y-8700000D02*
X31000000Y-7600000D01*
X21800000Y-28120000D02*
X20000000Y-28120000D01*
X25800000Y-5400000D02*
X26600000Y-4600000D01*
X25710000Y-2200000D02*
X25710000Y-3710000D01*
X35800000Y-30000000D02*
X34400000Y-30000000D01*
D48*
X27000000Y-30000000D02*
X25000000Y-32000000D01*
D46*
X18800000Y-32600000D02*
X17800000Y-31600000D01*
D47*
X13312500Y-4575000D02*
X12750000Y-5137500D01*
D46*
X9324750Y-29591609D02*
X9324750Y-30650000D01*
D47*
X20350000Y-4037500D02*
X20425000Y-4112500D01*
X14600000Y-4575000D02*
X13312500Y-4575000D01*
X14000000Y-32743500D02*
X14000000Y-33825000D01*
X7124750Y-28400000D02*
X7324750Y-28600000D01*
D46*
X10374750Y-30000000D02*
X10790325Y-30000000D01*
D47*
X30400000Y-5121866D02*
X33021866Y-2500000D01*
D46*
X7724750Y-28400000D02*
X8124750Y-28800000D01*
D50*
X16375000Y-4425000D02*
X16200000Y-4425000D01*
D47*
X19520000Y-16280000D02*
X19600000Y-16200000D01*
D46*
X7124750Y-31200000D02*
X7474750Y-30850000D01*
X7474750Y-30850000D02*
X7474750Y-30000000D01*
X7000000Y-31200000D02*
X7124750Y-31200000D01*
D48*
X11000000Y-17000000D02*
X11200000Y-17200000D01*
D47*
X33600000Y-29200000D02*
X33600000Y-28400000D01*
X14515000Y-34025000D02*
X14800000Y-34310000D01*
X23400000Y-4625000D02*
X23425000Y-4625000D01*
D46*
X19200000Y-32600000D02*
X18800000Y-32600000D01*
X19400000Y-32800000D02*
X19200000Y-32600000D01*
D47*
X24200000Y-5400000D02*
X24900000Y-5400000D01*
D46*
X9617359Y-28800000D02*
X10374750Y-28800000D01*
D47*
X20000000Y-28120000D02*
X20000000Y-27400000D01*
X28350000Y-7150000D02*
X26600000Y-5400000D01*
X26600000Y-800000D02*
X26400000Y-600000D01*
X9600000Y-22400000D02*
X7800000Y-22400000D01*
D48*
X12400000Y-12600000D02*
X11200000Y-13800000D01*
X34150000Y-15450000D02*
X36200000Y-13400000D01*
D47*
X27200000Y-29000000D02*
X27000000Y-29000000D01*
X14000000Y-32743500D02*
X11718500Y-32743500D01*
X7600000Y-22600000D02*
X7600000Y-22800000D01*
D48*
X11200000Y-13800000D02*
X11200000Y-17200000D01*
D47*
X29327000Y-21995313D02*
X29327000Y-23327000D01*
X22887500Y-4112500D02*
X23400000Y-4625000D01*
D48*
X23800000Y-33000000D02*
X23600000Y-33000000D01*
D47*
X13800000Y-34025000D02*
X14515000Y-34025000D01*
X15800000Y-24890000D02*
X18770000Y-24890000D01*
D50*
X20350000Y-4037500D02*
X19837500Y-4037500D01*
D48*
X24000000Y-33000000D02*
X23800000Y-33000000D01*
D47*
X17250000Y-31462500D02*
X15812500Y-31462500D01*
X16050000Y-4575000D02*
X14600000Y-4575000D01*
D48*
X11200000Y-24600000D02*
X11200000Y-21200000D01*
D47*
X36310000Y-28800000D02*
X36310000Y-29490000D01*
X34425000Y-19225000D02*
X34600000Y-19400000D01*
X25710000Y-3710000D02*
X26600000Y-4600000D01*
X18770000Y-24890000D02*
X18800000Y-24920000D01*
X15073500Y-17106500D02*
X15080000Y-17100000D01*
X30275000Y-2400000D02*
X30275000Y-925000D01*
X34400000Y-30000000D02*
X33600000Y-29200000D01*
X20425000Y-4112500D02*
X21900000Y-4112500D01*
X19820000Y-24920000D02*
X18800000Y-24920000D01*
D48*
X10400000Y-25400000D02*
X11200000Y-24600000D01*
D46*
X20375000Y-32800000D02*
X20600000Y-32575000D01*
D47*
X9400000Y-18400000D02*
X10800000Y-18400000D01*
D48*
X28200000Y-16800000D02*
X27000000Y-16800000D01*
D46*
X10374750Y-29200000D02*
X9217359Y-29200000D01*
D47*
X23400000Y-4625000D02*
X23400000Y-600000D01*
D48*
X33575000Y-28400000D02*
X33600000Y-28400000D01*
D46*
X9075250Y-29342109D02*
X9617359Y-28800000D01*
D47*
X19375000Y-28025000D02*
X20200000Y-27200000D01*
X31000000Y-7600000D02*
X30400000Y-7000000D01*
X23400000Y-600000D02*
X4400000Y-600000D01*
D48*
X11200000Y-18800000D02*
X11200000Y-21200000D01*
D47*
X26600000Y-4600000D02*
X26600000Y-800000D01*
D48*
X30275551Y-18787920D02*
X28287631Y-16800000D01*
D46*
X9075250Y-29342109D02*
X9324750Y-29591609D01*
D47*
X20100000Y-25200000D02*
X19820000Y-24920000D01*
X6600000Y-28400000D02*
X7124750Y-28400000D01*
D49*
X4690000Y-29000000D02*
X4690000Y-28910000D01*
D48*
X32800000Y-18800000D02*
X30287631Y-18800000D01*
D47*
X34425000Y-18800000D02*
X32800000Y-18800000D01*
D48*
X28800000Y-32400000D02*
X25400000Y-32400000D01*
D47*
X10800000Y-18400000D02*
X11200000Y-18800000D01*
X18600000Y-28025000D02*
X19375000Y-28025000D01*
X26600000Y-5400000D02*
X26600000Y-4600000D01*
D48*
X30287631Y-18800000D02*
X30275551Y-18787920D01*
X30275551Y-19395803D02*
X30275551Y-18787920D01*
D47*
X30600000Y-600000D02*
X26400000Y-600000D01*
X12750000Y-5137500D02*
X12462500Y-5137500D01*
X7600000Y-22600000D02*
X4800000Y-19800000D01*
X14000000Y-32743500D02*
X14610577Y-32743500D01*
D48*
X2650000Y-17725000D02*
X6075000Y-17725000D01*
D49*
X5200000Y-28400000D02*
X6600000Y-28400000D01*
D48*
X24800000Y-14600000D02*
X25650000Y-15450000D01*
D47*
X21900000Y-4112500D02*
X22887500Y-4112500D01*
D49*
X4690000Y-28910000D02*
X5200000Y-28400000D01*
D48*
X25400000Y-32400000D02*
X25000000Y-32000000D01*
D47*
X29800000Y-23800000D02*
X29800000Y-26400000D01*
X4400000Y-600000D02*
X2500000Y-2500000D01*
X20995000Y-22405000D02*
X20800000Y-22600000D01*
D48*
X27000000Y-29000000D02*
X27000000Y-30000000D01*
D47*
X34600000Y-23800000D02*
X34000000Y-24400000D01*
X4800000Y-19800000D02*
X4800000Y-18800000D01*
X2225000Y-24200000D02*
X2200000Y-24200000D01*
X16200000Y-4425000D02*
X16050000Y-4575000D01*
X26400000Y-600000D02*
X23400000Y-600000D01*
D46*
X17800000Y-31600000D02*
X17800000Y-31200000D01*
D48*
X27000000Y-16800000D02*
X22800000Y-12600000D01*
D47*
X30275551Y-19395803D02*
X29826162Y-19845192D01*
X20200000Y-25300000D02*
X20200000Y-27200000D01*
X29450000Y-7150000D02*
X28350000Y-7150000D01*
%TO.N,+1V8*%
X16800000Y-26036749D02*
X16888262Y-26125011D01*
D49*
X2690000Y-29030000D02*
X2720000Y-29000000D01*
D47*
X3775000Y-25825000D02*
X3775000Y-24200000D01*
X3000000Y-26600000D02*
X3775000Y-25825000D01*
D49*
X2690000Y-30000000D02*
X2690000Y-29030000D01*
D47*
X16800000Y-25880000D02*
X16800000Y-26036749D01*
D49*
X2720000Y-26880000D02*
X3000000Y-26600000D01*
X2720000Y-29000000D02*
X2720000Y-26880000D01*
D48*
%TO.N,+3V3*%
X24500000Y-16100000D02*
X26600000Y-18200000D01*
D46*
X7400000Y-36000000D02*
X7800000Y-36400000D01*
X7370000Y-35190000D02*
X7400000Y-35160000D01*
X21600000Y-17400000D02*
X20800000Y-16600000D01*
D48*
X26600000Y-27000000D02*
X26600000Y-23800000D01*
X26600000Y-21800000D02*
X26600000Y-23800000D01*
D46*
X10800000Y-36400000D02*
X11600000Y-35600000D01*
D47*
X15200000Y-16176500D02*
X15376500Y-16176500D01*
D46*
X20800000Y-16600000D02*
X20690000Y-16600000D01*
D47*
X28350500Y-22160000D02*
X26960000Y-22160000D01*
D48*
X13800000Y-14000000D02*
X22400000Y-14000000D01*
D46*
X6400000Y-35190000D02*
X7370000Y-35190000D01*
D47*
X15600000Y-18595000D02*
X15600000Y-19865000D01*
D46*
X11600000Y-35600000D02*
X11600000Y-34600000D01*
X20290000Y-17000000D02*
X20690000Y-16600000D01*
D47*
X16000000Y-16800000D02*
X16000000Y-18200000D01*
D48*
X12650000Y-20050000D02*
X12650000Y-15150000D01*
D47*
X28650500Y-24040000D02*
X26840000Y-24040000D01*
D48*
X23800000Y-29800000D02*
X26600000Y-27000000D01*
D47*
X26840000Y-24040000D02*
X26600000Y-23800000D01*
X16000000Y-18200000D02*
X15600000Y-18600000D01*
D46*
X15600000Y-18600000D02*
X17200000Y-17000000D01*
D48*
X12650000Y-15150000D02*
X13800000Y-14000000D01*
D47*
X15376500Y-16176500D02*
X16000000Y-16800000D01*
D48*
X12807648Y-20207648D02*
X12650000Y-20050000D01*
D46*
X22000000Y-21000000D02*
X21600000Y-20600000D01*
X17200000Y-17000000D02*
X20290000Y-17000000D01*
X7400000Y-35160000D02*
X7400000Y-36000000D01*
X22665000Y-21000000D02*
X22000000Y-21000000D01*
X22800000Y-21135000D02*
X22665000Y-21000000D01*
D48*
X26600000Y-18200000D02*
X26600000Y-21800000D01*
D47*
X15600000Y-18600000D02*
X15600000Y-18595000D01*
X26960000Y-22160000D02*
X26600000Y-21800000D01*
D48*
X22400000Y-14000000D02*
X24500000Y-16100000D01*
D46*
X21600000Y-20600000D02*
X21600000Y-17400000D01*
X7800000Y-36400000D02*
X10800000Y-36400000D01*
%TO.N,Net-(DA1-FB1)*%
X11600000Y-31000000D02*
X11600000Y-30000000D01*
X14400000Y-31910000D02*
X12400000Y-31910000D01*
X11200000Y-29600000D02*
X10374750Y-29600000D01*
X11600000Y-30000000D02*
X11200000Y-29600000D01*
X12400000Y-31800000D02*
X11600000Y-31000000D01*
X12400000Y-31910000D02*
X12400000Y-31800000D01*
D49*
%TO.N,Net-(DA1-FB2)*%
X7474750Y-29200000D02*
X6800000Y-29200000D01*
X6400000Y-29600000D02*
X6400000Y-30200000D01*
X5000000Y-30600000D02*
X4690000Y-30290000D01*
X6400000Y-30200000D02*
X6000000Y-30600000D01*
X4690000Y-30000000D02*
X3710000Y-30000000D01*
X6800000Y-29200000D02*
X6400000Y-29600000D01*
X4690000Y-30290000D02*
X4690000Y-30000000D01*
X6000000Y-30600000D02*
X5000000Y-30600000D01*
X3680000Y-29000000D02*
X3680000Y-29970000D01*
X3680000Y-29970000D02*
X3710000Y-30000000D01*
D46*
%TO.N,Net-(DA1-FB3)*%
X6430000Y-34200000D02*
X6400000Y-34170000D01*
D49*
X6190000Y-33190000D02*
X6400000Y-33190000D01*
X5600000Y-31400000D02*
X5600000Y-32600000D01*
X6654000Y-29746000D02*
X6654000Y-30346000D01*
D46*
X6400000Y-33190000D02*
X6400000Y-34170000D01*
D49*
X5600000Y-32600000D02*
X6190000Y-33190000D01*
X6654000Y-30346000D02*
X5600000Y-31400000D01*
D46*
X7400000Y-34200000D02*
X6430000Y-34200000D01*
D49*
X7474750Y-29600000D02*
X6800000Y-29600000D01*
X6800000Y-29600000D02*
X6654000Y-29746000D01*
D48*
%TO.N,+5V*%
X800000Y-20550000D02*
X1725000Y-21475000D01*
D46*
X8524750Y-31524750D02*
X8800000Y-31800000D01*
D48*
X32450000Y-31350000D02*
X32000000Y-30900000D01*
X31600000Y-37200000D02*
X6400000Y-37200000D01*
D46*
X9324750Y-27750000D02*
X9324750Y-26099750D01*
X9724750Y-30650000D02*
X9724750Y-31924750D01*
X9324750Y-26099750D02*
X8625000Y-25400000D01*
D48*
X6400000Y-37200000D02*
X5000000Y-35800000D01*
D46*
X8924750Y-27750000D02*
X8924750Y-25575000D01*
D48*
X793000Y-31793000D02*
X793000Y-29207000D01*
D46*
X9724750Y-31924750D02*
X9762375Y-31962375D01*
D47*
X15912500Y-33337500D02*
X15700000Y-33125000D01*
D48*
X1725000Y-21475000D02*
X2650000Y-21475000D01*
D46*
X8625000Y-25425000D02*
X8625000Y-25400000D01*
D47*
X21500000Y-2162500D02*
X21900000Y-2562500D01*
D48*
X800000Y-22400000D02*
X1725000Y-21475000D01*
X5000000Y-34200000D02*
X3400000Y-32600000D01*
X793000Y-29207000D02*
X800000Y-29200000D01*
X32000000Y-36800000D02*
X31600000Y-37200000D01*
D47*
X16400000Y-2400000D02*
X19162500Y-2400000D01*
X34050000Y-25350000D02*
X33462500Y-25350000D01*
X14362500Y-3262500D02*
X14600000Y-3025000D01*
D46*
X8800000Y-31800000D02*
X9000000Y-31800000D01*
D47*
X17062500Y-33537500D02*
X17062500Y-33337500D01*
X35737500Y-23450000D02*
X35737500Y-23662500D01*
D48*
X32000000Y-30900000D02*
X32000000Y-36800000D01*
X5000000Y-35800000D02*
X5000000Y-34200000D01*
D46*
X9724750Y-26524750D02*
X8625000Y-25425000D01*
D48*
X1600000Y-32600000D02*
X793000Y-31793000D01*
X8625000Y-25400000D02*
X8600000Y-25400000D01*
D47*
X16800000Y-33800000D02*
X17062500Y-33537500D01*
X17062500Y-33337500D02*
X15912500Y-33337500D01*
D46*
X8924750Y-31724750D02*
X9000000Y-31800000D01*
X8524750Y-30650000D02*
X8524750Y-31524750D01*
D48*
X800000Y-7300000D02*
X800000Y-20550000D01*
D47*
X19400000Y-2162500D02*
X21500000Y-2162500D01*
X18200000Y-33337500D02*
X17062500Y-33337500D01*
D48*
X35700000Y-31350000D02*
X32450000Y-31350000D01*
D46*
X9162375Y-31962375D02*
X9762375Y-31962375D01*
X9000000Y-31800000D02*
X9162375Y-31962375D01*
D47*
X11800000Y-3262500D02*
X14362500Y-3262500D01*
D48*
X800000Y-29200000D02*
X800000Y-22400000D01*
D47*
X14600000Y-3025000D02*
X15775000Y-3025000D01*
D48*
X3400000Y-32600000D02*
X1600000Y-32600000D01*
D46*
X9724750Y-27750000D02*
X9724750Y-26524750D01*
D47*
X19162500Y-2400000D02*
X19400000Y-2162500D01*
D48*
X11800000Y-3262500D02*
X4837500Y-3262500D01*
D46*
X8924750Y-30650000D02*
X8924750Y-31724750D01*
D47*
X18400000Y-36000000D02*
X19400000Y-37000000D01*
D46*
X9000000Y-25625000D02*
X8775000Y-25400000D01*
D47*
X15775000Y-3025000D02*
X16400000Y-2400000D01*
X35737500Y-23662500D02*
X34050000Y-25350000D01*
D48*
X8600000Y-25400000D02*
X8000000Y-26000000D01*
D46*
X9724750Y-32000000D02*
X9762375Y-31962375D01*
X8775000Y-25400000D02*
X8625000Y-25400000D01*
D48*
X4837500Y-3262500D02*
X800000Y-7300000D01*
D46*
X8524750Y-27750000D02*
X8524750Y-25625000D01*
D47*
%TO.N,+3V0*%
X19992352Y-7192352D02*
X21607648Y-7192352D01*
X19812500Y-5400000D02*
X21000000Y-5400000D01*
X21607648Y-7192352D02*
X22200000Y-6600000D01*
X23000000Y-7490000D02*
X23000000Y-6600000D01*
X18450000Y-4037500D02*
X19812500Y-5400000D01*
X24000000Y-7490000D02*
X23000000Y-7490000D01*
X23000000Y-6600000D02*
X23600000Y-6600000D01*
X22200000Y-6600000D02*
X23000000Y-6600000D01*
X21000000Y-5400000D02*
X22200000Y-6600000D01*
%TO.N,+1V35*%
X10850000Y-5450000D02*
X10850000Y-5137500D01*
X11850000Y-6450000D02*
X10850000Y-5450000D01*
X16200000Y-5975000D02*
X16025000Y-5975000D01*
X16425000Y-6200000D02*
X16200000Y-5975000D01*
X16025000Y-5975000D02*
X15550000Y-6450000D01*
X15550000Y-6450000D02*
X11850000Y-6450000D01*
X20000000Y-6200000D02*
X16425000Y-6200000D01*
D46*
%TO.N,/RESET*%
X28520000Y-26000000D02*
X28520000Y-25230000D01*
X28520000Y-25230000D02*
X28400000Y-25110000D01*
%TO.N,Net-(DA1-LX2)*%
X6000000Y-26400000D02*
X5800000Y-26600000D01*
X8124750Y-27750000D02*
X7474750Y-27750000D01*
X7474750Y-27750000D02*
X6124750Y-26400000D01*
%TO.N,Net-(DA1-LX1)*%
X13400000Y-28200000D02*
X14000000Y-28800000D01*
X11600000Y-28400000D02*
X10374750Y-28400000D01*
X11600000Y-28400000D02*
X11800000Y-28200000D01*
X11800000Y-28200000D02*
X13400000Y-28200000D01*
%TO.N,/CSI_D5*%
X14600000Y-9200000D02*
X13200000Y-9200000D01*
X13200000Y-9200000D02*
X13000000Y-9400000D01*
%TO.N,/CSI_MCLK*%
X16133998Y-7550000D02*
X16583998Y-8000000D01*
X11850000Y-7550000D02*
X16133998Y-7550000D01*
X9600000Y-9800000D02*
X11850000Y-7550000D01*
X16583998Y-8000000D02*
X18423500Y-8000000D01*
%TO.N,/CLK_PCLK*%
X16700000Y-7100000D02*
X16800000Y-7200000D01*
X11300000Y-7100000D02*
X16700000Y-7100000D01*
X8600000Y-9800000D02*
X11300000Y-7100000D01*
%TO.N,/SPI_CS*%
X22800000Y-17600000D02*
X21800000Y-16600000D01*
X22800000Y-18595000D02*
X22800000Y-17600000D01*
X21800000Y-16600000D02*
X21710000Y-16600000D01*
D47*
%TO.N,Net-(DD1-SZQ)*%
X15800000Y-26200000D02*
X15800000Y-25910000D01*
X16249500Y-26649500D02*
X15800000Y-26200000D01*
D46*
%TO.N,VAA*%
X21175000Y-31025000D02*
X21392352Y-30807648D01*
D47*
X20575000Y-31000000D02*
X20600000Y-31025000D01*
D46*
X20600000Y-31025000D02*
X21175000Y-31025000D01*
D47*
X17804102Y-25884102D02*
X17800000Y-25880000D01*
X19612500Y-31000000D02*
X20575000Y-31000000D01*
X19150000Y-31462500D02*
X19612500Y-31000000D01*
X17800000Y-25880000D02*
X19080000Y-25880000D01*
X17804102Y-26619398D02*
X17804102Y-25884102D01*
X19080000Y-25880000D02*
X19200000Y-26000000D01*
D46*
%TO.N,/STROB*%
X24490000Y-2400000D02*
X24690000Y-2200000D01*
X24490000Y-4400000D02*
X24490000Y-2400000D01*
D49*
%TO.N,Net-(R2-Pad2)*%
X5710000Y-30000000D02*
X5710000Y-29000000D01*
D46*
%TO.N,Net-(R3-Pad2)*%
X7400000Y-32170000D02*
X6400000Y-32170000D01*
D49*
%TO.N,Net-(C65-Pad1)*%
X3400000Y-7950000D02*
X3400000Y-7550000D01*
D47*
%TO.N,Net-(DA5-SW)*%
X33462500Y-23450000D02*
X33462500Y-21382500D01*
X33462500Y-21382500D02*
X33200000Y-21120000D01*
%TO.N,Net-(DA5-FB)*%
X35737500Y-25350000D02*
X35737500Y-25862500D01*
X35737500Y-25862500D02*
X35290000Y-26310000D01*
X35290000Y-26310000D02*
X35290000Y-26800000D01*
%TO.N,Net-(R13-Pad2)*%
X35290000Y-27800000D02*
X35290000Y-28800000D01*
D50*
%TO.N,/3V3_2*%
X33048000Y-5602000D02*
X33350000Y-5300000D01*
D49*
X35800000Y-16800000D02*
X36300000Y-16800000D01*
D50*
X33300000Y-6751357D02*
X33048000Y-6499357D01*
D47*
X33350000Y-12450000D02*
X32000000Y-11100000D01*
D50*
X26900000Y-8900000D02*
X29050000Y-11050000D01*
D47*
X32000000Y-11100000D02*
X29150000Y-11100000D01*
X36000000Y-21120000D02*
X36000000Y-18825000D01*
D50*
X29050000Y-11050000D02*
X32550000Y-11050000D01*
D47*
X36300000Y-16800000D02*
X36300000Y-18475000D01*
X36300000Y-18475000D02*
X35975000Y-18800000D01*
X29150000Y-11100000D02*
X27345000Y-9295000D01*
X36000000Y-18825000D02*
X35975000Y-18800000D01*
D50*
X32550000Y-11050000D02*
X33300000Y-10300000D01*
X33300000Y-10300000D02*
X33300000Y-6751357D01*
D46*
X31550000Y-5300000D02*
X33350000Y-5300000D01*
X31400000Y-5150000D02*
X31550000Y-5300000D01*
D50*
X33048000Y-6499357D02*
X33048000Y-5602000D01*
X26900000Y-7740000D02*
X26900000Y-8900000D01*
D46*
%TO.N,/RESETB*%
X21950000Y-9510000D02*
X22040000Y-9600000D01*
X21950000Y-8510000D02*
X21950000Y-9510000D01*
X21700000Y-9550000D02*
X21850000Y-9400000D01*
%TO.N,/PWDN*%
X20850000Y-9390000D02*
X20850000Y-8510000D01*
D49*
%TO.N,/SDC1_D3*%
X31616500Y-13600000D02*
X30276500Y-12260000D01*
X32150000Y-13600000D02*
X31616500Y-13600000D01*
%TO.N,/SDC1_CMD*%
X25400000Y-10200000D02*
X24450000Y-11150000D01*
X25600000Y-10200000D02*
X25400000Y-10200000D01*
%TO.N,/SDC1_D2*%
X26500000Y-10650000D02*
X26100000Y-11050000D01*
X26100000Y-11050000D02*
X26100000Y-12600000D01*
%TD*%
%TA.AperFunction,Conductor*%
%TO.N,GNDD*%
G36*
X20800070Y-17468447D02*
G01*
X20830102Y-17490651D01*
X20954594Y-17615143D01*
X20988620Y-17677455D01*
X20991499Y-17704238D01*
X20991499Y-20555984D01*
X20990960Y-20564214D01*
X20986250Y-20600000D01*
X20991499Y-20639879D01*
X20991500Y-20639885D01*
X20998509Y-20693124D01*
X21007161Y-20758849D01*
X21007162Y-20758851D01*
X21068476Y-20906876D01*
X21073960Y-20914023D01*
X21099563Y-20980242D01*
X21100000Y-20990729D01*
X21100000Y-23065500D01*
X21079998Y-23133621D01*
X21026342Y-23180114D01*
X20974000Y-23191500D01*
X17734500Y-23191500D01*
X17666379Y-23171498D01*
X17619886Y-23117842D01*
X17608500Y-23065500D01*
X17608500Y-22412614D01*
X17609040Y-22404382D01*
X17610383Y-22394170D01*
X17613750Y-22368604D01*
X17608500Y-22328726D01*
X17608500Y-22328719D01*
X17592838Y-22209754D01*
X17531524Y-22061729D01*
X17526037Y-22054578D01*
X17500437Y-21988358D01*
X17500000Y-21977875D01*
X17500000Y-17734500D01*
X17520002Y-17666379D01*
X17573658Y-17619886D01*
X17626000Y-17608500D01*
X20245988Y-17608500D01*
X20254219Y-17609040D01*
X20266549Y-17610662D01*
X20290000Y-17613750D01*
X20329880Y-17608500D01*
X20329885Y-17608500D01*
X20407791Y-17598243D01*
X20429457Y-17595391D01*
X20433335Y-17594880D01*
X20448851Y-17592838D01*
X20596876Y-17531524D01*
X20664305Y-17479783D01*
X20730521Y-17454183D01*
X20800070Y-17468447D01*
G37*
%TD.AperFunction*%
%TD*%
%TA.AperFunction,Conductor*%
%TO.N,+5V*%
G36*
X37409191Y-30518907D02*
G01*
X37445155Y-30568407D01*
X37450000Y-30599000D01*
X37450000Y-32051000D01*
X37431093Y-32109191D01*
X37381593Y-32145155D01*
X37351000Y-32150000D01*
X31649000Y-32150000D01*
X31590809Y-32131093D01*
X31554845Y-32081593D01*
X31550000Y-32051000D01*
X31550000Y-30599000D01*
X31568907Y-30540809D01*
X31618407Y-30504845D01*
X31649000Y-30500000D01*
X37351000Y-30500000D01*
X37409191Y-30518907D01*
G37*
%TD.AperFunction*%
%TD*%
%TA.AperFunction,Conductor*%
%TO.N,GNDD*%
G36*
X32963363Y-668907D02*
G01*
X32999327Y-718407D01*
X33004079Y-744739D01*
X33038065Y-1533961D01*
X33174673Y-4706318D01*
X33158287Y-4765268D01*
X33113652Y-4802041D01*
X33072375Y-4819138D01*
X32957381Y-4907377D01*
X32957374Y-4907384D01*
X32916413Y-4960767D01*
X32865989Y-4995423D01*
X32837871Y-4999500D01*
X31999667Y-4999500D01*
X31941476Y-4980593D01*
X31908203Y-4938385D01*
X31880862Y-4872378D01*
X31880861Y-4872375D01*
X31792621Y-4757379D01*
X31677625Y-4669139D01*
X31677621Y-4669137D01*
X31543709Y-4613670D01*
X31543708Y-4613669D01*
X31400000Y-4594750D01*
X31256291Y-4613669D01*
X31256290Y-4613670D01*
X31122378Y-4669137D01*
X31122374Y-4669139D01*
X31007381Y-4757377D01*
X31007377Y-4757381D01*
X30919139Y-4872374D01*
X30919137Y-4872378D01*
X30863670Y-5006290D01*
X30863669Y-5006291D01*
X30844750Y-5149999D01*
X30844750Y-5150000D01*
X30863669Y-5293708D01*
X30863670Y-5293709D01*
X30919139Y-5427625D01*
X31007379Y-5542621D01*
X31122375Y-5630861D01*
X31256291Y-5686330D01*
X31400000Y-5705250D01*
X31543709Y-5686330D01*
X31677625Y-5630861D01*
X31690532Y-5620956D01*
X31748209Y-5600534D01*
X31750799Y-5600500D01*
X32623500Y-5600500D01*
X32681691Y-5619407D01*
X32717655Y-5668907D01*
X32722500Y-5699500D01*
X32722499Y-6482982D01*
X32722311Y-6487297D01*
X32718735Y-6528161D01*
X32718736Y-6528163D01*
X32729354Y-6567793D01*
X32730289Y-6572009D01*
X32737411Y-6612402D01*
X32738164Y-6613705D01*
X32748054Y-6637581D01*
X32748443Y-6639036D01*
X32748446Y-6639041D01*
X32771971Y-6672638D01*
X32774292Y-6676281D01*
X32794806Y-6711812D01*
X32826224Y-6738175D01*
X32829410Y-6741094D01*
X32945504Y-6857187D01*
X32973281Y-6911704D01*
X32974500Y-6927191D01*
X32974500Y-10124165D01*
X32955593Y-10182356D01*
X32945504Y-10194169D01*
X32444170Y-10695504D01*
X32389653Y-10723281D01*
X32374166Y-10724500D01*
X32282440Y-10724500D01*
X32224249Y-10705593D01*
X32223652Y-10705155D01*
X32212885Y-10697209D01*
X32212883Y-10697208D01*
X32212882Y-10697207D01*
X32212879Y-10697206D01*
X32206327Y-10693743D01*
X32206531Y-10693355D01*
X32204544Y-10692352D01*
X32204355Y-10692746D01*
X32197673Y-10689528D01*
X32140822Y-10671992D01*
X32084700Y-10652354D01*
X32077414Y-10650976D01*
X32077495Y-10650544D01*
X32075302Y-10650171D01*
X32075237Y-10650605D01*
X32067903Y-10649500D01*
X32067902Y-10649500D01*
X32008427Y-10649500D01*
X31988614Y-10648758D01*
X31948990Y-10647276D01*
X31948989Y-10647276D01*
X31948988Y-10647276D01*
X31941615Y-10648107D01*
X31941565Y-10647668D01*
X31927656Y-10649500D01*
X31346549Y-10649500D01*
X31325914Y-10647326D01*
X31325679Y-10647276D01*
X31108331Y-10600956D01*
X28823721Y-10114071D01*
X28774352Y-10087249D01*
X27812055Y-9124952D01*
X27784278Y-9070435D01*
X27786072Y-9036220D01*
X27785483Y-9036143D01*
X27805250Y-8886000D01*
X27805250Y-8885999D01*
X27786330Y-8742291D01*
X27730861Y-8608375D01*
X27642621Y-8493379D01*
X27527625Y-8405139D01*
X27527621Y-8405137D01*
X27393709Y-8349670D01*
X27393708Y-8349669D01*
X27311578Y-8338857D01*
X27256353Y-8312516D01*
X27227158Y-8258745D01*
X27225500Y-8240704D01*
X27225500Y-8232946D01*
X27244407Y-8174755D01*
X27264233Y-8154404D01*
X27265043Y-8153782D01*
X27292621Y-8132621D01*
X27380861Y-8017625D01*
X27436330Y-7883709D01*
X27455250Y-7740000D01*
X27436330Y-7596291D01*
X27380861Y-7462375D01*
X27295957Y-7351727D01*
X27275534Y-7294052D01*
X27275500Y-7291460D01*
X27275500Y-7216510D01*
X27271703Y-7192541D01*
X27259719Y-7116874D01*
X27259716Y-7116869D01*
X27259716Y-7116867D01*
X27198529Y-6996782D01*
X27198528Y-6996780D01*
X27103220Y-6901472D01*
X27103217Y-6901470D01*
X27097929Y-6897628D01*
X27061966Y-6848128D01*
X27057596Y-6827227D01*
X27039085Y-6639036D01*
X26838525Y-4600000D01*
X28094355Y-4600000D01*
X28114860Y-4768872D01*
X28175182Y-4927930D01*
X28271817Y-5067929D01*
X28399148Y-5180734D01*
X28549775Y-5259790D01*
X28714944Y-5300500D01*
X28714947Y-5300500D01*
X28885053Y-5300500D01*
X28885056Y-5300500D01*
X29050225Y-5259790D01*
X29200852Y-5180734D01*
X29274746Y-5115268D01*
X29329307Y-5090995D01*
X29379255Y-5085368D01*
X29549522Y-5025789D01*
X29702262Y-4929816D01*
X29829816Y-4802262D01*
X29925789Y-4649522D01*
X29985368Y-4479255D01*
X30005565Y-4300000D01*
X29985368Y-4120745D01*
X29925789Y-3950478D01*
X29829816Y-3797738D01*
X29702262Y-3670184D01*
X29702259Y-3670182D01*
X29702258Y-3670181D01*
X29546829Y-3572518D01*
X29507616Y-3525549D01*
X29500500Y-3488692D01*
X29500500Y-3380253D01*
X29500498Y-3380241D01*
X29497711Y-3366231D01*
X29488867Y-3321769D01*
X29444552Y-3255448D01*
X29444548Y-3255445D01*
X29378233Y-3211134D01*
X29378231Y-3211133D01*
X29378228Y-3211132D01*
X29378227Y-3211132D01*
X29319758Y-3199501D01*
X29319748Y-3199500D01*
X28280252Y-3199500D01*
X28280251Y-3199500D01*
X28280241Y-3199501D01*
X28221772Y-3211132D01*
X28221766Y-3211134D01*
X28155451Y-3255445D01*
X28155445Y-3255451D01*
X28111134Y-3321766D01*
X28111132Y-3321772D01*
X28099501Y-3380241D01*
X28099500Y-3380253D01*
X28099500Y-4419754D01*
X28106806Y-4456484D01*
X28107986Y-4487728D01*
X28094992Y-4594750D01*
X28094355Y-4600000D01*
X26838525Y-4600000D01*
X26700771Y-3199501D01*
X26460691Y-758691D01*
X26473812Y-698929D01*
X26519554Y-658292D01*
X26559216Y-650000D01*
X32905172Y-650000D01*
X32963363Y-668907D01*
G37*
%TD.AperFunction*%
%TD*%
M02*
