M48
; DRILL file {KiCad 6.0.7} date Ср 09 ноя 2022 14:03:00
; FORMAT={-:-/ absolute / metric / decimal}
; #@! TF.CreationDate,2022-11-09T14:03:00+03:00
; #@! TF.GenerationSoftware,Kicad,Pcbnew,6.0.7
; #@! TF.FileFunction,Plated,1,2,PTH
FMAT,2
METRIC
; #@! TA.AperFunction,Plated,PTH,ViaDrill
T1C0.300
; #@! TA.AperFunction,Plated,PTH,ViaDrill
T2C0.400
; #@! TA.AperFunction,Plated,PTH,ComponentDrill
T3C0.500
; #@! TA.AperFunction,Plated,PTH,ViaDrill
T4C0.700
; #@! TA.AperFunction,Plated,PTH,ViaDrill
T5C1.000
; #@! TA.AperFunction,Plated,PTH,ViaDrill
T6C2.000
%
G90
G05
T1
X2.2Y-24.2
X3.4Y-32.6
X3.825Y-25.6
X6.6Y-28.4
X7.0Y-31.2
X7.4Y-33.199
X7.6Y-22.8
X8.0Y-26.0
X8.52Y-21.276
X8.6Y-9.8
X9.075Y-29.342
X9.4Y-18.4
X9.6Y-9.8
X9.6Y-22.4
X9.762Y-31.962
X10.6Y-9.8
X11.2Y-31.8
X11.6Y-9.8
X11.6Y-27.4
X11.75Y-29.0
X11.8Y-13.0
X12.4Y-5.2
X12.542Y-10.088
X12.808Y-20.208
X13.0Y-9.4
X13.034Y-24.143
X13.831Y-14.097
X14.0Y-17.4
X14.0Y-19.0
X14.0Y-20.4
X14.0Y-32.743
X14.05Y-25.0
X14.096Y-22.904
X14.2Y-22.0
X14.6Y-9.2
X14.8Y-25.6
X14.8Y-34.31
X15.073Y-17.2
X15.2Y-16.177
X16.0Y-9.8
X16.2Y-15.2
X16.249Y-26.649
X16.8Y-7.2
X16.8Y-33.8
X16.888Y-26.125
X17.2Y-15.2
X17.8Y-16.223
X17.8Y-31.2
X17.804Y-26.619
X18.2Y-15.2
X18.4Y-36.0
X18.424Y-8.0
X19.2Y-26.0
X19.4Y-32.8
X19.576Y-8.5
X19.576Y-9.8
X19.6Y-16.2
X19.992Y-7.192
X20.0Y-6.2
X20.1Y-25.2
X20.2Y-29.6
X20.75Y-8.6
X20.8Y-14.15
X21.392Y-30.808
X21.7Y-9.55
X22.025Y-29.575
X22.6Y-31.0
X23.0Y-8.6
X23.4Y-26.4
X23.6Y-6.6
X23.8Y-29.8
X23.8Y-33.0
X24.1Y-17.5
X24.2Y-8.6
X24.3Y-10.01
X24.45Y-11.15
X24.49Y-4.4
X24.5Y-16.1
X24.8Y-14.6
X25.2Y-22.2
X25.6Y-10.2
X25.9Y-27.7
X26.1Y-12.6
X26.5Y-10.65
X26.6Y-4.6
X26.9Y-7.74
X27.0Y-29.0
X27.25Y-8.886
X28.0Y-20.476
X28.11Y-18.09
X28.2Y-16.8
X28.351Y-22.16
X28.52Y-26.04
X28.65Y-14.473
X28.65Y-24.04
X28.8Y-20.076
X28.8Y-27.4
X28.8Y-32.4
X29.19Y-30.4
X29.85Y-7.65
X29.85Y-8.75
X29.85Y-9.75
X30.15Y-14.473
X30.276Y-19.396
X30.276Y-12.26
X30.3Y-16.8
X30.4Y-18.4
X30.752Y-23.11
X30.803Y-20.943
X30.95Y-9.75
X31.0Y-7.6
X31.0Y-8.7
X31.4Y-5.15
X31.4Y-24.2
X31.6Y-22.4
X32.1Y-7.65
X32.1Y-8.7
X32.1Y-9.75
X32.15Y-13.6
X32.8Y-18.8
X33.35Y-5.3
X33.35Y-12.45
X33.6Y-28.4
X33.649Y-6.2
X33.8Y-16.8
X34.75Y-4.35
X35.1Y-8.1
X35.7Y-31.35
X35.7Y-33.05
X35.8Y-16.8
X35.9Y-5.1
X36.2Y-13.4
X36.563Y-7.3
T2
X18.6Y-18.0
X18.6Y-19.4
X18.6Y-21.0
X18.6Y-22.6
X20.8Y-18.0
X20.8Y-19.4
X20.8Y-20.8
X20.8Y-22.6
T3
X2.65Y-17.725
X2.65Y-18.975
X2.65Y-20.225
X2.65Y-21.475
X21.825Y-35.35
X23.075Y-35.35
X24.325Y-35.35
X25.575Y-35.35
X26.825Y-35.35
X28.075Y-35.35
X29.325Y-35.35
X30.575Y-35.35
T4
X29.2Y-4.3
T5
X3.4Y-7.55
X5.95Y-7.55
X8.0Y-19.0
T6
X2.5Y-2.5
X2.5Y-35.5
X35.5Y-2.5
X35.5Y-35.5
T0
M30
