%TF.GenerationSoftware,KiCad,Pcbnew,7.0.7*%
%TF.CreationDate,2023-12-03T17:08:09+03:00*%
%TF.ProjectId,camera_v3s,63616d65-7261-45f7-9633-732e6b696361,rev?*%
%TF.SameCoordinates,Original*%
%TF.FileFunction,Copper,L1,Top*%
%TF.FilePolarity,Positive*%
%FSLAX46Y46*%
G04 Gerber Fmt 4.6, Leading zero omitted, Abs format (unit mm)*
G04 Created by KiCad (PCBNEW 7.0.7) date 2023-12-03 17:08:09*
%MOMM*%
%LPD*%
G01*
G04 APERTURE LIST*
G04 Aperture macros list*
%AMRoundRect*
0 Rectangle with rounded corners*
0 $1 Rounding radius*
0 $2 $3 $4 $5 $6 $7 $8 $9 X,Y pos of 4 corners*
0 Add a 4 corners polygon primitive as box body*
4,1,4,$2,$3,$4,$5,$6,$7,$8,$9,$2,$3,0*
0 Add four circle primitives for the rounded corners*
1,1,$1+$1,$2,$3*
1,1,$1+$1,$4,$5*
1,1,$1+$1,$6,$7*
1,1,$1+$1,$8,$9*
0 Add four rect primitives between the rounded corners*
20,1,$1+$1,$2,$3,$4,$5,0*
20,1,$1+$1,$4,$5,$6,$7,0*
20,1,$1+$1,$6,$7,$8,$9,0*
20,1,$1+$1,$8,$9,$2,$3,0*%
G04 Aperture macros list end*
%TA.AperFunction,SMDPad,CuDef*%
%ADD10RoundRect,0.135000X-0.185000X0.135000X-0.185000X-0.135000X0.185000X-0.135000X0.185000X0.135000X0*%
%TD*%
%TA.AperFunction,SMDPad,CuDef*%
%ADD11RoundRect,0.140000X-0.140000X-0.170000X0.140000X-0.170000X0.140000X0.170000X-0.140000X0.170000X0*%
%TD*%
%TA.AperFunction,SMDPad,CuDef*%
%ADD12RoundRect,0.218750X-0.218750X-0.256250X0.218750X-0.256250X0.218750X0.256250X-0.218750X0.256250X0*%
%TD*%
%TA.AperFunction,SMDPad,CuDef*%
%ADD13C,1.000000*%
%TD*%
%TA.AperFunction,SMDPad,CuDef*%
%ADD14RoundRect,0.140000X-0.170000X0.140000X-0.170000X-0.140000X0.170000X-0.140000X0.170000X0.140000X0*%
%TD*%
%TA.AperFunction,ComponentPad*%
%ADD15RoundRect,0.250000X0.400000X-0.250000X0.400000X0.250000X-0.400000X0.250000X-0.400000X-0.250000X0*%
%TD*%
%TA.AperFunction,ComponentPad*%
%ADD16O,1.300000X1.000000*%
%TD*%
%TA.AperFunction,SMDPad,CuDef*%
%ADD17RoundRect,0.140000X0.170000X-0.140000X0.170000X0.140000X-0.170000X0.140000X-0.170000X-0.140000X0*%
%TD*%
%TA.AperFunction,SMDPad,CuDef*%
%ADD18RoundRect,0.062500X0.062500X0.937500X-0.062500X0.937500X-0.062500X-0.937500X0.062500X-0.937500X0*%
%TD*%
%TA.AperFunction,SMDPad,CuDef*%
%ADD19RoundRect,0.625000X0.625000X1.375000X-0.625000X1.375000X-0.625000X-1.375000X0.625000X-1.375000X0*%
%TD*%
%TA.AperFunction,SMDPad,CuDef*%
%ADD20RoundRect,0.135000X0.135000X0.185000X-0.135000X0.185000X-0.135000X-0.185000X0.135000X-0.185000X0*%
%TD*%
%TA.AperFunction,SMDPad,CuDef*%
%ADD21RoundRect,0.225000X-0.250000X0.225000X-0.250000X-0.225000X0.250000X-0.225000X0.250000X0.225000X0*%
%TD*%
%TA.AperFunction,SMDPad,CuDef*%
%ADD22RoundRect,0.225000X-0.225000X-0.250000X0.225000X-0.250000X0.225000X0.250000X-0.225000X0.250000X0*%
%TD*%
%TA.AperFunction,SMDPad,CuDef*%
%ADD23R,1.000000X1.800000*%
%TD*%
%TA.AperFunction,SMDPad,CuDef*%
%ADD24RoundRect,0.135000X-0.135000X-0.185000X0.135000X-0.185000X0.135000X0.185000X-0.135000X0.185000X0*%
%TD*%
%TA.AperFunction,SMDPad,CuDef*%
%ADD25RoundRect,0.050000X-0.050000X0.687500X-0.050000X-0.687500X0.050000X-0.687500X0.050000X0.687500X0*%
%TD*%
%TA.AperFunction,SMDPad,CuDef*%
%ADD26RoundRect,0.050000X-0.687500X0.050000X-0.687500X-0.050000X0.687500X-0.050000X0.687500X0.050000X0*%
%TD*%
%TA.AperFunction,SMDPad,CuDef*%
%ADD27RoundRect,2.000000X-2.000000X2.000000X-2.000000X-2.000000X2.000000X-2.000000X2.000000X2.000000X0*%
%TD*%
%TA.AperFunction,SMDPad,CuDef*%
%ADD28RoundRect,0.140000X0.140000X0.170000X-0.140000X0.170000X-0.140000X-0.170000X0.140000X-0.170000X0*%
%TD*%
%TA.AperFunction,ComponentPad*%
%ADD29O,1.000000X1.300000*%
%TD*%
%TA.AperFunction,ComponentPad*%
%ADD30RoundRect,0.250000X0.250000X0.400000X-0.250000X0.400000X-0.250000X-0.400000X0.250000X-0.400000X0*%
%TD*%
%TA.AperFunction,SMDPad,CuDef*%
%ADD31RoundRect,0.225000X0.250000X-0.225000X0.250000X0.225000X-0.250000X0.225000X-0.250000X-0.225000X0*%
%TD*%
%TA.AperFunction,SMDPad,CuDef*%
%ADD32RoundRect,0.062500X-0.062500X0.375000X-0.062500X-0.375000X0.062500X-0.375000X0.062500X0.375000X0*%
%TD*%
%TA.AperFunction,SMDPad,CuDef*%
%ADD33RoundRect,0.062500X-0.375000X0.062500X-0.375000X-0.062500X0.375000X-0.062500X0.375000X0.062500X0*%
%TD*%
%TA.AperFunction,SMDPad,CuDef*%
%ADD34R,3.450000X3.450000*%
%TD*%
%TA.AperFunction,SMDPad,CuDef*%
%ADD35R,1.400000X1.200000*%
%TD*%
%TA.AperFunction,SMDPad,CuDef*%
%ADD36R,1.380000X0.450000*%
%TD*%
%TA.AperFunction,SMDPad,CuDef*%
%ADD37R,1.550000X1.425000*%
%TD*%
%TA.AperFunction,SMDPad,CuDef*%
%ADD38R,1.300000X1.650000*%
%TD*%
%TA.AperFunction,SMDPad,CuDef*%
%ADD39R,1.900000X1.800000*%
%TD*%
%TA.AperFunction,SMDPad,CuDef*%
%ADD40R,1.900000X1.000000*%
%TD*%
%TA.AperFunction,ViaPad*%
%ADD41C,0.700000*%
%TD*%
%TA.AperFunction,ViaPad*%
%ADD42C,1.500000*%
%TD*%
%TA.AperFunction,ViaPad*%
%ADD43C,0.800000*%
%TD*%
%TA.AperFunction,ViaPad*%
%ADD44C,3.000000*%
%TD*%
%TA.AperFunction,ViaPad*%
%ADD45C,2.000000*%
%TD*%
%TA.AperFunction,ViaPad*%
%ADD46C,1.200000*%
%TD*%
%TA.AperFunction,Conductor*%
%ADD47C,0.200000*%
%TD*%
%TA.AperFunction,Conductor*%
%ADD48C,0.500000*%
%TD*%
%TA.AperFunction,Conductor*%
%ADD49C,0.127000*%
%TD*%
%TA.AperFunction,Conductor*%
%ADD50C,1.000000*%
%TD*%
%TA.AperFunction,Conductor*%
%ADD51C,0.250000*%
%TD*%
G04 APERTURE END LIST*
D10*
%TO.P,R40,1*%
%TO.N,Net-(DD1-EPHY-RTX)*%
X23200000Y-30690000D03*
%TO.P,R40,2*%
%TO.N,GNDD*%
X23200000Y-31710000D03*
%TD*%
D11*
%TO.P,C59,1*%
%TO.N,/3V3_2*%
X35420000Y-7250000D03*
%TO.P,C59,2*%
%TO.N,GNDD*%
X36380000Y-7250000D03*
%TD*%
%TO.P,C63,1*%
%TO.N,Net-(U1-XTAL_IN)*%
X35420000Y-8500000D03*
%TO.P,C63,2*%
%TO.N,GNDD*%
X36380000Y-8500000D03*
%TD*%
D12*
%TO.P,D1,1,K*%
%TO.N,GNDD*%
X1673750Y-14700000D03*
%TO.P,D1,2,A*%
%TO.N,Net-(D1-A)*%
X3248750Y-14700000D03*
%TD*%
D13*
%TO.P,TP5,1,1*%
%TO.N,Net-(C64-Pad1)*%
X5950000Y-7550000D03*
%TD*%
%TO.P,TP2,1,1*%
%TO.N,Net-(C65-Pad1)*%
X3400000Y-7550000D03*
%TD*%
D11*
%TO.P,C62,1*%
%TO.N,/ANT*%
X31170000Y-4100000D03*
%TO.P,C62,2*%
%TO.N,/LNA*%
X32130000Y-4100000D03*
%TD*%
D12*
%TO.P,D3,1,K*%
%TO.N,GNDD*%
X1666368Y-11500000D03*
%TO.P,D3,2,A*%
%TO.N,Net-(D3-A)*%
X3241368Y-11500000D03*
%TD*%
D11*
%TO.P,C60,1*%
%TO.N,Net-(U1-XTAL_OUT)*%
X35520000Y-9700000D03*
%TO.P,C60,2*%
%TO.N,GNDD*%
X36480000Y-9700000D03*
%TD*%
D14*
%TO.P,C13,1*%
%TO.N,Net-(DD1-RTC-VIO)*%
X27000000Y-27920000D03*
%TO.P,C13,2*%
%TO.N,GNDD*%
X27000000Y-28880000D03*
%TD*%
D15*
%TO.P,J4,1,Pin_1*%
%TO.N,+5V*%
X2650000Y-21475000D03*
D16*
%TO.P,J4,2,Pin_2*%
%TO.N,/UART0_RX*%
X2650000Y-20225000D03*
%TO.P,J4,3,Pin_3*%
%TO.N,/UART0_TX*%
X2650000Y-18975000D03*
%TO.P,J4,4,Pin_4*%
%TO.N,GNDD*%
X2650000Y-17725000D03*
%TD*%
D11*
%TO.P,C45,1*%
%TO.N,VAA*%
X29520000Y-19600000D03*
%TO.P,C45,2*%
%TO.N,GNDD*%
X30480000Y-19600000D03*
%TD*%
D17*
%TO.P,C27,1*%
%TO.N,+1V8*%
X7600000Y-24280000D03*
%TO.P,C27,2*%
%TO.N,GNDD*%
X7600000Y-23320000D03*
%TD*%
D10*
%TO.P,R15,1*%
%TO.N,Net-(DD1-EPHY-RTX)*%
X24100000Y-30690000D03*
%TO.P,R15,2*%
%TO.N,GNDD*%
X24100000Y-31710000D03*
%TD*%
D18*
%TO.P,X1,1,Pin_1*%
%TO.N,/STROB*%
X24700000Y-2200000D03*
%TO.P,X1,2,Pin_2*%
%TO.N,GNDD*%
X24200000Y-2200000D03*
%TO.P,X1,3,Pin_3*%
%TO.N,/I2C1_SDA*%
X23700000Y-2200000D03*
%TO.P,X1,4,Pin_4*%
%TO.N,+3V0*%
X23200000Y-2200000D03*
%TO.P,X1,5,Pin_5*%
%TO.N,/I2C1_SCK*%
X22700000Y-2200000D03*
%TO.P,X1,6,Pin_6*%
%TO.N,/RESETB*%
X22200000Y-2200000D03*
%TO.P,X1,7,Pin_7*%
%TO.N,/CSI_VS*%
X21700000Y-2200000D03*
%TO.P,X1,8,Pin_8*%
%TO.N,/PWDN*%
X21200000Y-2200000D03*
%TO.P,X1,9,Pin_9*%
%TO.N,/CSI_HS*%
X20700000Y-2200000D03*
%TO.P,X1,10,Pin_10*%
%TO.N,+1V35*%
X20200000Y-2200000D03*
%TO.P,X1,11,Pin_11*%
%TO.N,+3V0*%
X19700000Y-2200000D03*
%TO.P,X1,12,Pin_12*%
%TO.N,/CSI_D11*%
X19200000Y-2200000D03*
%TO.P,X1,13,Pin_13*%
%TO.N,/CSI_MCLK*%
X18700000Y-2200000D03*
%TO.P,X1,14,Pin_14*%
%TO.N,/CSI_D10*%
X18200000Y-2200000D03*
%TO.P,X1,15,Pin_15*%
%TO.N,GNDD*%
X17700000Y-2200000D03*
%TO.P,X1,16,Pin_16*%
%TO.N,/CSI_D9*%
X17200000Y-2200000D03*
%TO.P,X1,17,Pin_17*%
%TO.N,/CLK_PCLK*%
X16700000Y-2200000D03*
%TO.P,X1,18,Pin_18*%
%TO.N,/CSI_D8*%
X16200000Y-2200000D03*
%TO.P,X1,19,Pin_19*%
%TO.N,/CSI_D4*%
X15700000Y-2200000D03*
%TO.P,X1,20,Pin_20*%
%TO.N,/CSI_D7*%
X15200000Y-2200000D03*
%TO.P,X1,21,Pin_21*%
%TO.N,/CSI_D5*%
X14700000Y-2200000D03*
%TO.P,X1,22,Pin_22*%
%TO.N,/CSI_D6*%
X14200000Y-2200000D03*
%TO.P,X1,23,Pin_23*%
%TO.N,/DATA_1*%
X13700000Y-2200000D03*
%TO.P,X1,24,Pin_24*%
%TO.N,/DATA_0*%
X13200000Y-2200000D03*
D19*
%TO.P,X1,25,Pin_25*%
%TO.N,GNDD*%
X11200000Y-4600000D03*
X26700000Y-4700000D03*
%TD*%
D13*
%TO.P,TP15,1,1*%
%TO.N,GNDD*%
X35650000Y-33050000D03*
%TD*%
D20*
%TO.P,R33,1*%
%TO.N,/PB4*%
X5460000Y-14950000D03*
%TO.P,R33,2*%
%TO.N,Net-(D1-A)*%
X4440000Y-14950000D03*
%TD*%
D11*
%TO.P,C42,1*%
%TO.N,/X32KIN*%
X27720000Y-32700000D03*
%TO.P,C42,2*%
%TO.N,GNDD*%
X28680000Y-32700000D03*
%TD*%
D21*
%TO.P,C18,1*%
%TO.N,+1V8*%
X9400000Y-25425000D03*
%TO.P,C18,2*%
%TO.N,GNDD*%
X9400000Y-26975000D03*
%TD*%
D11*
%TO.P,C48,1*%
%TO.N,Net-(DD1-VCC-RTC)*%
X27920000Y-27800000D03*
%TO.P,C48,2*%
%TO.N,GNDD*%
X28880000Y-27800000D03*
%TD*%
D20*
%TO.P,R11,1*%
%TO.N,+3V3*%
X28910000Y-28800000D03*
%TO.P,R11,2*%
%TO.N,Net-(DD1-VCC-RTC)*%
X27890000Y-28800000D03*
%TD*%
D22*
%TO.P,C9,1*%
%TO.N,+5V*%
X9625000Y-32000000D03*
%TO.P,C9,2*%
%TO.N,GNDD*%
X11175000Y-32000000D03*
%TD*%
D23*
%TO.P,Y2,1,1*%
%TO.N,/X32KOUT*%
X25350000Y-31000000D03*
%TO.P,Y2,2,2*%
%TO.N,/X32KIN*%
X27850000Y-31000000D03*
%TD*%
D20*
%TO.P,R38,1*%
%TO.N,/PB3*%
X5460000Y-13350000D03*
%TO.P,R38,2*%
%TO.N,Net-(D2-A)*%
X4440000Y-13350000D03*
%TD*%
D17*
%TO.P,C58,1*%
%TO.N,/3V3_2*%
X33300000Y-4880000D03*
%TO.P,C58,2*%
%TO.N,GNDD*%
X33300000Y-3920000D03*
%TD*%
%TO.P,C51,1*%
%TO.N,+1V2*%
X9400000Y-19480000D03*
%TO.P,C51,2*%
%TO.N,GNDD*%
X9400000Y-18520000D03*
%TD*%
%TO.P,C30,1*%
%TO.N,/VRA2*%
X28600000Y-18080000D03*
%TO.P,C30,2*%
%TO.N,GNDD*%
X28600000Y-17120000D03*
%TD*%
D14*
%TO.P,C39,1*%
%TO.N,/X24MIN*%
X21600000Y-31920000D03*
%TO.P,C39,2*%
%TO.N,GNDD*%
X21600000Y-32880000D03*
%TD*%
D11*
%TO.P,C43,1*%
%TO.N,/X24MOUT*%
X18320000Y-34200000D03*
%TO.P,C43,2*%
%TO.N,GNDD*%
X19280000Y-34200000D03*
%TD*%
D24*
%TO.P,R18,1*%
%TO.N,+1V8*%
X14890000Y-32200000D03*
%TO.P,R18,2*%
%TO.N,/SVREF*%
X15910000Y-32200000D03*
%TD*%
D14*
%TO.P,C23,1*%
%TO.N,+1V8*%
X13000000Y-31320000D03*
%TO.P,C23,2*%
%TO.N,GNDD*%
X13000000Y-32280000D03*
%TD*%
D13*
%TO.P,TP7,1,1*%
%TO.N,/TXD*%
X34950000Y-11200000D03*
%TD*%
%TO.P,TP6,1,1*%
%TO.N,/RXD*%
X34600000Y-12500000D03*
%TD*%
D25*
%TO.P,DD1,1,PG4/SDC1_D2/PG_EINT4*%
%TO.N,/SDC1_D2*%
X25200000Y-12837500D03*
%TO.P,DD1,2,PG3/SDC1_D1/PG_EINT3*%
%TO.N,/SDC1_D1*%
X24800000Y-12837500D03*
%TO.P,DD1,3,PG2/SDC1_D0/PG_EINT2*%
%TO.N,/SDC1_D0*%
X24400000Y-12837500D03*
%TO.P,DD1,4,PG1/SDC1_CMD/PG_EINT1*%
%TO.N,/SDC1_CMD*%
X24000000Y-12837500D03*
%TO.P,DD1,5,PG0/SDC1_CLK/PG_EINT0*%
%TO.N,/SDC1_CLK*%
X23600000Y-12837500D03*
%TO.P,DD1,6,PE24/LCD_D23*%
%TO.N,/PE24*%
X23200000Y-12837500D03*
%TO.P,DD1,7,PE23/LCD_D22*%
%TO.N,/CHIP_EN*%
X22800000Y-12837500D03*
%TO.P,DD1,8,PE22/CSI_SDA/TWI1_SDA/UART1_RX*%
%TO.N,/I2C1_SDA*%
X22400000Y-12837500D03*
%TO.P,DD1,9,PE21/CSI_SCK/TWI1_SCK/UART1_TX*%
%TO.N,/I2C1_SCK*%
X22000000Y-12837500D03*
%TO.P,DD1,10,PE20/CSI_FIELD/CSI_MIPI_MCLK*%
%TO.N,unconnected-(DD1-PE20{slash}CSI_FIELD{slash}CSI_MIPI_MCLK-Pad10)*%
X21600000Y-12837500D03*
%TO.P,DD1,11,PE19/CSI_D15/LCD_D21*%
%TO.N,unconnected-(DD1-PE19{slash}CSI_D15{slash}LCD_D21-Pad11)*%
X21200000Y-12837500D03*
%TO.P,DD1,12,VCC-PE0*%
%TO.N,+3V3*%
X20800000Y-12837500D03*
%TO.P,DD1,13,PE18/CSI_D14/LCD_D20*%
%TO.N,unconnected-(DD1-PE18{slash}CSI_D14{slash}LCD_D20-Pad13)*%
X20400000Y-12837500D03*
%TO.P,DD1,14,PE17/CSI_D13/LCD_D19*%
%TO.N,unconnected-(DD1-PE17{slash}CSI_D13{slash}LCD_D19-Pad14)*%
X20000000Y-12837500D03*
%TO.P,DD1,15,PE16/CSI_D12/LCD_D18*%
%TO.N,unconnected-(DD1-PE16{slash}CSI_D12{slash}LCD_D18-Pad15)*%
X19600000Y-12837500D03*
%TO.P,DD1,16,PE15/CSI_D11/LCD_D15*%
%TO.N,/CSI_D11*%
X19200000Y-12837500D03*
%TO.P,DD1,17,PE14/CSI_D10/LCD_D14*%
%TO.N,/CSI_D10*%
X18800000Y-12837500D03*
%TO.P,DD1,18,PE13/CSI_D9/LCD_D13*%
%TO.N,/CSI_D9*%
X18400000Y-12837500D03*
%TO.P,DD1,19,VDD-SYS3*%
%TO.N,+1V2*%
X18000000Y-12837500D03*
%TO.P,DD1,20,VDD-CPU3*%
X17600000Y-12837500D03*
%TO.P,DD1,21,VDD-CPU2*%
X17200000Y-12837500D03*
%TO.P,DD1,22,PE12/CSI_D8/LCD_D12*%
%TO.N,/CSI_D8*%
X16800000Y-12837500D03*
%TO.P,DD1,23,PE11/CSI_D7/LCD_D11*%
%TO.N,/CSI_D7*%
X16400000Y-12837500D03*
%TO.P,DD1,24,PE10/CSI_D6/LCD_D10*%
%TO.N,/CSI_D6*%
X16000000Y-12837500D03*
%TO.P,DD1,25,VDD-CPU1*%
%TO.N,+1V2*%
X15600000Y-12837500D03*
%TO.P,DD1,26,VDD-CPU0*%
X15200000Y-12837500D03*
%TO.P,DD1,27,PE9/CSI_D5/LCD_D7*%
%TO.N,/CSI_D5*%
X14800000Y-12837500D03*
%TO.P,DD1,28,PE8/CSI_D4/LCD_D6*%
%TO.N,/CSI_D4*%
X14400000Y-12837500D03*
%TO.P,DD1,29,VCC-PE1*%
%TO.N,+3V3*%
X14000000Y-12837500D03*
%TO.P,DD1,30,PE7/CSI_D3/LCD_D5*%
%TO.N,/CSI_D3*%
X13600000Y-12837500D03*
%TO.P,DD1,31,PE6/CSI_D2/LCD_D4*%
%TO.N,/CSI_D2*%
X13200000Y-12837500D03*
%TO.P,DD1,32,PE5/CSI_D1/LCD_D3*%
%TO.N,/CSI_D1*%
X12800000Y-12837500D03*
D26*
%TO.P,DD1,33,PE4/CSI_D0/LCD_D2*%
%TO.N,/CSI_D0*%
X11337500Y-14300000D03*
%TO.P,DD1,34,PE3/CSI_VSYNC/LCD_VSYNC*%
%TO.N,/CSI_VS*%
X11337500Y-14700000D03*
%TO.P,DD1,35,PE2/CSI_HSYNC/LCD_HSYNC*%
%TO.N,/CSI_HS*%
X11337500Y-15100000D03*
%TO.P,DD1,36,PE1/CSI_MCLK/LCD_DE*%
%TO.N,/CSI_MCLK*%
X11337500Y-15500000D03*
%TO.P,DD1,37,PE0/CSI_PCLK/LCD_CLK*%
%TO.N,/CLK_PCLK*%
X11337500Y-15900000D03*
%TO.P,DD1,38,VDD-CPU4*%
%TO.N,+1V2*%
X11337500Y-16300000D03*
%TO.P,DD1,39,PB0/UART2_TX/PB_EINT0*%
%TO.N,/UART2_TX*%
X11337500Y-16700000D03*
%TO.P,DD1,40,PB1/UART2_RX/PB_EINT1*%
%TO.N,/UART2_RX*%
X11337500Y-17100000D03*
%TO.P,DD1,41,PB2/UART2_RTS/PB_EINT2*%
%TO.N,/PB2*%
X11337500Y-17500000D03*
%TO.P,DD1,42,PB3/UART2_CTS/PB_EINT3*%
%TO.N,/PB3*%
X11337500Y-17900000D03*
%TO.P,DD1,43,PB4/PWM0/PB_EINT4*%
%TO.N,/PB4*%
X11337500Y-18300000D03*
%TO.P,DD1,44,PB5/PWM1/PB_EINT5*%
%TO.N,/PB5*%
X11337500Y-18700000D03*
%TO.P,DD1,45,PB6/TWI0_SCK/PB_EINT6*%
%TO.N,/I2C0_SCK*%
X11337500Y-19100000D03*
%TO.P,DD1,46,PB7/TWI0_SDA/PB_EINT7*%
%TO.N,/I2C0_SDA*%
X11337500Y-19500000D03*
%TO.P,DD1,47,VDD-CPU5*%
%TO.N,+1V2*%
X11337500Y-19900000D03*
%TO.P,DD1,48,PB8/TWI1_SCK/UART0_TX/PB_EINT8*%
%TO.N,/UART0_TX*%
X11337500Y-20300000D03*
%TO.P,DD1,49,PB9/TWI1_SDA/UART0_RX/PB_EINT9*%
%TO.N,/UART0_RX*%
X11337500Y-20700000D03*
%TO.P,DD1,50,VCC-IO3*%
%TO.N,+3V3*%
X11337500Y-21100000D03*
%TO.P,DD1,51,VDD-CPU6*%
%TO.N,+1V2*%
X11337500Y-21500000D03*
%TO.P,DD1,52,PC0/SDC2_SCK/SPI_MISO*%
%TO.N,/SPI_MISO*%
X11337500Y-21900000D03*
%TO.P,DD1,53,PC1/SDC2_CMD/SPI_SCK*%
%TO.N,/SPI_SCK*%
X11337500Y-22300000D03*
%TO.P,DD1,54,PC2/SDC2_RST/SPI_CS*%
%TO.N,/SPI_CS*%
X11337500Y-22700000D03*
%TO.P,DD1,55,PC3/SDC2_D0/SPI_MOSI*%
%TO.N,/SPI_MOSI*%
X11337500Y-23100000D03*
%TO.P,DD1,56,VDD-CPU7*%
%TO.N,+1V2*%
X11337500Y-23500000D03*
%TO.P,DD1,57,VCC-IO2*%
%TO.N,+3V3*%
X11337500Y-23900000D03*
%TO.P,DD1,58,VDD-SYS4*%
%TO.N,+1V2*%
X11337500Y-24300000D03*
%TO.P,DD1,59,VCC-DRAM8*%
%TO.N,+1V8*%
X11337500Y-24700000D03*
%TO.P,DD1,60,VCC-DRAM9*%
X11337500Y-25100000D03*
%TO.P,DD1,61,VCC-DRAM10*%
X11337500Y-25500000D03*
%TO.P,DD1,62,VCC-DRAM11*%
X11337500Y-25900000D03*
%TO.P,DD1,63,SVREF1*%
%TO.N,/SVREF*%
X11337500Y-26300000D03*
%TO.P,DD1,64,VDD-SYS5*%
%TO.N,+1V2*%
X11337500Y-26700000D03*
D25*
%TO.P,DD1,65,VCC-DRAM0*%
%TO.N,+1V8*%
X12800000Y-28162500D03*
%TO.P,DD1,66,VCC-DRAM1*%
X13200000Y-28162500D03*
%TO.P,DD1,67,VCC-DRAM2*%
X13600000Y-28162500D03*
%TO.P,DD1,68,VCC-DRAM3*%
X14000000Y-28162500D03*
%TO.P,DD1,69,VCC-DRAM4*%
X14400000Y-28162500D03*
%TO.P,DD1,70,VCC-DRAM5*%
X14800000Y-28162500D03*
%TO.P,DD1,71,SVREF0*%
%TO.N,/SVREF*%
X15200000Y-28162500D03*
%TO.P,DD1,72,VCC-DRAM6*%
%TO.N,+1V8*%
X15600000Y-28162500D03*
%TO.P,DD1,73,SZQ*%
%TO.N,Net-(DD1-SZQ)*%
X16000000Y-28162500D03*
%TO.P,DD1,74,X24MOUT*%
%TO.N,/X24MOUT*%
X16400000Y-28162500D03*
%TO.P,DD1,75,X24MIN*%
%TO.N,/X24MIN*%
X16800000Y-28162500D03*
%TO.P,DD1,76,VCC-PLL*%
%TO.N,VAA*%
X17200000Y-28162500D03*
%TO.P,DD1,77,EPHY-LINK-LED*%
%TO.N,/EPHY-LINK-LED*%
X17600000Y-28162500D03*
%TO.P,DD1,78,EPHY-SPD-LED*%
%TO.N,/EPHY-SPD-LED*%
X18000000Y-28162500D03*
%TO.P,DD1,79,VCC-DRAM7*%
%TO.N,+1V8*%
X18400000Y-28162500D03*
%TO.P,DD1,80,VDD-SYS0*%
%TO.N,+1V2*%
X18800000Y-28162500D03*
%TO.P,DD1,81,MCSI-D0P*%
%TO.N,unconnected-(DD1-MCSI-D0P-Pad81)*%
X19200000Y-28162500D03*
%TO.P,DD1,82,MCSI-D0N*%
%TO.N,unconnected-(DD1-MCSI-D0N-Pad82)*%
X19600000Y-28162500D03*
%TO.P,DD1,83,MCSI-D1P*%
%TO.N,unconnected-(DD1-MCSI-D1P-Pad83)*%
X20000000Y-28162500D03*
%TO.P,DD1,84,MCSI-D1N*%
%TO.N,unconnected-(DD1-MCSI-D1N-Pad84)*%
X20400000Y-28162500D03*
%TO.P,DD1,85,VCC-MCSI*%
%TO.N,+3V3*%
X20800000Y-28162500D03*
%TO.P,DD1,86,MCSI-CKP*%
%TO.N,unconnected-(DD1-MCSI-CKP-Pad86)*%
X21200000Y-28162500D03*
%TO.P,DD1,87,MCSI-CKN*%
%TO.N,unconnected-(DD1-MCSI-CKN-Pad87)*%
X21600000Y-28162500D03*
%TO.P,DD1,88,EPHY-VDD*%
%TO.N,+1V2*%
X22000000Y-28162500D03*
%TO.P,DD1,89,EPNY-RXN*%
%TO.N,/EPHY-RXN*%
X22400000Y-28162500D03*
%TO.P,DD1,90,EPHY-RXP*%
%TO.N,/EPHY-RXP*%
X22800000Y-28162500D03*
%TO.P,DD1,91,EPHY-TXN*%
%TO.N,/EPHY-TXN*%
X23200000Y-28162500D03*
%TO.P,DD1,92,EPHY-TXP*%
%TO.N,/EPHY-TXP*%
X23600000Y-28162500D03*
%TO.P,DD1,93,EPHY-VCC*%
%TO.N,+3V3*%
X24000000Y-28162500D03*
%TO.P,DD1,94,EPHY-RTX*%
%TO.N,Net-(DD1-EPHY-RTX)*%
X24400000Y-28162500D03*
%TO.P,DD1,95,X32KOUT*%
%TO.N,/X32KOUT*%
X24800000Y-28162500D03*
%TO.P,DD1,96,X32KIN*%
%TO.N,/X32KIN*%
X25200000Y-28162500D03*
D26*
%TO.P,DD1,97,RTC-VIO*%
%TO.N,Net-(DD1-RTC-VIO)*%
X26662500Y-26700000D03*
%TO.P,DD1,98,VCC-RTC*%
%TO.N,Net-(DD1-VCC-RTC)*%
X26662500Y-26300000D03*
%TO.P,DD1,99,RESET*%
%TO.N,/RESET*%
X26662500Y-25900000D03*
%TO.P,DD1,100,PF6*%
%TO.N,/USB-ID*%
X26662500Y-25500000D03*
%TO.P,DD1,101,PF5/SDC0_D2/JTAG_CK1*%
%TO.N,/SDC0_D2*%
X26662500Y-25100000D03*
%TO.P,DD1,102,PF4/SDC0_D3/UART0_RX*%
%TO.N,/SDC0_D3*%
X26662500Y-24700000D03*
%TO.P,DD1,103,PF3/SDC0_CMD/JTAG_DO1*%
%TO.N,/SDC0_CMD*%
X26662500Y-24300000D03*
%TO.P,DD1,104,VCC-IO0*%
%TO.N,+3V3*%
X26662500Y-23900000D03*
%TO.P,DD1,105,PF2/SDC0_CLK/UART0_TX*%
%TO.N,/SDC0_CLK*%
X26662500Y-23500000D03*
%TO.P,DD1,106,PF1/SDC0_D0/JTAG_DI1*%
%TO.N,/SDC0_D0*%
X26662500Y-23100000D03*
%TO.P,DD1,107,PF0/SDC0_D1/JTAG_MS1*%
%TO.N,/SDC0_D1*%
X26662500Y-22700000D03*
%TO.P,DD1,108,VDD-SYS1*%
%TO.N,+1V2*%
X26662500Y-22300000D03*
%TO.P,DD1,109,VCC-USB*%
%TO.N,+3V3*%
X26662500Y-21900000D03*
%TO.P,DD1,110,USB-DM*%
%TO.N,/USB-D-*%
X26662500Y-21500000D03*
%TO.P,DD1,111,USB-DP*%
%TO.N,/USB-D+*%
X26662500Y-21100000D03*
%TO.P,DD1,112,LRADC0*%
%TO.N,/LRADC*%
X26662500Y-20700000D03*
%TO.P,DD1,113,MICIN1P*%
%TO.N,Net-(DD1-MICIN1P)*%
X26662500Y-20300000D03*
%TO.P,DD1,114,MICIN1N*%
%TO.N,Net-(DD1-MICIN1N)*%
X26662500Y-19900000D03*
%TO.P,DD1,115,AVCC*%
%TO.N,VAA*%
X26662500Y-19500000D03*
%TO.P,DD1,116,AGND*%
%TO.N,GNDD*%
X26662500Y-19100000D03*
%TO.P,DD1,117,VRA1*%
%TO.N,/VRA1*%
X26662500Y-18700000D03*
%TO.P,DD1,118,VRA2*%
%TO.N,/VRA2*%
X26662500Y-18300000D03*
%TO.P,DD1,119,HBIAS*%
%TO.N,unconnected-(DD1-HBIAS-Pad119)*%
X26662500Y-17900000D03*
%TO.P,DD1,120,HPOUTR*%
%TO.N,unconnected-(DD1-HPOUTR-Pad120)*%
X26662500Y-17500000D03*
%TO.P,DD1,121,HPOUTL*%
%TO.N,unconnected-(DD1-HPOUTL-Pad121)*%
X26662500Y-17100000D03*
%TO.P,DD1,122,HPVCCIN*%
%TO.N,/HPVCCIN*%
X26662500Y-16700000D03*
%TO.P,DD1,123,HPVCCBP*%
%TO.N,/HPVCCBP*%
X26662500Y-16300000D03*
%TO.P,DD1,124,HPCOMFB*%
%TO.N,unconnected-(DD1-HPCOMFB-Pad124)*%
X26662500Y-15900000D03*
%TO.P,DD1,125,HPCOM*%
%TO.N,unconnected-(DD1-HPCOM-Pad125)*%
X26662500Y-15500000D03*
%TO.P,DD1,126,VDD-SYS2*%
%TO.N,+1V2*%
X26662500Y-15100000D03*
%TO.P,DD1,127,VCC-IO1*%
%TO.N,+3V3*%
X26662500Y-14700000D03*
%TO.P,DD1,128,PG5/SDC1_D3/PG_EINT5*%
%TO.N,/SDC1_D3*%
X26662500Y-14300000D03*
D27*
%TO.P,DD1,PAD,EGND*%
%TO.N,GNDD*%
X19000000Y-20500000D03*
%TD*%
D28*
%TO.P,C40,1*%
%TO.N,/X32KOUT*%
X24680000Y-32800000D03*
%TO.P,C40,2*%
%TO.N,GNDD*%
X23720000Y-32800000D03*
%TD*%
D14*
%TO.P,C49,1*%
%TO.N,+1V2*%
X10800000Y-27720000D03*
%TO.P,C49,2*%
%TO.N,GNDD*%
X10800000Y-28680000D03*
%TD*%
D12*
%TO.P,D2,1,K*%
%TO.N,GNDD*%
X1673750Y-13100000D03*
%TO.P,D2,2,A*%
%TO.N,Net-(D2-A)*%
X3248750Y-13100000D03*
%TD*%
D29*
%TO.P,J3,8,Pin_8*%
%TO.N,GNDD*%
X21825000Y-35350000D03*
%TO.P,J3,7,Pin_7*%
%TO.N,+3V3*%
X23075000Y-35350000D03*
%TO.P,J3,6,Pin_6*%
%TO.N,/SDC0_D2*%
X24325000Y-35350000D03*
%TO.P,J3,5,Pin_5*%
%TO.N,/SDC0_D3*%
X25575000Y-35350000D03*
%TO.P,J3,4,Pin_4*%
%TO.N,/SDC0_CMD*%
X26825000Y-35350000D03*
%TO.P,J3,3,Pin_3*%
%TO.N,/SDC0_CLK*%
X28075000Y-35350000D03*
%TO.P,J3,2,Pin_2*%
%TO.N,/SDC0_D0*%
X29325000Y-35350000D03*
D30*
%TO.P,J3,1,Pin_1*%
%TO.N,/SDC0_D1*%
X30575000Y-35350000D03*
%TD*%
D10*
%TO.P,R19,1*%
%TO.N,/SVREF*%
X14800000Y-33290000D03*
%TO.P,R19,2*%
%TO.N,GNDD*%
X14800000Y-34310000D03*
%TD*%
D14*
%TO.P,C21,1*%
%TO.N,/SVREF*%
X15800000Y-33320000D03*
%TO.P,C21,2*%
%TO.N,GNDD*%
X15800000Y-34280000D03*
%TD*%
D20*
%TO.P,R35,1*%
%TO.N,GNDD*%
X35520000Y-6350000D03*
%TO.P,R35,2*%
%TO.N,Net-(U1-RES12K)*%
X34500000Y-6350000D03*
%TD*%
D31*
%TO.P,C19,1*%
%TO.N,+3V3*%
X9400000Y-23975000D03*
%TO.P,C19,2*%
%TO.N,GNDD*%
X9400000Y-22425000D03*
%TD*%
D20*
%TO.P,R39,1*%
%TO.N,/PB2*%
X5460000Y-11800000D03*
%TO.P,R39,2*%
%TO.N,Net-(D3-A)*%
X4440000Y-11800000D03*
%TD*%
D24*
%TO.P,R26,1*%
%TO.N,/X32KOUT*%
X25690000Y-32800000D03*
%TO.P,R26,2*%
%TO.N,/X32KIN*%
X26710000Y-32800000D03*
%TD*%
D32*
%TO.P,U1,1,VDDA*%
%TO.N,/3V3_2*%
X32650000Y-6312500D03*
%TO.P,U1,2,LNA*%
%TO.N,/LNA*%
X32150000Y-6312500D03*
%TO.P,U1,3,VDD3P3*%
%TO.N,/3V3_2*%
X31650000Y-6312500D03*
%TO.P,U1,4,VDD3P3*%
X31150000Y-6312500D03*
%TO.P,U1,5,VDD_RTC*%
%TO.N,unconnected-(U1-VDD_RTC-Pad5)*%
X30650000Y-6312500D03*
%TO.P,U1,6,TOUT*%
%TO.N,unconnected-(U1-TOUT-Pad6)*%
X30150000Y-6312500D03*
%TO.P,U1,7,CHIP_PU*%
%TO.N,/CHIP_EN*%
X29650000Y-6312500D03*
%TO.P,U1,8,XPD_DCDC*%
%TO.N,unconnected-(U1-XPD_DCDC-Pad8)*%
X29150000Y-6312500D03*
D33*
%TO.P,U1,9,MTMS*%
%TO.N,unconnected-(U1-MTMS-Pad9)*%
X28462500Y-7000000D03*
%TO.P,U1,10,MTDI*%
%TO.N,unconnected-(U1-MTDI-Pad10)*%
X28462500Y-7500000D03*
%TO.P,U1,11,VDDPST*%
%TO.N,/3V3_2*%
X28462500Y-8000000D03*
%TO.P,U1,12,MTCK*%
%TO.N,unconnected-(U1-MTCK-Pad12)*%
X28462500Y-8500000D03*
%TO.P,U1,13,MTDO*%
%TO.N,unconnected-(U1-MTDO-Pad13)*%
X28462500Y-9000000D03*
%TO.P,U1,14,GPIO2*%
%TO.N,/GPIO2*%
X28462500Y-9500000D03*
%TO.P,U1,15,GPIO0*%
%TO.N,/GPIO0*%
X28462500Y-10000000D03*
%TO.P,U1,16,GPIO4*%
%TO.N,unconnected-(U1-GPIO4-Pad16)*%
X28462500Y-10500000D03*
D32*
%TO.P,U1,17,VDDPST*%
%TO.N,/3V3_2*%
X29150000Y-11187500D03*
%TO.P,U1,18,SDIO_DATA_2*%
%TO.N,/SDC1_D2*%
X29650000Y-11187500D03*
%TO.P,U1,19,SDIO_DATA_3*%
%TO.N,/SDC1_D3*%
X30150000Y-11187500D03*
%TO.P,U1,20,SDIO_CMD*%
%TO.N,/SDC1_CMD*%
X30650000Y-11187500D03*
%TO.P,U1,21,SDIO_CLK*%
%TO.N,/SDC1_CLK*%
X31150000Y-11187500D03*
%TO.P,U1,22,SDIO_DATA_0*%
%TO.N,/SDC1_D0*%
X31650000Y-11187500D03*
%TO.P,U1,23,SDIO_DATA_1*%
%TO.N,/SDC1_D1*%
X32150000Y-11187500D03*
%TO.P,U1,24,GPIO5*%
%TO.N,unconnected-(U1-GPIO5-Pad24)*%
X32650000Y-11187500D03*
D33*
%TO.P,U1,25,U0RXD*%
%TO.N,/RXD*%
X33337500Y-10500000D03*
%TO.P,U1,26,U0TXD*%
%TO.N,/TXD*%
X33337500Y-10000000D03*
%TO.P,U1,27,XTAL_OUT*%
%TO.N,Net-(U1-XTAL_OUT)*%
X33337500Y-9500000D03*
%TO.P,U1,28,XTAL_IN*%
%TO.N,Net-(U1-XTAL_IN)*%
X33337500Y-9000000D03*
%TO.P,U1,29,VDDD*%
%TO.N,/3V3_2*%
X33337500Y-8500000D03*
%TO.P,U1,30,VDDA*%
X33337500Y-8000000D03*
%TO.P,U1,31,RES12K*%
%TO.N,Net-(U1-RES12K)*%
X33337500Y-7500000D03*
%TO.P,U1,32,~{EXT_RSTB}*%
%TO.N,/PE24*%
X33337500Y-7000000D03*
D34*
%TO.P,U1,33,GND*%
%TO.N,GNDD*%
X30900000Y-8750000D03*
%TD*%
D11*
%TO.P,C47,1*%
%TO.N,+1V8*%
X14920000Y-31200000D03*
%TO.P,C47,2*%
%TO.N,/SVREF*%
X15880000Y-31200000D03*
%TD*%
D35*
%TO.P,Y1,1,1*%
%TO.N,/X24MIN*%
X20100000Y-31150000D03*
%TO.P,Y1,2,2*%
%TO.N,GNDD*%
X17900000Y-31150000D03*
%TO.P,Y1,3,3*%
%TO.N,/X24MOUT*%
X17900000Y-32850000D03*
%TO.P,Y1,4,4*%
%TO.N,GNDD*%
X20100000Y-32850000D03*
%TD*%
D36*
%TO.P,J5,1,VBUS*%
%TO.N,Net-(J5-VBUS)*%
X32740000Y-24300000D03*
%TO.P,J5,2,D-*%
%TO.N,/USB-D-_R*%
X32740000Y-23650000D03*
%TO.P,J5,3,D+*%
%TO.N,/USB-D+_R*%
X32740000Y-23000000D03*
%TO.P,J5,4,ID*%
%TO.N,/USB-ID*%
X32740000Y-22350000D03*
%TO.P,J5,5,GND*%
%TO.N,GNDD*%
X32740000Y-21700000D03*
D37*
%TO.P,J5,6,Shield*%
X32825000Y-20512500D03*
D38*
X35400000Y-26375000D03*
D39*
X35400000Y-24150000D03*
D37*
X32825000Y-25487500D03*
D38*
X35400000Y-19625000D03*
D40*
X35400000Y-21450000D03*
%TD*%
D20*
%TO.P,R20,1*%
%TO.N,/USB-D+_R*%
X30710000Y-21000000D03*
%TO.P,R20,2*%
%TO.N,/USB-D+*%
X29690000Y-21000000D03*
%TD*%
%TO.P,R24,1*%
%TO.N,/USB-D-_R*%
X30710000Y-22000000D03*
%TO.P,R24,2*%
%TO.N,/USB-D-*%
X29690000Y-22000000D03*
%TD*%
D14*
%TO.P,C56,1*%
%TO.N,+1V8*%
X14000000Y-31320000D03*
%TO.P,C56,2*%
%TO.N,GNDD*%
X14000000Y-32280000D03*
%TD*%
D11*
%TO.P,C33,1*%
%TO.N,/VRA1*%
X29520000Y-18400000D03*
%TO.P,C33,2*%
%TO.N,GNDD*%
X30480000Y-18400000D03*
%TD*%
D41*
%TO.N,GNDD*%
X37000000Y-29500000D03*
X22150000Y-25000000D03*
%TO.N,+3V3*%
X9550000Y-6800000D03*
%TO.N,GNDD*%
X9400000Y-7900000D03*
X2450000Y-10300000D03*
D42*
%TO.N,*%
X8000000Y-19000000D03*
D41*
%TO.N,+1V2*%
X25200000Y-22200000D03*
X14000000Y-17400000D03*
X22025000Y-29575000D03*
X14000000Y-20400000D03*
X20200000Y-29600000D03*
X13034165Y-24143058D03*
X16200000Y-15200000D03*
X18200000Y-15200000D03*
X24100000Y-17500000D03*
X17200000Y-15200000D03*
X14000000Y-19000000D03*
X11600000Y-27400000D03*
%TO.N,GNDD*%
X26600000Y-4600000D03*
X32100000Y-7650000D03*
X29850000Y-9750000D03*
X2200000Y-24200000D03*
D43*
X20800000Y-18000000D03*
D41*
X32100000Y-9750000D03*
X28800000Y-32400000D03*
D43*
X20800000Y-22600000D03*
D41*
X23750000Y-33550000D03*
X17800000Y-16223500D03*
X30400000Y-18400000D03*
X35700000Y-33050000D03*
X29850000Y-7650000D03*
X11800000Y-13000000D03*
X31000000Y-7600000D03*
X11023500Y-30860178D03*
X30950000Y-9750000D03*
D43*
X18600000Y-22600000D03*
D41*
X14000000Y-32743500D03*
X17800000Y-31200000D03*
D44*
X35500000Y-2500000D03*
D41*
X7600000Y-22800000D03*
D43*
X20800000Y-20800000D03*
D41*
X8200000Y-32650000D03*
X30275551Y-19395803D03*
X24800000Y-14600000D03*
D44*
X35500000Y-35500000D03*
D41*
X34450000Y-4350000D03*
X6600000Y-28400000D03*
X15073500Y-17200000D03*
X14800000Y-34310000D03*
X32800000Y-18800000D03*
X9400000Y-18400000D03*
X37000000Y-8500000D03*
X27000000Y-29000000D03*
D43*
X20800000Y-19400000D03*
D41*
X29850000Y-8750000D03*
D43*
X18600000Y-21000000D03*
X18600000Y-18000000D03*
D41*
X36200000Y-13400000D03*
X28200000Y-16800000D03*
X33600000Y-28400000D03*
D44*
X2500000Y-2500000D03*
D41*
X11750500Y-29000000D03*
X28936000Y-26850000D03*
X32100000Y-8700000D03*
D43*
X18600000Y-19400000D03*
D41*
X19600000Y-16200000D03*
X19400000Y-32800000D03*
D44*
X2500000Y-35500000D03*
D41*
X20100000Y-25200000D03*
X9600000Y-22400000D03*
X7000000Y-31200000D03*
X31000000Y-8700000D03*
X9075250Y-29342109D03*
X12400000Y-5200000D03*
%TO.N,+1V8*%
X3825000Y-25600000D03*
X16888262Y-26125011D03*
%TO.N,+3V3*%
X22300000Y-31150000D03*
X25900000Y-27700000D03*
X20800000Y-14150500D03*
X24500000Y-16100000D03*
X28350500Y-22160000D03*
X8520000Y-21276500D03*
X15200000Y-16176500D03*
X12807648Y-20207648D03*
X23800000Y-29800000D03*
X13830528Y-14096673D03*
X28650500Y-24040000D03*
%TO.N,+5V*%
X9762375Y-31962375D03*
X35700000Y-31350000D03*
X18400000Y-36000000D03*
X16800000Y-33800000D03*
X8000000Y-26000000D03*
X3400000Y-32600000D03*
%TO.N,+3V0*%
X19992352Y-7192352D03*
X23600000Y-6600000D03*
%TO.N,+1V35*%
X20000000Y-6200000D03*
%TO.N,/RESET*%
X28520000Y-26040000D03*
%TO.N,/VRA2*%
X28109510Y-18090490D03*
%TO.N,/LRADC*%
X23400000Y-26400000D03*
%TO.N,/CSI_D5*%
X14600000Y-9200000D03*
X13000000Y-9400000D03*
%TO.N,/CSI_D4*%
X16000000Y-9800000D03*
X13200000Y-10500000D03*
%TO.N,/CSI_VS*%
X19700000Y-10150000D03*
X11600000Y-9800000D03*
%TO.N,/CSI_HS*%
X19700000Y-8150000D03*
X10600000Y-9800000D03*
%TO.N,/CSI_MCLK*%
X9600000Y-9800000D03*
X18423500Y-8000000D03*
%TO.N,/CLK_PCLK*%
X8600000Y-9800000D03*
X16800000Y-7200000D03*
%TO.N,/SPI_MISO*%
X14257648Y-22442352D03*
%TO.N,/SPI_SCK*%
X14653282Y-23291183D03*
%TO.N,/SPI_CS*%
X14869248Y-24723500D03*
%TO.N,/SPI_MOSI*%
X13850000Y-24723500D03*
%TO.N,Net-(DD1-SZQ)*%
X16249500Y-26649500D03*
%TO.N,/USB-ID*%
X29050000Y-29700000D03*
X31600000Y-22400000D03*
%TO.N,VAA*%
X17804102Y-26619398D03*
X19200000Y-26000000D03*
X21392352Y-30807648D03*
%TO.N,/I2C1_SDA*%
X24893162Y-7593162D03*
%TO.N,Net-(J5-VBUS)*%
X31400000Y-24200000D03*
%TO.N,/STROB*%
X24490000Y-4400000D03*
%TO.N,/I2C1_SCK*%
X23050000Y-9300000D03*
D45*
%TO.N,Net-(C64-Pad1)*%
X5950000Y-7550000D03*
D41*
%TO.N,Net-(DD1-MICIN1P)*%
X30150000Y-14473500D03*
%TO.N,Net-(DD1-MICIN1N)*%
X28650000Y-14473500D03*
D45*
%TO.N,Net-(C65-Pad1)*%
X3400000Y-7550000D03*
D41*
%TO.N,/3V3_2*%
X27250000Y-8886000D03*
X35800000Y-16800000D03*
X33350000Y-5300000D03*
X31400000Y-5150000D03*
X26900000Y-7740000D03*
X33350000Y-12450000D03*
%TO.N,/USB-D-_R*%
X33800000Y-16800000D03*
%TO.N,/USB-D+_R*%
X30751838Y-23110000D03*
X30300000Y-16800000D03*
X30803162Y-20943162D03*
%TO.N,/RESETB*%
X21700000Y-9550000D03*
%TO.N,/PWDN*%
X20086688Y-9150241D03*
%TO.N,Net-(U1-XTAL_OUT)*%
X35900000Y-5100000D03*
D46*
%TO.N,/ANT*%
X29200000Y-4300000D03*
D41*
%TO.N,Net-(U1-XTAL_IN)*%
X34700000Y-8500000D03*
%TO.N,/SDC1_D3*%
X32150000Y-13600000D03*
X30276500Y-12260000D03*
%TO.N,/PE24*%
X26500000Y-9750000D03*
X33649500Y-6200000D03*
%TO.N,/SDC1_CMD*%
X24450000Y-11150000D03*
X25600000Y-10200000D03*
%TO.N,/SDC1_D2*%
X26100000Y-12600000D03*
X26500000Y-10650000D03*
%TD*%
D47*
%TO.N,/SPI_CS*%
X14869248Y-24723500D02*
X14869248Y-24493216D01*
X13076032Y-22700000D02*
X11337500Y-22700000D01*
X14869248Y-24493216D02*
X13076032Y-22700000D01*
%TO.N,/SPI_MOSI*%
X13850000Y-24039654D02*
X12910346Y-23100000D01*
X13850000Y-24723500D02*
X13850000Y-24039654D01*
X12910346Y-23100000D02*
X11337500Y-23100000D01*
%TO.N,/SPI_MISO*%
X13715296Y-21900000D02*
X11337500Y-21900000D01*
X14257648Y-22442352D02*
X13715296Y-21900000D01*
%TO.N,/SPI_SCK*%
X14653282Y-23291183D02*
X14291183Y-23291183D01*
X14291183Y-23291183D02*
X13300000Y-22300000D01*
X13300000Y-22300000D02*
X11337500Y-22300000D01*
D48*
%TO.N,GNDD*%
X32825000Y-25487500D02*
X32825000Y-27625000D01*
X32825000Y-27625000D02*
X33600000Y-28400000D01*
%TO.N,+3V3*%
X22300000Y-31150000D02*
X22300000Y-33700000D01*
X22300000Y-33700000D02*
X23075000Y-34475000D01*
X23075000Y-34475000D02*
X23075000Y-35350000D01*
D47*
%TO.N,GNDD*%
X28936000Y-26850000D02*
X28880000Y-26906000D01*
X28880000Y-26906000D02*
X28880000Y-27800000D01*
D49*
%TO.N,/USB-ID*%
X29100000Y-25500000D02*
X26662500Y-25500000D01*
X29476000Y-25876000D02*
X29100000Y-25500000D01*
X29476000Y-29274000D02*
X29476000Y-25876000D01*
X29050000Y-29700000D02*
X29476000Y-29274000D01*
D47*
%TO.N,GNDD*%
X23720000Y-32800000D02*
X23720000Y-33520000D01*
X23720000Y-33520000D02*
X23750000Y-33550000D01*
%TO.N,/CSI_HS*%
X19700000Y-8150000D02*
X20250000Y-8150000D01*
X20250000Y-8150000D02*
X20700000Y-7700000D01*
X20700000Y-7700000D02*
X20700000Y-2200000D01*
%TO.N,/CSI_VS*%
X19700000Y-10150000D02*
X20100000Y-10150000D01*
X20100000Y-10150000D02*
X21700000Y-8550000D01*
X21700000Y-8550000D02*
X21700000Y-2200000D01*
D50*
%TO.N,GNDD*%
X37000000Y-29500000D02*
X37000000Y-34000000D01*
X37000000Y-25400000D02*
X37000000Y-29500000D01*
X37000000Y-34000000D02*
X35500000Y-35500000D01*
X11023500Y-30860178D02*
X11023500Y-29073000D01*
X11023500Y-29073000D02*
X10975250Y-29024750D01*
X11023500Y-30860178D02*
X11200000Y-31036678D01*
X11200000Y-31036678D02*
X11200000Y-36600000D01*
X11200000Y-36600000D02*
X10800000Y-37000000D01*
X7200000Y-32700000D02*
X7200000Y-36800000D01*
X7200000Y-31400000D02*
X7200000Y-32700000D01*
D47*
X7200000Y-32700000D02*
X8150000Y-32700000D01*
X8150000Y-32700000D02*
X8200000Y-32650000D01*
D48*
X34450000Y-3550000D02*
X35500000Y-2500000D01*
D47*
X34450000Y-4350000D02*
X34020000Y-3920000D01*
D48*
X34450000Y-4350000D02*
X34450000Y-3550000D01*
D47*
X34020000Y-3920000D02*
X33300000Y-3920000D01*
D51*
X34450000Y-4350000D02*
X34450000Y-4650000D01*
X34450000Y-4650000D02*
X35520000Y-5720000D01*
X35520000Y-5720000D02*
X35520000Y-6350000D01*
D47*
%TO.N,Net-(U1-XTAL_IN)*%
X35420000Y-8500000D02*
X34700000Y-8500000D01*
D49*
X34700000Y-8500000D02*
X34700000Y-8950000D01*
X34700000Y-8950000D02*
X34650000Y-9000000D01*
X34650000Y-9000000D02*
X33337500Y-9000000D01*
D47*
%TO.N,/I2C1_SDA*%
X24400000Y-6800000D02*
X24400000Y-8831224D01*
X24400000Y-6200000D02*
X24400000Y-6800000D01*
X24400000Y-6800000D02*
X24400000Y-7100000D01*
X24400000Y-7100000D02*
X24893162Y-7593162D01*
%TO.N,/I2C1_SCK*%
X22800000Y-9700000D02*
X22800000Y-7600000D01*
X22800000Y-9968776D02*
X22800000Y-9700000D01*
X22800000Y-9700000D02*
X22800000Y-9550000D01*
X22800000Y-9550000D02*
X23050000Y-9300000D01*
%TO.N,/I2C1_SDA*%
X23700000Y-2200000D02*
X23700000Y-5500000D01*
X23700000Y-5500000D02*
X24400000Y-6200000D01*
X24400000Y-8831224D02*
X22400000Y-10831224D01*
X22400000Y-10831224D02*
X22400000Y-12837500D01*
D49*
%TO.N,/CHIP_EN*%
X22800000Y-12837500D02*
X22800000Y-11100000D01*
X22800000Y-11100000D02*
X25200000Y-8700000D01*
X25200000Y-8700000D02*
X25200000Y-8050000D01*
X26050000Y-7200000D02*
X27450000Y-7200000D01*
X29400000Y-5450000D02*
X29650000Y-5700000D01*
X25200000Y-8050000D02*
X26050000Y-7200000D01*
X27450000Y-7200000D02*
X28450000Y-6200000D01*
X29650000Y-5700000D02*
X29650000Y-6312500D01*
X28450000Y-6200000D02*
X28450000Y-5750000D01*
X28450000Y-5750000D02*
X28750000Y-5450000D01*
X28750000Y-5450000D02*
X29400000Y-5450000D01*
%TO.N,/PE24*%
X23200000Y-11240790D02*
X23200000Y-12837500D01*
X26500000Y-9750000D02*
X26409500Y-9659500D01*
X24781290Y-9659500D02*
X23200000Y-11240790D01*
X26409500Y-9659500D02*
X24781290Y-9659500D01*
D47*
%TO.N,/PWDN*%
X21200000Y-8000000D02*
X21200000Y-2200000D01*
X20086688Y-9150241D02*
X20800000Y-8436929D01*
X20800000Y-8436929D02*
X20800000Y-8400000D01*
X20800000Y-8400000D02*
X21200000Y-8000000D01*
D48*
%TO.N,GNDD*%
X19000000Y-20500000D02*
X19000000Y-21850000D01*
X19000000Y-21850000D02*
X22150000Y-25000000D01*
D49*
%TO.N,+3V3*%
X9550000Y-6800000D02*
X9750000Y-6800000D01*
X12350000Y-10800000D02*
X12950000Y-11400000D01*
X9750000Y-6800000D02*
X12350000Y-9400000D01*
X12350000Y-9400000D02*
X12350000Y-10800000D01*
X12950000Y-11400000D02*
X13550000Y-11400000D01*
X13550000Y-11400000D02*
X14000000Y-11850000D01*
X14000000Y-11850000D02*
X14000000Y-12837500D01*
D47*
%TO.N,/CSI_D4*%
X13200000Y-10500000D02*
X14400000Y-11700000D01*
X14400000Y-11700000D02*
X14400000Y-12837500D01*
D49*
%TO.N,GNDD*%
X9400000Y-7900000D02*
X7600000Y-9700000D01*
X7600000Y-9700000D02*
X3050000Y-9700000D01*
X3050000Y-9700000D02*
X2450000Y-10300000D01*
X2450000Y-10716368D02*
X1666368Y-11500000D01*
X2450000Y-10300000D02*
X2450000Y-10716368D01*
X23200000Y-31710000D02*
X24100000Y-31710000D01*
%TO.N,Net-(DD1-EPHY-RTX)*%
X23200000Y-30690000D02*
X24100000Y-30690000D01*
D47*
%TO.N,+3V3*%
X22300000Y-31150000D02*
X22300000Y-30899294D01*
X22300000Y-30899294D02*
X20800000Y-29399294D01*
X20800000Y-29399294D02*
X20800000Y-28162500D01*
%TO.N,Net-(DD1-EPHY-RTX)*%
X24400000Y-30390000D02*
X24100000Y-30690000D01*
X24400000Y-28162500D02*
X24400000Y-30390000D01*
%TO.N,GNDD*%
X23800000Y-33000000D02*
X24100000Y-32700000D01*
X24100000Y-32700000D02*
X24100000Y-31710000D01*
D49*
%TO.N,Net-(DD1-MICIN1P)*%
X29309673Y-20400000D02*
X29159673Y-20550000D01*
X29454000Y-15304000D02*
X29454000Y-17094790D01*
X30816608Y-20400000D02*
X29309673Y-20400000D01*
X29450000Y-15300000D02*
X29454000Y-15304000D01*
X31254000Y-19962608D02*
X30816608Y-20400000D01*
X30905210Y-17546000D02*
X31254000Y-17894790D01*
X31254000Y-17894790D02*
X31254000Y-19962608D01*
X29450000Y-15173500D02*
X29450000Y-15300000D01*
X29905210Y-17546000D02*
X30905210Y-17546000D01*
X28650000Y-20550000D02*
X28400000Y-20300000D01*
X29159673Y-20550000D02*
X28650000Y-20550000D01*
X29454000Y-17094790D02*
X29905210Y-17546000D01*
X30150000Y-14473500D02*
X29450000Y-15173500D01*
X28400000Y-20300000D02*
X26662500Y-20300000D01*
D47*
%TO.N,+1V2*%
X18800000Y-28891737D02*
X18800000Y-28162500D01*
X12391107Y-23500000D02*
X11337500Y-23500000D01*
X17600000Y-14800000D02*
X17200000Y-15200000D01*
X15200000Y-14200000D02*
X16200000Y-15200000D01*
X26662500Y-22300000D02*
X25300000Y-22300000D01*
X12300000Y-19900000D02*
X11337500Y-19900000D01*
X26662500Y-15100000D02*
X25762448Y-15100000D01*
X12900000Y-21500000D02*
X11337500Y-21500000D01*
X17200000Y-12837500D02*
X17200000Y-15200000D01*
X11600000Y-26962500D02*
X11337500Y-26700000D01*
X9900000Y-19900000D02*
X9400000Y-19400000D01*
X25300000Y-22300000D02*
X25200000Y-22200000D01*
D48*
X10800000Y-27720000D02*
X11280000Y-27720000D01*
D47*
X22000000Y-28162500D02*
X22000000Y-29550000D01*
X25400000Y-15462448D02*
X25400000Y-16200000D01*
X13200000Y-19000000D02*
X12300000Y-19900000D01*
X15600000Y-14600000D02*
X16200000Y-15200000D01*
X20200000Y-29600000D02*
X19508263Y-29600000D01*
X25400000Y-16200000D02*
X24100000Y-17500000D01*
X13034165Y-24143058D02*
X12877223Y-24300000D01*
X15600000Y-12837500D02*
X15600000Y-14600000D01*
X22000000Y-29550000D02*
X22025000Y-29575000D01*
X17600000Y-12837500D02*
X17600000Y-14800000D01*
X11337500Y-19900000D02*
X9900000Y-19900000D01*
X18000000Y-12837500D02*
X18000000Y-15000000D01*
X12877223Y-24300000D02*
X11337500Y-24300000D01*
X15200000Y-12837500D02*
X15200000Y-14200000D01*
X12900000Y-16300000D02*
X11337500Y-16300000D01*
X18000000Y-15000000D02*
X18200000Y-15200000D01*
D48*
X11280000Y-27720000D02*
X11600000Y-27400000D01*
D47*
X11600000Y-27400000D02*
X11600000Y-26962500D01*
X14000000Y-20400000D02*
X12900000Y-21500000D01*
X13034165Y-24143058D02*
X12391107Y-23500000D01*
X14000000Y-19000000D02*
X13200000Y-19000000D01*
X19508263Y-29600000D02*
X18800000Y-28891737D01*
X14000000Y-17400000D02*
X12900000Y-16300000D01*
X25762448Y-15100000D02*
X25400000Y-15462448D01*
D50*
%TO.N,GNDD*%
X26800000Y-4600000D02*
X26800000Y-1000000D01*
D48*
X6600000Y-30800000D02*
X6600000Y-28400000D01*
X10800000Y-28849500D02*
X10975250Y-29024750D01*
D50*
X10800000Y-37000000D02*
X7400000Y-37000000D01*
D47*
X14000000Y-32743500D02*
X13343500Y-32743500D01*
D50*
X2500000Y-2500000D02*
X4200000Y-800000D01*
X34600000Y-28400000D02*
X35400000Y-27600000D01*
X32825000Y-18825000D02*
X32800000Y-18800000D01*
X800000Y-24600000D02*
X800000Y-17800000D01*
X34000000Y-37000000D02*
X21800000Y-37000000D01*
D48*
X35150000Y-21700000D02*
X35400000Y-21450000D01*
X13000000Y-14600000D02*
X11800000Y-13400000D01*
D50*
X26700000Y-4700000D02*
X26800000Y-4600000D01*
D47*
X28680000Y-32520000D02*
X28800000Y-32400000D01*
D48*
X32740000Y-21700000D02*
X35150000Y-21700000D01*
D47*
X15800000Y-34280000D02*
X14830000Y-34280000D01*
D48*
X9000000Y-27375000D02*
X9000000Y-29266859D01*
X19280000Y-36680000D02*
X19600000Y-37000000D01*
X9400000Y-26975000D02*
X9000000Y-27375000D01*
D49*
X30480000Y-18400000D02*
X30400000Y-18400000D01*
D47*
X14830000Y-34280000D02*
X14800000Y-34310000D01*
D48*
X26400000Y-600000D02*
X11200000Y-600000D01*
D47*
X19400000Y-32800000D02*
X19450000Y-32850000D01*
D50*
X4000000Y-37000000D02*
X2500000Y-35500000D01*
X800000Y-33800000D02*
X800000Y-24600000D01*
X2500000Y-35500000D02*
X800000Y-33800000D01*
X33600000Y-28400000D02*
X34600000Y-28400000D01*
D47*
X17700000Y-500000D02*
X17800000Y-400000D01*
D50*
X35400000Y-18800000D02*
X35400000Y-26375000D01*
X26800000Y-1000000D02*
X27000000Y-800000D01*
D47*
X26662500Y-19100000D02*
X20400000Y-19100000D01*
D48*
X19280000Y-34200000D02*
X19280000Y-33670000D01*
X11350500Y-29400000D02*
X11750500Y-29000000D01*
D50*
X1200000Y-24200000D02*
X800000Y-24600000D01*
X21825000Y-36975000D02*
X21825000Y-35350000D01*
X35500000Y-2500000D02*
X36100000Y-2500000D01*
X7400000Y-37000000D02*
X4000000Y-37000000D01*
X7200000Y-36800000D02*
X7400000Y-37000000D01*
D48*
X35400000Y-18800000D02*
X36800000Y-18800000D01*
D50*
X2200000Y-24200000D02*
X1200000Y-24200000D01*
D48*
X9133141Y-29400000D02*
X11350500Y-29400000D01*
D50*
X4200000Y-800000D02*
X6400000Y-800000D01*
D49*
X31000000Y-8700000D02*
X30950000Y-8750000D01*
D50*
X11200000Y-1000000D02*
X11000000Y-800000D01*
X32800000Y-18800000D02*
X35400000Y-18800000D01*
D47*
X30275551Y-19395803D02*
X29942748Y-19063000D01*
X17900000Y-31150000D02*
X17850000Y-31150000D01*
D48*
X19280000Y-33670000D02*
X20100000Y-32850000D01*
X9075250Y-29342109D02*
X9133141Y-29400000D01*
X9000000Y-29266859D02*
X9075250Y-29342109D01*
X9400000Y-18520000D02*
X9400000Y-18400000D01*
D47*
X24200000Y-2200000D02*
X24200000Y-400000D01*
D48*
X36200000Y-13400000D02*
X37000000Y-13400000D01*
D50*
X37000000Y-13400000D02*
X37000000Y-19000000D01*
D48*
X35400000Y-19625000D02*
X35400000Y-26375000D01*
D50*
X11200000Y-4600000D02*
X11200000Y-1000000D01*
D48*
X21600000Y-32880000D02*
X20130000Y-32880000D01*
X7600000Y-22800000D02*
X7600000Y-23320000D01*
X28200000Y-800000D02*
X26600000Y-800000D01*
X11200000Y-600000D02*
X11000000Y-800000D01*
D50*
X36100000Y-2500000D02*
X37000000Y-3400000D01*
D48*
X18600000Y-23700000D02*
X18600000Y-22600000D01*
X36800000Y-18800000D02*
X37000000Y-19000000D01*
D47*
X28990984Y-19100000D02*
X26662500Y-19100000D01*
X20400000Y-19100000D02*
X19000000Y-20500000D01*
D50*
X2650000Y-17725000D02*
X875000Y-17725000D01*
D48*
X35400000Y-21450000D02*
X35400000Y-19625000D01*
D50*
X19600000Y-37000000D02*
X10800000Y-37000000D01*
D47*
X27000000Y-29000000D02*
X27000000Y-28880000D01*
X13343500Y-32743500D02*
X13000000Y-32400000D01*
D48*
X19600000Y-16200000D02*
X19600000Y-19900000D01*
X15073500Y-17200000D02*
X15700000Y-17200000D01*
D47*
X17850000Y-31150000D02*
X17800000Y-31200000D01*
D49*
X30950000Y-8750000D02*
X30900000Y-8750000D01*
D48*
X36912500Y-25487500D02*
X37000000Y-25400000D01*
D50*
X800000Y-17800000D02*
X800000Y-4200000D01*
X28200000Y-800000D02*
X33800000Y-800000D01*
D48*
X13000000Y-15200000D02*
X13000000Y-14600000D01*
D47*
X17700000Y-2200000D02*
X17700000Y-500000D01*
D48*
X15073500Y-17200000D02*
X15000000Y-17200000D01*
D50*
X37000000Y-19000000D02*
X37000000Y-25400000D01*
D48*
X32825000Y-25487500D02*
X36912500Y-25487500D01*
D51*
X11000000Y-800000D02*
X11400000Y-400000D01*
D48*
X10975250Y-29024750D02*
X11350500Y-29400000D01*
D51*
X33400000Y-400000D02*
X33800000Y-800000D01*
D48*
X11800000Y-5200000D02*
X11200000Y-4600000D01*
X24800000Y-14600000D02*
X19000000Y-20400000D01*
D50*
X27000000Y-800000D02*
X28200000Y-800000D01*
D48*
X15000000Y-17200000D02*
X13000000Y-15200000D01*
D50*
X35400000Y-27600000D02*
X35400000Y-26375000D01*
X21800000Y-37000000D02*
X21825000Y-36975000D01*
D48*
X11800000Y-13400000D02*
X11800000Y-13000000D01*
D50*
X35500000Y-35500000D02*
X34000000Y-37000000D01*
X800000Y-4200000D02*
X2500000Y-2500000D01*
D51*
X11400000Y-400000D02*
X17800000Y-400000D01*
D48*
X15700000Y-17200000D02*
X19000000Y-20500000D01*
X19600000Y-19900000D02*
X19000000Y-20500000D01*
X7000000Y-31200000D02*
X6600000Y-30800000D01*
X20130000Y-32880000D02*
X20100000Y-32850000D01*
D51*
X24200000Y-400000D02*
X33400000Y-400000D01*
D49*
X35650000Y-33050000D02*
X35700000Y-33050000D01*
D48*
X12400000Y-5200000D02*
X11800000Y-5200000D01*
D47*
X13000000Y-32400000D02*
X13000000Y-32280000D01*
D50*
X21800000Y-37000000D02*
X19600000Y-37000000D01*
X35500000Y-2500000D02*
X33800000Y-800000D01*
D48*
X9600000Y-22400000D02*
X9600000Y-22520000D01*
X20100000Y-25200000D02*
X18600000Y-23700000D01*
D47*
X29027984Y-19063000D02*
X28990984Y-19100000D01*
D50*
X7000000Y-31200000D02*
X7200000Y-31400000D01*
X32825000Y-20512500D02*
X32825000Y-18825000D01*
D47*
X29942748Y-19063000D02*
X29027984Y-19063000D01*
D50*
X37000000Y-3400000D02*
X37000000Y-13400000D01*
D48*
X26600000Y-800000D02*
X26400000Y-600000D01*
X10800000Y-28680000D02*
X10800000Y-28849500D01*
D47*
X28680000Y-32700000D02*
X28680000Y-32520000D01*
D50*
X6400000Y-800000D02*
X11000000Y-800000D01*
D48*
X19000000Y-20400000D02*
X19000000Y-20500000D01*
X19280000Y-34200000D02*
X19280000Y-36680000D01*
D47*
X19450000Y-32850000D02*
X20100000Y-32850000D01*
D51*
X17800000Y-400000D02*
X24200000Y-400000D01*
D47*
%TO.N,+1V8*%
X14400000Y-28162500D02*
X14400000Y-29800000D01*
D50*
X3825000Y-24975000D02*
X4400000Y-24400000D01*
D47*
X3800000Y-24600000D02*
X3800000Y-25575000D01*
X12300000Y-25500000D02*
X13200000Y-26400000D01*
X3800000Y-24800000D02*
X3800000Y-25575000D01*
X11337500Y-24700000D02*
X10218750Y-24700000D01*
X12800000Y-29400000D02*
X13200000Y-29800000D01*
X11337500Y-25500000D02*
X12300000Y-25500000D01*
X14000000Y-28162500D02*
X14000000Y-30200000D01*
X11337500Y-25500000D02*
X9300000Y-25500000D01*
X14000000Y-26000000D02*
X12700000Y-24700000D01*
X12700000Y-25900000D02*
X11337500Y-25900000D01*
D50*
X3825000Y-25600000D02*
X3825000Y-24975000D01*
D47*
X8000000Y-24200000D02*
X5800000Y-24200000D01*
X14800000Y-26800000D02*
X12700000Y-24700000D01*
X14400000Y-26400000D02*
X12700000Y-24700000D01*
X7200000Y-24600000D02*
X6600000Y-24000000D01*
X13200000Y-26400000D02*
X13200000Y-28162500D01*
X14800000Y-31320000D02*
X13000000Y-31320000D01*
X14800000Y-26800000D02*
X14400000Y-26400000D01*
X15800000Y-25800000D02*
X15600000Y-26000000D01*
X13600000Y-28162500D02*
X13600000Y-26200000D01*
X6600000Y-24000000D02*
X4600000Y-24000000D01*
X13600000Y-28162500D02*
X13600000Y-31025000D01*
D48*
X14890000Y-32200000D02*
X14890000Y-31230000D01*
D47*
X14000000Y-30200000D02*
X13600000Y-30600000D01*
X13600000Y-31025000D02*
X13200000Y-31425000D01*
D48*
X14920000Y-31200000D02*
X14120000Y-31200000D01*
D47*
X12800000Y-26000000D02*
X12700000Y-25900000D01*
D48*
X14890000Y-31230000D02*
X14920000Y-31200000D01*
D47*
X4400000Y-24200000D02*
X3800000Y-24800000D01*
D50*
X4400000Y-24400000D02*
X7400000Y-24400000D01*
D47*
X15600000Y-28162500D02*
X15600000Y-26000000D01*
D48*
X7600000Y-24600000D02*
X7900000Y-24900000D01*
D47*
X5800000Y-24200000D02*
X4400000Y-24200000D01*
X10500000Y-25100000D02*
X7700000Y-25100000D01*
X13600000Y-30600000D02*
X13600000Y-31025000D01*
X11337500Y-25900000D02*
X9500000Y-25900000D01*
X12800000Y-28162500D02*
X12800000Y-26000000D01*
X4400000Y-24000000D02*
X3800000Y-24600000D01*
D48*
X7900000Y-24900000D02*
X8500000Y-24900000D01*
X8220000Y-24900000D02*
X7600000Y-24280000D01*
D47*
X15600000Y-26000000D02*
X14800000Y-26800000D01*
X12700000Y-24700000D02*
X11337500Y-24700000D01*
X7500000Y-24200000D02*
X5800000Y-24200000D01*
X13600000Y-26200000D02*
X12500000Y-25100000D01*
X14400000Y-29800000D02*
X13600000Y-30600000D01*
D50*
X7400000Y-24400000D02*
X7600000Y-24600000D01*
D47*
X12800000Y-28162500D02*
X12800000Y-29400000D01*
X7700000Y-25100000D02*
X7200000Y-24600000D01*
X8725000Y-25425000D02*
X7500000Y-24200000D01*
D48*
X9400000Y-25425000D02*
X8825000Y-25425000D01*
D47*
X14400000Y-28162500D02*
X14400000Y-26400000D01*
X11337500Y-25100000D02*
X10500000Y-25100000D01*
D48*
X14120000Y-31200000D02*
X14000000Y-31320000D01*
D47*
X9493750Y-25425000D02*
X8725000Y-25425000D01*
X4600000Y-24000000D02*
X4400000Y-24000000D01*
X14800000Y-28162500D02*
X14800000Y-26800000D01*
X12500000Y-25100000D02*
X10500000Y-25100000D01*
X9500000Y-25900000D02*
X8500000Y-24900000D01*
X18400000Y-28162500D02*
X18400000Y-26200000D01*
X13200000Y-29800000D02*
X13200000Y-31425000D01*
D48*
X8500000Y-24900000D02*
X8220000Y-24900000D01*
D47*
X13200000Y-28162500D02*
X13200000Y-31425000D01*
X10218750Y-24700000D02*
X9493750Y-25425000D01*
D48*
X8825000Y-25425000D02*
X8300000Y-24900000D01*
D47*
X18400000Y-26200000D02*
X18000000Y-25800000D01*
X14920000Y-31200000D02*
X14800000Y-31320000D01*
X18000000Y-25800000D02*
X15800000Y-25800000D01*
X9300000Y-25500000D02*
X8000000Y-24200000D01*
X14000000Y-28162500D02*
X14000000Y-26000000D01*
X3800000Y-25575000D02*
X3825000Y-25600000D01*
D48*
X14000000Y-31320000D02*
X13000000Y-31320000D01*
D47*
%TO.N,+3V3*%
X20800000Y-12837500D02*
X20800000Y-14150500D01*
X12807648Y-20207648D02*
X12807648Y-20359089D01*
X28650500Y-24040000D02*
X28510500Y-23900000D01*
X14000000Y-12837500D02*
X14000000Y-13927201D01*
X12066737Y-21100000D02*
X11337500Y-21100000D01*
X28090500Y-21900000D02*
X26662500Y-21900000D01*
X24500000Y-15900000D02*
X24500000Y-16100000D01*
X23800000Y-29800000D02*
X24000000Y-29600000D01*
X26662448Y-29600000D02*
X25900000Y-28837552D01*
X11337500Y-23900000D02*
X8900000Y-23900000D01*
X8600000Y-21400000D02*
X8900000Y-21100000D01*
D48*
X15200000Y-15466145D02*
X13830528Y-14096673D01*
D47*
X26662500Y-14700000D02*
X25700000Y-14700000D01*
X28110000Y-29600000D02*
X26662448Y-29600000D01*
X8900000Y-21100000D02*
X11337500Y-21100000D01*
X8400000Y-23400000D02*
X8400000Y-21600000D01*
X28910000Y-28800000D02*
X28110000Y-29600000D01*
X8600000Y-21400000D02*
X8600000Y-21356500D01*
X12807648Y-20359089D02*
X12066737Y-21100000D01*
D48*
X15200000Y-16176500D02*
X15200000Y-15466145D01*
D47*
X28350500Y-22160000D02*
X28090500Y-21900000D01*
X25700000Y-14700000D02*
X24500000Y-15900000D01*
X14000000Y-13927201D02*
X13830528Y-14096673D01*
X28510500Y-23900000D02*
X26662500Y-23900000D01*
X25900000Y-28837552D02*
X25900000Y-27700000D01*
X8400000Y-21600000D02*
X8600000Y-21400000D01*
X8600000Y-21356500D02*
X8520000Y-21276500D01*
X24000000Y-29600000D02*
X24000000Y-28162500D01*
X8900000Y-23900000D02*
X8400000Y-23400000D01*
D48*
%TO.N,+5V*%
X18400000Y-35400000D02*
X16800000Y-33800000D01*
D50*
X8000000Y-26000000D02*
X7600000Y-26400000D01*
X7600000Y-30000000D02*
X9562375Y-31962375D01*
X3400000Y-29000000D02*
X6400000Y-26000000D01*
D48*
X18400000Y-36000000D02*
X18400000Y-35400000D01*
D50*
X7600000Y-26400000D02*
X7600000Y-30000000D01*
X6400000Y-26000000D02*
X8000000Y-26000000D01*
X9562375Y-31962375D02*
X9762375Y-31962375D01*
X3400000Y-32600000D02*
X3400000Y-29000000D01*
D47*
%TO.N,Net-(DD1-RTC-VIO)*%
X26662500Y-26700000D02*
X26662500Y-27582500D01*
X26662500Y-27582500D02*
X27000000Y-27920000D01*
%TO.N,+3V0*%
X19700000Y-5302354D02*
X19700000Y-2200000D01*
X19400000Y-5602354D02*
X19700000Y-5302354D01*
X19400000Y-6600000D02*
X19400000Y-5602354D01*
X23600000Y-6600000D02*
X23200000Y-6200000D01*
X23200000Y-6200000D02*
X23200000Y-2200000D01*
X19992352Y-7192352D02*
X19400000Y-6600000D01*
%TO.N,+1V35*%
X20200000Y-6000000D02*
X20000000Y-6200000D01*
X20200000Y-2200000D02*
X20200000Y-6000000D01*
%TO.N,/RESET*%
X26662500Y-25900000D02*
X28380000Y-25900000D01*
X28380000Y-25900000D02*
X28520000Y-26040000D01*
%TO.N,/SVREF*%
X12300000Y-26300000D02*
X12400000Y-26400000D01*
X15880000Y-30480000D02*
X15200000Y-29800000D01*
X16000000Y-33320000D02*
X16000000Y-31320000D01*
X15880000Y-31200000D02*
X15880000Y-30480000D01*
X12400000Y-32812254D02*
X12907746Y-33320000D01*
X12907746Y-33320000D02*
X16000000Y-33320000D01*
X11337500Y-26300000D02*
X12300000Y-26300000D01*
X12400000Y-26400000D02*
X12400000Y-32812254D01*
X15200000Y-29800000D02*
X15200000Y-28162500D01*
X16000000Y-31320000D02*
X15880000Y-31200000D01*
D49*
%TO.N,/VRA2*%
X27900000Y-18300000D02*
X28109510Y-18090490D01*
X26662500Y-18300000D02*
X27900000Y-18300000D01*
D47*
%TO.N,/VRA1*%
X26662500Y-18700000D02*
X29220000Y-18700000D01*
X29220000Y-18700000D02*
X29520000Y-18400000D01*
%TO.N,/X24MIN*%
X18575000Y-30000000D02*
X17400000Y-30000000D01*
X20100000Y-31150000D02*
X19725000Y-31150000D01*
D48*
X20528285Y-31150000D02*
X20100000Y-31150000D01*
X21298285Y-31920000D02*
X20528285Y-31150000D01*
D47*
X17400000Y-30000000D02*
X16800000Y-29400000D01*
X16800000Y-29400000D02*
X16800000Y-28162500D01*
X19725000Y-31150000D02*
X18575000Y-30000000D01*
D48*
X21600000Y-31920000D02*
X21298285Y-31920000D01*
D47*
%TO.N,/X32KOUT*%
X25690000Y-32670000D02*
X25350000Y-32330000D01*
X25350000Y-29950000D02*
X25350000Y-31000000D01*
X24800000Y-28162500D02*
X24800000Y-29400000D01*
X25690000Y-32800000D02*
X25690000Y-32670000D01*
X24880000Y-32800000D02*
X24680000Y-32800000D01*
X25350000Y-32330000D02*
X24880000Y-32800000D01*
X25350000Y-31000000D02*
X25350000Y-32330000D01*
X24800000Y-29400000D02*
X25350000Y-29950000D01*
D49*
%TO.N,/LRADC*%
X25100000Y-20700000D02*
X24600000Y-21200000D01*
X24400000Y-22800000D02*
X24400000Y-25400000D01*
X24400000Y-21400000D02*
X24400000Y-22800000D01*
X26662500Y-20700000D02*
X25100000Y-20700000D01*
X24600000Y-21200000D02*
X24400000Y-21400000D01*
X24400000Y-25400000D02*
X23400000Y-26400000D01*
D47*
%TO.N,/X32KIN*%
X27230000Y-32280000D02*
X26710000Y-32800000D01*
X27720000Y-32600000D02*
X27720000Y-32700000D01*
X27400000Y-31000000D02*
X27850000Y-31000000D01*
X27850000Y-31000000D02*
X27400000Y-31450000D01*
X25200000Y-28162500D02*
X25200000Y-28800000D01*
X27400000Y-31450000D02*
X27400000Y-32280000D01*
X25200000Y-28800000D02*
X27400000Y-31000000D01*
X27400000Y-32280000D02*
X27720000Y-32600000D01*
X27400000Y-32280000D02*
X27230000Y-32280000D01*
D48*
%TO.N,/X24MOUT*%
X18320000Y-33270000D02*
X17900000Y-32850000D01*
D47*
X16400000Y-30200000D02*
X16600000Y-30400000D01*
X16600000Y-30400000D02*
X16600000Y-31550000D01*
D48*
X18320000Y-34200000D02*
X18320000Y-33270000D01*
D47*
X16400000Y-28162500D02*
X16400000Y-30200000D01*
X16600000Y-31550000D02*
X17900000Y-32850000D01*
D49*
%TO.N,Net-(D1-A)*%
X4190000Y-14700000D02*
X3248750Y-14700000D01*
X4440000Y-14950000D02*
X4190000Y-14700000D01*
%TO.N,Net-(D2-A)*%
X4190000Y-13100000D02*
X3248750Y-13100000D01*
X4440000Y-13350000D02*
X4190000Y-13100000D01*
%TO.N,Net-(D3-A)*%
X4140000Y-11500000D02*
X3241368Y-11500000D01*
X4440000Y-11800000D02*
X4140000Y-11500000D01*
D47*
%TO.N,/CSI_D11*%
X19000000Y-10400000D02*
X19200000Y-10600000D01*
X19200000Y-10600000D02*
X19200000Y-12837500D01*
X19200000Y-5142260D02*
X19000000Y-5342260D01*
X19000000Y-5342260D02*
X19000000Y-10400000D01*
X19200000Y-2200000D02*
X19200000Y-5142260D01*
%TO.N,/CSI_D10*%
X18200000Y-2200000D02*
X18200000Y-4400000D01*
X17800000Y-4800000D02*
X17800000Y-10000000D01*
X18200000Y-4400000D02*
X17800000Y-4800000D01*
X18800000Y-11000000D02*
X18800000Y-12837500D01*
X17800000Y-10000000D02*
X18800000Y-11000000D01*
%TO.N,/CSI_D9*%
X17200000Y-2200000D02*
X17200000Y-4000000D01*
X17400000Y-10400000D02*
X18400000Y-11400000D01*
X18400000Y-11400000D02*
X18400000Y-12837500D01*
X17200000Y-4000000D02*
X17400000Y-4200000D01*
X17400000Y-4200000D02*
X17400000Y-10400000D01*
%TO.N,/CSI_D8*%
X16800000Y-10800000D02*
X16800000Y-12837500D01*
X16600000Y-10600000D02*
X16800000Y-10800000D01*
X16200000Y-2200000D02*
X16200000Y-8200000D01*
X16600000Y-8600000D02*
X16600000Y-10600000D01*
X16200000Y-8200000D02*
X16600000Y-8600000D01*
%TO.N,/CSI_D7*%
X15200000Y-10000000D02*
X16400000Y-11200000D01*
X15200000Y-2200000D02*
X15200000Y-10000000D01*
X16400000Y-11200000D02*
X16400000Y-12837500D01*
%TO.N,/CSI_D6*%
X13800000Y-9423650D02*
X13800000Y-8600000D01*
X16000000Y-11623650D02*
X13800000Y-9423650D01*
X14200000Y-8200000D02*
X14200000Y-2200000D01*
X16000000Y-12837500D02*
X16000000Y-11623650D01*
X13800000Y-8600000D02*
X14200000Y-8200000D01*
%TO.N,/CSI_D5*%
X14800000Y-11200000D02*
X14800000Y-12837500D01*
X14600000Y-9200000D02*
X14700000Y-9100000D01*
X14700000Y-9100000D02*
X14700000Y-2200000D01*
X13000000Y-9400000D02*
X14800000Y-11200000D01*
%TO.N,/CSI_D4*%
X16000000Y-9800000D02*
X15700000Y-9500000D01*
X15700000Y-9500000D02*
X15700000Y-2200000D01*
%TO.N,/CSI_VS*%
X10400000Y-14700000D02*
X11337500Y-14700000D01*
X9800000Y-14100000D02*
X10400000Y-14700000D01*
X11600000Y-9800000D02*
X9800000Y-11600000D01*
X9800000Y-11600000D02*
X9800000Y-14100000D01*
%TO.N,/CSI_HS*%
X9200000Y-14200000D02*
X10100000Y-15100000D01*
X9200000Y-11200000D02*
X9200000Y-14200000D01*
X10100000Y-15100000D02*
X11337500Y-15100000D01*
X10600000Y-9800000D02*
X9200000Y-11200000D01*
%TO.N,/CSI_MCLK*%
X18423500Y-4976500D02*
X18700000Y-4700000D01*
X8600000Y-10800000D02*
X8600000Y-14400000D01*
X8600000Y-14400000D02*
X9700000Y-15500000D01*
X9600000Y-9800000D02*
X8600000Y-10800000D01*
X18423500Y-8000000D02*
X18423500Y-4976500D01*
X18700000Y-4700000D02*
X18700000Y-2200000D01*
X9700000Y-15500000D02*
X11337500Y-15500000D01*
%TO.N,/CLK_PCLK*%
X8000000Y-12150000D02*
X8100000Y-12150000D01*
X7900000Y-12150000D02*
X8000000Y-12150000D01*
X8000000Y-13900000D02*
X8000000Y-14600000D01*
X8000000Y-14600000D02*
X9300000Y-15900000D01*
X7900000Y-13250000D02*
X8000000Y-13250000D01*
X9300000Y-15900000D02*
X11337500Y-15900000D01*
X8200000Y-13350000D02*
X8200000Y-13700000D01*
X7800000Y-12800000D02*
X7800000Y-13150000D01*
X7800000Y-11700000D02*
X7800000Y-12050000D01*
X7800000Y-10600000D02*
X7800000Y-10950000D01*
X8200000Y-11150000D02*
X8200000Y-11500000D01*
X8000000Y-13250000D02*
X8100000Y-13250000D01*
X8000000Y-12700000D02*
X7900000Y-12700000D01*
X8200000Y-12250000D02*
X8200000Y-12600000D01*
X8000000Y-11600000D02*
X7900000Y-11600000D01*
X8000000Y-11050000D02*
X8100000Y-11050000D01*
X8100000Y-12700000D02*
X8000000Y-12700000D01*
X8100000Y-11600000D02*
X8000000Y-11600000D01*
X8600000Y-9800000D02*
X8000000Y-10400000D01*
X16700000Y-7100000D02*
X16700000Y-2200000D01*
X16800000Y-7200000D02*
X16700000Y-7100000D01*
X7900000Y-11050000D02*
X8000000Y-11050000D01*
X8200000Y-13350000D02*
G75*
G03*
X8100000Y-13250000I-100000J0D01*
G01*
X7900000Y-10500000D02*
G75*
G03*
X7800000Y-10600000I0J-100000D01*
G01*
X8100000Y-13800000D02*
G75*
G03*
X8000000Y-13900000I0J-100000D01*
G01*
X7800000Y-10950000D02*
G75*
G03*
X7900000Y-11050000I100000J0D01*
G01*
X7800000Y-12050000D02*
G75*
G03*
X7900000Y-12150000I100000J0D01*
G01*
X7900000Y-10500000D02*
G75*
G03*
X8000000Y-10400000I0J100000D01*
G01*
X8100000Y-13800000D02*
G75*
G03*
X8200000Y-13700000I0J100000D01*
G01*
X8200000Y-11150000D02*
G75*
G03*
X8100000Y-11050000I-100000J0D01*
G01*
X8100000Y-11600000D02*
G75*
G03*
X8200000Y-11500000I0J100000D01*
G01*
X7900000Y-12700000D02*
G75*
G03*
X7800000Y-12800000I0J-100000D01*
G01*
X7900000Y-11600000D02*
G75*
G03*
X7800000Y-11700000I0J-100000D01*
G01*
X7800000Y-13150000D02*
G75*
G03*
X7900000Y-13250000I100000J0D01*
G01*
X8200000Y-12250000D02*
G75*
G03*
X8100000Y-12150000I-100000J0D01*
G01*
X8100000Y-12700000D02*
G75*
G03*
X8200000Y-12600000I0J100000D01*
G01*
D49*
%TO.N,/PB2*%
X6550000Y-13100000D02*
X5460000Y-12010000D01*
X6550000Y-14850000D02*
X6550000Y-13100000D01*
X10250000Y-17500000D02*
X9400000Y-16650000D01*
X9400000Y-16650000D02*
X8350000Y-16650000D01*
X11337500Y-17500000D02*
X10250000Y-17500000D01*
X5460000Y-12010000D02*
X5460000Y-11800000D01*
X8350000Y-16650000D02*
X6550000Y-14850000D01*
%TO.N,/PB3*%
X6200000Y-14950000D02*
X6200000Y-14300000D01*
X9250000Y-16950000D02*
X8200000Y-16950000D01*
X10200000Y-17900000D02*
X9250000Y-16950000D01*
X6200000Y-14300000D02*
X5460000Y-13560000D01*
X11337500Y-17900000D02*
X10200000Y-17900000D01*
X5460000Y-13560000D02*
X5460000Y-13350000D01*
X8200000Y-16950000D02*
X6200000Y-14950000D01*
%TO.N,/PB4*%
X10200000Y-18300000D02*
X9150000Y-17250000D01*
X9150000Y-17250000D02*
X7760000Y-17250000D01*
X11337500Y-18300000D02*
X10200000Y-18300000D01*
X7760000Y-17250000D02*
X5460000Y-14950000D01*
D47*
%TO.N,/UART0_TX*%
X4262448Y-18800000D02*
X2825000Y-18800000D01*
X2825000Y-18800000D02*
X2650000Y-18975000D01*
X11337500Y-20300000D02*
X5762448Y-20300000D01*
X5762448Y-20300000D02*
X4262448Y-18800000D01*
%TO.N,/UART0_RX*%
X11337500Y-20700000D02*
X5700000Y-20700000D01*
X5700000Y-20700000D02*
X5225000Y-20225000D01*
X5225000Y-20225000D02*
X2650000Y-20225000D01*
%TO.N,Net-(DD1-SZQ)*%
X16000000Y-26899000D02*
X16249500Y-26649500D01*
X16000000Y-28162500D02*
X16000000Y-26899000D01*
%TO.N,Net-(DD1-VCC-RTC)*%
X27920000Y-26520000D02*
X27920000Y-27800000D01*
X26662500Y-26300000D02*
X27700000Y-26300000D01*
X27890000Y-28800000D02*
X27890000Y-27830000D01*
X27890000Y-27830000D02*
X27920000Y-27800000D01*
X27700000Y-26300000D02*
X27920000Y-26520000D01*
D49*
%TO.N,/USB-ID*%
X31650000Y-22350000D02*
X32740000Y-22350000D01*
X31600000Y-22400000D02*
X31650000Y-22350000D01*
%TO.N,/SDC0_D2*%
X26662500Y-25100000D02*
X28100000Y-25100000D01*
X27200000Y-33800000D02*
X25875000Y-33800000D01*
X25875000Y-33800000D02*
X24325000Y-35350000D01*
X28100000Y-25100000D02*
X28200000Y-25200000D01*
X29730000Y-32710790D02*
X29148790Y-33292000D01*
X27708000Y-33292000D02*
X27200000Y-33800000D01*
X28200000Y-25200000D02*
X28202000Y-25198000D01*
X29730000Y-25489210D02*
X29730000Y-32710790D01*
X29148790Y-33292000D02*
X27708000Y-33292000D01*
X28202000Y-25198000D02*
X29438790Y-25198000D01*
X29438790Y-25198000D02*
X29730000Y-25489210D01*
%TO.N,/SDC0_D3*%
X29544000Y-24944000D02*
X28321407Y-24944000D01*
X27400000Y-34200000D02*
X28054000Y-33546000D01*
X26200000Y-34200000D02*
X27400000Y-34200000D01*
X29254000Y-33546000D02*
X29984000Y-32816000D01*
X25575000Y-35350000D02*
X25575000Y-34825000D01*
X25575000Y-34825000D02*
X26200000Y-34200000D01*
X28054000Y-33546000D02*
X29254000Y-33546000D01*
X29984000Y-32816000D02*
X29984000Y-25384000D01*
X28321407Y-24944000D02*
X28077407Y-24700000D01*
X29984000Y-25384000D02*
X29544000Y-24944000D01*
X28077407Y-24700000D02*
X26662500Y-24700000D01*
%TO.N,/SDC0_CMD*%
X29800000Y-24600000D02*
X30238000Y-25038000D01*
X26662500Y-24300000D02*
X28068308Y-24300000D01*
X28068308Y-24300000D02*
X28368308Y-24600000D01*
X30238000Y-32962000D02*
X29400000Y-33800000D01*
X29400000Y-33800000D02*
X28375000Y-33800000D01*
X28375000Y-33800000D02*
X26825000Y-35350000D01*
X30238000Y-25038000D02*
X30238000Y-32962000D01*
X28368308Y-24600000D02*
X29800000Y-24600000D01*
%TO.N,/SDC0_CLK*%
X30492000Y-24892000D02*
X30492000Y-33108000D01*
X28600000Y-34200000D02*
X28075000Y-34725000D01*
X29100000Y-23500000D02*
X30492000Y-24892000D01*
X30492000Y-33108000D02*
X29400000Y-34200000D01*
X29400000Y-34200000D02*
X28600000Y-34200000D01*
X26662500Y-23500000D02*
X29100000Y-23500000D01*
X28075000Y-34725000D02*
X28075000Y-35350000D01*
%TO.N,/SDC0_D0*%
X29325000Y-34675000D02*
X29325000Y-35350000D01*
X30746000Y-33254000D02*
X29325000Y-34675000D01*
X29059210Y-23100000D02*
X30746000Y-24786790D01*
X26662500Y-23100000D02*
X29059210Y-23100000D01*
X30746000Y-24786790D02*
X30746000Y-33254000D01*
%TO.N,/SDC0_D1*%
X26662500Y-22700000D02*
X29018420Y-22700000D01*
X29018420Y-22700000D02*
X31000000Y-24681580D01*
X31000000Y-33450000D02*
X30575000Y-33875000D01*
X30575000Y-33875000D02*
X30575000Y-35350000D01*
X31000000Y-24681580D02*
X31000000Y-33450000D01*
%TO.N,/USB-D-*%
X28900000Y-21500000D02*
X29400000Y-22000000D01*
X26662500Y-21500000D02*
X28900000Y-21500000D01*
X29400000Y-22000000D02*
X29690000Y-22000000D01*
%TO.N,/USB-D+*%
X28400000Y-21000000D02*
X29690000Y-21000000D01*
X26662500Y-21100000D02*
X28300000Y-21100000D01*
X28300000Y-21100000D02*
X28400000Y-21000000D01*
D47*
%TO.N,VAA*%
X22200000Y-26000000D02*
X23800000Y-24400000D01*
X17804102Y-26619398D02*
X17200000Y-27223500D01*
X17200000Y-28162500D02*
X17200000Y-29200000D01*
X29420000Y-19500000D02*
X29520000Y-19600000D01*
X18800000Y-29600000D02*
X19400000Y-30200000D01*
X20784704Y-30200000D02*
X21392352Y-30807648D01*
X19400000Y-30200000D02*
X20784704Y-30200000D01*
X26662500Y-19500000D02*
X29420000Y-19500000D01*
X17200000Y-27223500D02*
X17200000Y-28162500D01*
X23800000Y-24400000D02*
X23800000Y-20800000D01*
X17200000Y-29200000D02*
X17600000Y-29600000D01*
X19200000Y-26000000D02*
X22200000Y-26000000D01*
X25100000Y-19500000D02*
X26662500Y-19500000D01*
X23800000Y-20800000D02*
X25100000Y-19500000D01*
X17600000Y-29600000D02*
X18800000Y-29600000D01*
D48*
%TO.N,Net-(J5-VBUS)*%
X31500000Y-24300000D02*
X32740000Y-24300000D01*
X31400000Y-24200000D02*
X31500000Y-24300000D01*
D49*
%TO.N,/STROB*%
X24700000Y-4190000D02*
X24490000Y-4400000D01*
X24700000Y-2200000D02*
X24700000Y-4190000D01*
D47*
%TO.N,/I2C1_SCK*%
X22700000Y-7500000D02*
X22700000Y-2200000D01*
X22800000Y-7600000D02*
X22700000Y-7500000D01*
X22000000Y-10768776D02*
X22800000Y-9968776D01*
X22000000Y-12837500D02*
X22000000Y-10768776D01*
D49*
%TO.N,Net-(DD1-MICIN1N)*%
X30756898Y-20100500D02*
X28824000Y-20100500D01*
X30800000Y-17800000D02*
X31000000Y-18000000D01*
X28824000Y-20100500D02*
X28800000Y-20076500D01*
X28800000Y-15800000D02*
X29200000Y-16200000D01*
D47*
X28623500Y-19900000D02*
X26662500Y-19900000D01*
D49*
X28800000Y-14623500D02*
X28800000Y-15800000D01*
D47*
X28800000Y-20076500D02*
X28623500Y-19900000D01*
D49*
X29800000Y-17800000D02*
X30800000Y-17800000D01*
X29200000Y-16200000D02*
X29200000Y-17200000D01*
X31000000Y-18000000D02*
X31000000Y-19857398D01*
X29200000Y-17200000D02*
X29800000Y-17800000D01*
X31000000Y-19857398D02*
X30756898Y-20100500D01*
X28650000Y-14473500D02*
X28800000Y-14623500D01*
D47*
%TO.N,/3V3_2*%
X35000000Y-7200000D02*
X35000000Y-5900000D01*
X31650000Y-5600000D02*
X31650000Y-6312500D01*
D48*
X27250000Y-8090000D02*
X26900000Y-7740000D01*
D51*
X29150000Y-11600000D02*
X29150000Y-11187500D01*
D47*
X34925000Y-7375000D02*
X35000000Y-7300000D01*
X35000000Y-5900000D02*
X34250000Y-5150000D01*
D48*
X33350000Y-12490266D02*
X35800000Y-14940266D01*
D51*
X28350000Y-11600000D02*
X29150000Y-11600000D01*
D47*
X33800000Y-8500000D02*
X34925000Y-7375000D01*
X34250000Y-5150000D02*
X33350000Y-5150000D01*
D48*
X33350000Y-12450000D02*
X33350000Y-12490266D01*
D47*
X33350000Y-5150000D02*
X33050000Y-5150000D01*
X33050000Y-5150000D02*
X32650000Y-5550000D01*
X31400000Y-5350000D02*
X31650000Y-5600000D01*
X34300000Y-8000000D02*
X34925000Y-7375000D01*
D51*
X27250000Y-8886000D02*
X27250000Y-8650000D01*
D47*
X31400000Y-5150000D02*
X31150000Y-5400000D01*
D48*
X35800000Y-14940266D02*
X35800000Y-16800000D01*
D47*
X35050000Y-7250000D02*
X35000000Y-7200000D01*
X33350000Y-5150000D02*
X33350000Y-5300000D01*
X33337500Y-8500000D02*
X33800000Y-8500000D01*
D48*
X27250000Y-8886000D02*
X27250000Y-8090000D01*
D51*
X27400000Y-10650000D02*
X28350000Y-11600000D01*
X27250000Y-8650000D02*
X27900000Y-8000000D01*
D47*
X33337500Y-8000000D02*
X34300000Y-8000000D01*
D51*
X27250000Y-8886000D02*
X27400000Y-9036000D01*
D47*
X35420000Y-7250000D02*
X35050000Y-7250000D01*
X35000000Y-7300000D02*
X35000000Y-7200000D01*
D51*
X27900000Y-8000000D02*
X28462500Y-8000000D01*
D47*
X32650000Y-5550000D02*
X32650000Y-6312500D01*
X31400000Y-5150000D02*
X31400000Y-5350000D01*
X31150000Y-5400000D02*
X31150000Y-6312500D01*
D51*
X27400000Y-9036000D02*
X27400000Y-10650000D01*
D49*
%TO.N,/USB-D-_R*%
X31800000Y-18400000D02*
X33400000Y-16800000D01*
X30710000Y-22000000D02*
X30200000Y-22510000D01*
X30200000Y-22510000D02*
X30200000Y-23400000D01*
X30450000Y-23650000D02*
X32740000Y-23650000D01*
X31800000Y-21100000D02*
X31800000Y-18400000D01*
X33400000Y-16800000D02*
X33800000Y-16800000D01*
X30710000Y-22000000D02*
X30900000Y-22000000D01*
X30200000Y-23400000D02*
X30450000Y-23650000D01*
X30900000Y-22000000D02*
X31800000Y-21100000D01*
%TO.N,/USB-D+_R*%
X30751838Y-23110000D02*
X30861838Y-23000000D01*
X30861838Y-23000000D02*
X32740000Y-23000000D01*
X30800000Y-21000000D02*
X31546000Y-20254000D01*
X30803162Y-20943162D02*
X30746324Y-21000000D01*
X30800000Y-16800000D02*
X30300000Y-16800000D01*
X30746324Y-21000000D02*
X30710000Y-21000000D01*
X31546000Y-17546000D02*
X30800000Y-16800000D01*
X31546000Y-20254000D02*
X31546000Y-17546000D01*
X30710000Y-21000000D02*
X30800000Y-21000000D01*
D47*
%TO.N,/RESETB*%
X22200000Y-9050000D02*
X22200000Y-2200000D01*
X21700000Y-9550000D02*
X22200000Y-9050000D01*
D49*
%TO.N,Net-(U1-XTAL_OUT)*%
X35350000Y-9500000D02*
X33337500Y-9500000D01*
X35890500Y-6943102D02*
X35890500Y-8959500D01*
X36200000Y-6600000D02*
X35873699Y-6926301D01*
X35900000Y-5100000D02*
X36200000Y-5400000D01*
X36200000Y-5400000D02*
X36200000Y-6600000D01*
X35890500Y-8959500D02*
X35350000Y-9500000D01*
X35873699Y-6926301D02*
X35890500Y-6943102D01*
D48*
%TO.N,/ANT*%
X31170000Y-4100000D02*
X29400000Y-4100000D01*
X29400000Y-4100000D02*
X29200000Y-4300000D01*
D49*
%TO.N,/SDC1_D3*%
X27112500Y-13850000D02*
X26662500Y-14300000D01*
X32150000Y-13600000D02*
X31900000Y-13850000D01*
X30150000Y-11187500D02*
X30150000Y-12133500D01*
X30150000Y-12133500D02*
X30276500Y-12260000D01*
X31900000Y-13850000D02*
X27112500Y-13850000D01*
%TO.N,/PE24*%
X33649500Y-6200000D02*
X33337500Y-6512000D01*
X33337500Y-6512000D02*
X33337500Y-7000000D01*
%TO.N,/SDC1_CLK*%
X31150000Y-12750000D02*
X30812000Y-13088000D01*
X26150000Y-11650000D02*
X25050000Y-10550000D01*
X24250000Y-10550000D02*
X23600000Y-11200000D01*
X26709210Y-11650000D02*
X26150000Y-11650000D01*
X28147210Y-13088000D02*
X26709210Y-11650000D01*
X25050000Y-10550000D02*
X24250000Y-10550000D01*
X23600000Y-11200000D02*
X23600000Y-12837500D01*
X30812000Y-13088000D02*
X28147210Y-13088000D01*
X31150000Y-11187500D02*
X31150000Y-12750000D01*
%TO.N,/SDC1_CMD*%
X28400500Y-12800500D02*
X30599500Y-12800500D01*
X25600000Y-10650000D02*
X26300000Y-11350000D01*
X26300000Y-11350000D02*
X26950000Y-11350000D01*
X30817000Y-12583000D02*
X30817000Y-11867000D01*
X30650000Y-11700000D02*
X30650000Y-11187500D01*
X26950000Y-11350000D02*
X28400500Y-12800500D01*
X30817000Y-11867000D02*
X30650000Y-11700000D01*
X24000000Y-12837500D02*
X24000000Y-11600000D01*
X24000000Y-11600000D02*
X24450000Y-11150000D01*
X25600000Y-10200000D02*
X25600000Y-10650000D01*
X30599500Y-12800500D02*
X30817000Y-12583000D01*
%TO.N,/SDC1_D0*%
X24400000Y-12000000D02*
X24800000Y-11600000D01*
X24400000Y-12837500D02*
X24400000Y-12000000D01*
X31650000Y-12609210D02*
X31650000Y-11187500D01*
X27842000Y-13342000D02*
X30917210Y-13342000D01*
X25850000Y-11950000D02*
X26450000Y-11950000D01*
X24800000Y-11600000D02*
X25500000Y-11600000D01*
X25500000Y-11600000D02*
X25850000Y-11950000D01*
X26450000Y-11950000D02*
X27842000Y-13342000D01*
X30917210Y-13342000D02*
X31650000Y-12609210D01*
%TO.N,/SDC1_D1*%
X32150000Y-12700000D02*
X32150000Y-11187500D01*
X25500000Y-14000000D02*
X25904000Y-13596000D01*
X24800000Y-12837500D02*
X24800000Y-13835617D01*
X24964383Y-14000000D02*
X25500000Y-14000000D01*
X24800000Y-12837500D02*
X24800000Y-12159882D01*
X31254000Y-13596000D02*
X32150000Y-12700000D01*
X24800000Y-13835617D02*
X24964383Y-14000000D01*
X25904000Y-13596000D02*
X31254000Y-13596000D01*
%TO.N,/SDC1_D2*%
X29650000Y-12050000D02*
X29650000Y-11187500D01*
X28600000Y-12500000D02*
X29200000Y-12500000D01*
X26100000Y-12600000D02*
X25862500Y-12837500D01*
X26500000Y-10650000D02*
X26750000Y-10650000D01*
X26750000Y-10650000D02*
X28600000Y-12500000D01*
X29200000Y-12500000D02*
X29650000Y-12050000D01*
X25862500Y-12837500D02*
X25200000Y-12837500D01*
%TO.N,Net-(U1-RES12K)*%
X34500000Y-6350000D02*
X34500000Y-7100000D01*
X34100000Y-7500000D02*
X33337500Y-7500000D01*
X34500000Y-7100000D02*
X34100000Y-7500000D01*
%TO.N,/RXD*%
X33850000Y-11012500D02*
X33850000Y-11750000D01*
X33337500Y-10500000D02*
X33850000Y-11012500D01*
X33850000Y-11750000D02*
X34600000Y-12500000D01*
%TO.N,/TXD*%
X33337500Y-10000000D02*
X34450000Y-10000000D01*
X34950000Y-10500000D02*
X34950000Y-11200000D01*
X34450000Y-10000000D02*
X34950000Y-10500000D01*
D47*
%TO.N,/LNA*%
X32150000Y-6312500D02*
X32150000Y-4120000D01*
X32150000Y-4120000D02*
X32130000Y-4100000D01*
%TD*%
%TA.AperFunction,Conductor*%
%TO.N,GNDD*%
G36*
X37409191Y-32268907D02*
G01*
X37445155Y-32318407D01*
X37450000Y-32349000D01*
X37450000Y-33901000D01*
X37431093Y-33959191D01*
X37381593Y-33995155D01*
X37351000Y-34000000D01*
X32699000Y-34000000D01*
X32640809Y-33981093D01*
X32604845Y-33931593D01*
X32600000Y-33901000D01*
X32600000Y-32349000D01*
X32618907Y-32290809D01*
X32668407Y-32254845D01*
X32699000Y-32250000D01*
X37351000Y-32250000D01*
X37409191Y-32268907D01*
G37*
%TD.AperFunction*%
%TD*%
M02*
