%TF.GenerationSoftware,KiCad,Pcbnew,7.0.7*%
%TF.CreationDate,2023-12-03T17:08:10+03:00*%
%TF.ProjectId,camera_v3s,63616d65-7261-45f7-9633-732e6b696361,rev?*%
%TF.SameCoordinates,Original*%
%TF.FileFunction,Soldermask,Bot*%
%TF.FilePolarity,Negative*%
%FSLAX46Y46*%
G04 Gerber Fmt 4.6, Leading zero omitted, Abs format (unit mm)*
G04 Created by KiCad (PCBNEW 7.0.7) date 2023-12-03 17:08:10*
%MOMM*%
%LPD*%
G01*
G04 APERTURE LIST*
G04 Aperture macros list*
%AMRoundRect*
0 Rectangle with rounded corners*
0 $1 Rounding radius*
0 $2 $3 $4 $5 $6 $7 $8 $9 X,Y pos of 4 corners*
0 Add a 4 corners polygon primitive as box body*
4,1,4,$2,$3,$4,$5,$6,$7,$8,$9,$2,$3,0*
0 Add four circle primitives for the rounded corners*
1,1,$1+$1,$2,$3*
1,1,$1+$1,$4,$5*
1,1,$1+$1,$6,$7*
1,1,$1+$1,$8,$9*
0 Add four rect primitives between the rounded corners*
20,1,$1+$1,$2,$3,$4,$5,0*
20,1,$1+$1,$4,$5,$6,$7,0*
20,1,$1+$1,$6,$7,$8,$9,0*
20,1,$1+$1,$8,$9,$2,$3,0*%
G04 Aperture macros list end*
%ADD10RoundRect,0.135000X-0.135000X-0.185000X0.135000X-0.185000X0.135000X0.185000X-0.135000X0.185000X0*%
%ADD11RoundRect,0.140000X-0.170000X0.140000X-0.170000X-0.140000X0.170000X-0.140000X0.170000X0.140000X0*%
%ADD12RoundRect,0.140000X-0.140000X-0.170000X0.140000X-0.170000X0.140000X0.170000X-0.140000X0.170000X0*%
%ADD13RoundRect,0.140000X0.170000X-0.140000X0.170000X0.140000X-0.170000X0.140000X-0.170000X-0.140000X0*%
%ADD14RoundRect,0.250000X0.400000X-0.250000X0.400000X0.250000X-0.400000X0.250000X-0.400000X-0.250000X0*%
%ADD15O,1.300000X1.000000*%
%ADD16O,1.000000X1.300000*%
%ADD17RoundRect,0.250000X0.250000X0.400000X-0.250000X0.400000X-0.250000X-0.400000X0.250000X-0.400000X0*%
%ADD18RoundRect,0.135000X0.185000X-0.135000X0.185000X0.135000X-0.185000X0.135000X-0.185000X-0.135000X0*%
%ADD19RoundRect,0.135000X-0.185000X0.135000X-0.185000X-0.135000X0.185000X-0.135000X0.185000X0.135000X0*%
%ADD20RoundRect,0.150000X0.150000X-0.587500X0.150000X0.587500X-0.150000X0.587500X-0.150000X-0.587500X0*%
%ADD21RoundRect,0.140000X0.140000X0.170000X-0.140000X0.170000X-0.140000X-0.170000X0.140000X-0.170000X0*%
%ADD22RoundRect,0.050000X-0.375000X-0.050000X0.375000X-0.050000X0.375000X0.050000X-0.375000X0.050000X0*%
%ADD23RoundRect,0.050000X-0.050000X-0.375000X0.050000X-0.375000X0.050000X0.375000X-0.050000X0.375000X0*%
%ADD24R,1.650000X1.650000*%
%ADD25RoundRect,0.225000X-0.225000X-0.250000X0.225000X-0.250000X0.225000X0.250000X-0.225000X0.250000X0*%
%ADD26RoundRect,0.150000X-0.512500X-0.150000X0.512500X-0.150000X0.512500X0.150000X-0.512500X0.150000X0*%
%ADD27RoundRect,0.225000X-0.250000X0.225000X-0.250000X-0.225000X0.250000X-0.225000X0.250000X0.225000X0*%
%ADD28C,1.000000*%
%ADD29RoundRect,0.225000X0.250000X-0.225000X0.250000X0.225000X-0.250000X0.225000X-0.250000X-0.225000X0*%
%ADD30RoundRect,0.135000X0.135000X0.185000X-0.135000X0.185000X-0.135000X-0.185000X0.135000X-0.185000X0*%
%ADD31RoundRect,0.250000X0.375000X1.075000X-0.375000X1.075000X-0.375000X-1.075000X0.375000X-1.075000X0*%
%ADD32RoundRect,0.250000X-0.375000X-1.075000X0.375000X-1.075000X0.375000X1.075000X-0.375000X1.075000X0*%
%ADD33RoundRect,0.225000X0.225000X0.250000X-0.225000X0.250000X-0.225000X-0.250000X0.225000X-0.250000X0*%
%ADD34RoundRect,0.150000X0.650000X0.150000X-0.650000X0.150000X-0.650000X-0.150000X0.650000X-0.150000X0*%
%ADD35R,1.200000X1.400000*%
%ADD36RoundRect,0.150000X-0.150000X0.587500X-0.150000X-0.587500X0.150000X-0.587500X0.150000X0.587500X0*%
%ADD37R,1.000000X1.000000*%
%ADD38R,1.050000X2.200000*%
%ADD39RoundRect,0.200000X-0.200000X-0.275000X0.200000X-0.275000X0.200000X0.275000X-0.200000X0.275000X0*%
G04 APERTURE END LIST*
D10*
%TO.C,R36*%
X4040000Y-10250000D03*
X5060000Y-10250000D03*
%TD*%
D11*
%TO.C,C69*%
X8550000Y-7070000D03*
X8550000Y-8030000D03*
%TD*%
D12*
%TO.C,C68*%
X4070000Y-9300000D03*
X5030000Y-9300000D03*
%TD*%
%TO.C,C67*%
X6980000Y-10250000D03*
X6020000Y-10250000D03*
%TD*%
D13*
%TO.C,C66*%
X7850000Y-12080000D03*
X7850000Y-11120000D03*
%TD*%
D12*
%TO.C,C65*%
X8770000Y-12150000D03*
X9730000Y-12150000D03*
%TD*%
%TO.C,C64*%
X8790000Y-11050000D03*
X9750000Y-11050000D03*
%TD*%
D14*
%TO.C,J4*%
X2650000Y-21475000D03*
D15*
X2650000Y-20225000D03*
X2650000Y-18975000D03*
X2650000Y-17725000D03*
%TD*%
D16*
%TO.C,J3*%
X21825000Y-35350000D03*
X23075000Y-35350000D03*
X24325000Y-35350000D03*
X25575000Y-35350000D03*
X26825000Y-35350000D03*
X28075000Y-35350000D03*
X29325000Y-35350000D03*
D17*
X30575000Y-35350000D03*
%TD*%
D18*
%TO.C,R23*%
X23000000Y-8510000D03*
X23000000Y-7490000D03*
%TD*%
D19*
%TO.C,R4*%
X12400000Y-30890000D03*
X12400000Y-31910000D03*
%TD*%
D20*
%TO.C,DA3*%
X12750000Y-5137500D03*
X10850000Y-5137500D03*
X11800000Y-3262500D03*
%TD*%
D19*
%TO.C,R29*%
X21950000Y-7490000D03*
X21950000Y-8510000D03*
%TD*%
D18*
%TO.C,R14*%
X15800000Y-25910000D03*
X15800000Y-24890000D03*
%TD*%
D10*
%TO.C,R2*%
X4690000Y-29000000D03*
X5710000Y-29000000D03*
%TD*%
D21*
%TO.C,C37*%
X25080000Y-25000000D03*
X24120000Y-25000000D03*
%TD*%
D22*
%TO.C,DA1*%
X7474750Y-30000000D03*
X7474750Y-29600000D03*
X7474750Y-29200000D03*
X7474750Y-28800000D03*
X7474750Y-28400000D03*
D23*
X8124750Y-27750000D03*
X8524750Y-27750000D03*
X8924750Y-27750000D03*
X9324750Y-27750000D03*
X9724750Y-27750000D03*
D22*
X10374750Y-28400000D03*
X10374750Y-28800000D03*
X10374750Y-29200000D03*
X10374750Y-29600000D03*
X10374750Y-30000000D03*
D23*
X9724750Y-30650000D03*
X9324750Y-30650000D03*
X8924750Y-30650000D03*
X8524750Y-30650000D03*
X8124750Y-30650000D03*
D24*
X8924750Y-29200000D03*
%TD*%
D25*
%TO.C,C7*%
X9625000Y-32200000D03*
X11175000Y-32200000D03*
%TD*%
D11*
%TO.C,C4*%
X13400000Y-30920000D03*
X13400000Y-31880000D03*
%TD*%
D26*
%TO.C,DA5*%
X33462500Y-25350000D03*
X33462500Y-24400000D03*
X33462500Y-23450000D03*
X35737500Y-23450000D03*
X35737500Y-25350000D03*
%TD*%
D27*
%TO.C,C12*%
X14600000Y-3025000D03*
X14600000Y-4575000D03*
%TD*%
D28*
%TO.C,TP13*%
X28800000Y-4600000D03*
%TD*%
%TO.C,TP8*%
X35700000Y-31350000D03*
%TD*%
D29*
%TO.C,C61*%
X26600000Y-7475000D03*
X26600000Y-5925000D03*
%TD*%
D30*
%TO.C,R5*%
X5710000Y-30000000D03*
X4690000Y-30000000D03*
%TD*%
D13*
%TO.C,C36*%
X18800000Y-25880000D03*
X18800000Y-24920000D03*
%TD*%
D12*
%TO.C,C55*%
X22920000Y-32000000D03*
X23880000Y-32000000D03*
%TD*%
D31*
%TO.C,L1*%
X16800000Y-28800000D03*
X14000000Y-28800000D03*
%TD*%
D13*
%TO.C,C54*%
X16800000Y-25880000D03*
X16800000Y-24920000D03*
%TD*%
D11*
%TO.C,C35*%
X16800000Y-15320000D03*
X16800000Y-16280000D03*
%TD*%
D28*
%TO.C,TP12*%
X27600000Y-16800000D03*
%TD*%
D10*
%TO.C,R28*%
X35290000Y-27800000D03*
X36310000Y-27800000D03*
%TD*%
D32*
%TO.C,L2*%
X3000000Y-26600000D03*
X5800000Y-26600000D03*
%TD*%
D30*
%TO.C,R13*%
X36310000Y-28800000D03*
X35290000Y-28800000D03*
%TD*%
D13*
%TO.C,C53*%
X20000000Y-29080000D03*
X20000000Y-28120000D03*
%TD*%
D29*
%TO.C,C3*%
X13800000Y-35575000D03*
X13800000Y-34025000D03*
%TD*%
D19*
%TO.C,R16*%
X29150000Y-30440000D03*
X29150000Y-31460000D03*
%TD*%
D27*
%TO.C,C11*%
X21900000Y-2562500D03*
X21900000Y-4112500D03*
%TD*%
D19*
%TO.C,R6*%
X6400000Y-32170000D03*
X6400000Y-33190000D03*
%TD*%
D33*
%TO.C,C22*%
X13175000Y-23650000D03*
X11625000Y-23650000D03*
%TD*%
D34*
%TO.C,DD2*%
X22800000Y-18595000D03*
X22800000Y-19865000D03*
X22800000Y-21135000D03*
X22800000Y-22405000D03*
X15600000Y-22405000D03*
X15600000Y-21135000D03*
X15600000Y-19865000D03*
X15600000Y-18595000D03*
%TD*%
D11*
%TO.C,C26*%
X18200000Y-15320000D03*
X18200000Y-16280000D03*
%TD*%
D29*
%TO.C,C1*%
X18600000Y-29575000D03*
X18600000Y-28025000D03*
%TD*%
D20*
%TO.C,DA2*%
X20350000Y-4037500D03*
X18450000Y-4037500D03*
X19400000Y-2162500D03*
%TD*%
D28*
%TO.C,TP11*%
X33800000Y-16800000D03*
%TD*%
D30*
%TO.C,R12*%
X7010000Y-9300000D03*
X5990000Y-9300000D03*
%TD*%
D13*
%TO.C,C6*%
X7400000Y-35160000D03*
X7400000Y-34200000D03*
%TD*%
D35*
%TO.C,Y3*%
X36350000Y-5100000D03*
X36350000Y-7300000D03*
X34650000Y-7300000D03*
X34650000Y-5100000D03*
%TD*%
D19*
%TO.C,R31*%
X20850000Y-7490000D03*
X20850000Y-8510000D03*
%TD*%
D30*
%TO.C,R21*%
X25710000Y-2200000D03*
X24690000Y-2200000D03*
%TD*%
D29*
%TO.C,C15*%
X16200000Y-5975000D03*
X16200000Y-4425000D03*
%TD*%
D21*
%TO.C,C25*%
X12480000Y-19200000D03*
X11520000Y-19200000D03*
%TD*%
D10*
%TO.C,R17*%
X27290000Y-25000000D03*
X28310000Y-25000000D03*
%TD*%
D32*
%TO.C,L4*%
X33200000Y-21120000D03*
X36000000Y-21120000D03*
%TD*%
D27*
%TO.C,C34*%
X20600000Y-31025000D03*
X20600000Y-32575000D03*
%TD*%
D29*
%TO.C,C29*%
X15700000Y-33125000D03*
X15700000Y-31575000D03*
%TD*%
D28*
%TO.C,TP14*%
X26600000Y-4600000D03*
%TD*%
D31*
%TO.C,L3*%
X11600000Y-34600000D03*
X8800000Y-34600000D03*
%TD*%
D18*
%TO.C,R9*%
X6400000Y-35190000D03*
X6400000Y-34170000D03*
%TD*%
D33*
%TO.C,C2*%
X3775000Y-24200000D03*
X2225000Y-24200000D03*
%TD*%
D11*
%TO.C,C31*%
X19400000Y-15320000D03*
X19400000Y-16280000D03*
%TD*%
D13*
%TO.C,C46*%
X17800000Y-25880000D03*
X17800000Y-24920000D03*
%TD*%
D12*
%TO.C,C16*%
X28520000Y-26000000D03*
X29480000Y-26000000D03*
%TD*%
D18*
%TO.C,R3*%
X7400000Y-33190000D03*
X7400000Y-32170000D03*
%TD*%
D10*
%TO.C,R25*%
X28290000Y-18200000D03*
X29310000Y-18200000D03*
%TD*%
D12*
%TO.C,C5*%
X2720000Y-29000000D03*
X3680000Y-29000000D03*
%TD*%
%TO.C,C28*%
X28720000Y-24000000D03*
X29680000Y-24000000D03*
%TD*%
D36*
%TO.C,DA4*%
X17250000Y-31462500D03*
X19150000Y-31462500D03*
X18200000Y-33337500D03*
%TD*%
D18*
%TO.C,R32*%
X30200000Y-31460000D03*
X30200000Y-30440000D03*
%TD*%
D13*
%TO.C,C20*%
X21800000Y-13600000D03*
X21800000Y-12640000D03*
%TD*%
D10*
%TO.C,R8*%
X2690000Y-30000000D03*
X3710000Y-30000000D03*
%TD*%
%TO.C,R10*%
X20690000Y-16600000D03*
X21710000Y-16600000D03*
%TD*%
D19*
%TO.C,R7*%
X14400000Y-30890000D03*
X14400000Y-31910000D03*
%TD*%
D29*
%TO.C,C14*%
X23400000Y-6175000D03*
X23400000Y-4625000D03*
%TD*%
D37*
%TO.C,X2*%
X28800000Y-3900000D03*
D38*
X27325000Y-2400000D03*
X30275000Y-2400000D03*
D37*
X28800000Y-900000D03*
%TD*%
D18*
%TO.C,R30*%
X21950000Y-10410000D03*
X21950000Y-9390000D03*
%TD*%
D25*
%TO.C,C10*%
X8625000Y-23650000D03*
X10175000Y-23650000D03*
%TD*%
D18*
%TO.C,R34*%
X20850000Y-10410000D03*
X20850000Y-9390000D03*
%TD*%
D28*
%TO.C,TP9*%
X36300000Y-16800000D03*
%TD*%
D33*
%TO.C,C17*%
X12375000Y-21800000D03*
X10825000Y-21800000D03*
%TD*%
D10*
%TO.C,R27*%
X35290000Y-26800000D03*
X36310000Y-26800000D03*
%TD*%
D33*
%TO.C,C41*%
X35975000Y-18800000D03*
X34425000Y-18800000D03*
%TD*%
D12*
%TO.C,C24*%
X8520000Y-21200000D03*
X9480000Y-21200000D03*
%TD*%
D29*
%TO.C,C38*%
X31900000Y-27125000D03*
X31900000Y-25575000D03*
%TD*%
D12*
%TO.C,C44*%
X25520000Y-29000000D03*
X26480000Y-29000000D03*
%TD*%
D13*
%TO.C,C32*%
X14000000Y-13680000D03*
X14000000Y-12720000D03*
%TD*%
D39*
%TO.C,R37*%
X30175000Y-29150000D03*
X31825000Y-29150000D03*
%TD*%
D18*
%TO.C,R22*%
X24000000Y-8510000D03*
X24000000Y-7490000D03*
%TD*%
D13*
%TO.C,C52*%
X21800000Y-29080000D03*
X21800000Y-28120000D03*
%TD*%
D19*
%TO.C,R1*%
X12550000Y-28890000D03*
X12550000Y-29910000D03*
%TD*%
D12*
%TO.C,C57*%
X28320000Y-22200000D03*
X29280000Y-22200000D03*
%TD*%
D25*
%TO.C,C8*%
X8625000Y-25400000D03*
X10175000Y-25400000D03*
%TD*%
D28*
%TO.C,TP10*%
X30300000Y-16800000D03*
%TD*%
D12*
%TO.C,C50*%
X14120000Y-17100000D03*
X15080000Y-17100000D03*
%TD*%
D28*
%TO.C,TP1*%
X23400000Y-26400000D03*
%TD*%
M02*
