%TF.GenerationSoftware,KiCad,Pcbnew,7.0.7*%
%TF.CreationDate,2023-12-03T17:08:10+03:00*%
%TF.ProjectId,camera_v3s,63616d65-7261-45f7-9633-732e6b696361,rev?*%
%TF.SameCoordinates,Original*%
%TF.FileFunction,Legend,Top*%
%TF.FilePolarity,Positive*%
%FSLAX46Y46*%
G04 Gerber Fmt 4.6, Leading zero omitted, Abs format (unit mm)*
G04 Created by KiCad (PCBNEW 7.0.7) date 2023-12-03 17:08:10*
%MOMM*%
%LPD*%
G01*
G04 APERTURE LIST*
%ADD10C,0.150000*%
%ADD11C,0.200000*%
%ADD12C,0.120000*%
G04 APERTURE END LIST*
D10*
X7700000Y-7550000D02*
G75*
G03*
X7700000Y-7550000I-3000000J0D01*
G01*
D11*
X6402381Y-11252219D02*
X7021428Y-11252219D01*
X7021428Y-11252219D02*
X6688095Y-11633171D01*
X6688095Y-11633171D02*
X6830952Y-11633171D01*
X6830952Y-11633171D02*
X6926190Y-11680790D01*
X6926190Y-11680790D02*
X6973809Y-11728409D01*
X6973809Y-11728409D02*
X7021428Y-11823647D01*
X7021428Y-11823647D02*
X7021428Y-12061742D01*
X7021428Y-12061742D02*
X6973809Y-12156980D01*
X6973809Y-12156980D02*
X6926190Y-12204600D01*
X6926190Y-12204600D02*
X6830952Y-12252219D01*
X6830952Y-12252219D02*
X6545238Y-12252219D01*
X6545238Y-12252219D02*
X6450000Y-12204600D01*
X6450000Y-12204600D02*
X6402381Y-12156980D01*
X7450000Y-12156980D02*
X7497619Y-12204600D01*
X7497619Y-12204600D02*
X7450000Y-12252219D01*
X7450000Y-12252219D02*
X7402381Y-12204600D01*
X7402381Y-12204600D02*
X7450000Y-12156980D01*
X7450000Y-12156980D02*
X7450000Y-12252219D01*
X7450000Y-11633171D02*
X7497619Y-11680790D01*
X7497619Y-11680790D02*
X7450000Y-11728409D01*
X7450000Y-11728409D02*
X7402381Y-11680790D01*
X7402381Y-11680790D02*
X7450000Y-11633171D01*
X7450000Y-11633171D02*
X7450000Y-11728409D01*
X8259523Y-11728409D02*
X8402380Y-11776028D01*
X8402380Y-11776028D02*
X8449999Y-11823647D01*
X8449999Y-11823647D02*
X8497618Y-11918885D01*
X8497618Y-11918885D02*
X8497618Y-12061742D01*
X8497618Y-12061742D02*
X8449999Y-12156980D01*
X8449999Y-12156980D02*
X8402380Y-12204600D01*
X8402380Y-12204600D02*
X8307142Y-12252219D01*
X8307142Y-12252219D02*
X7926190Y-12252219D01*
X7926190Y-12252219D02*
X7926190Y-11252219D01*
X7926190Y-11252219D02*
X8259523Y-11252219D01*
X8259523Y-11252219D02*
X8354761Y-11299838D01*
X8354761Y-11299838D02*
X8402380Y-11347457D01*
X8402380Y-11347457D02*
X8449999Y-11442695D01*
X8449999Y-11442695D02*
X8449999Y-11537933D01*
X8449999Y-11537933D02*
X8402380Y-11633171D01*
X8402380Y-11633171D02*
X8354761Y-11680790D01*
X8354761Y-11680790D02*
X8259523Y-11728409D01*
X8259523Y-11728409D02*
X7926190Y-11728409D01*
X8878571Y-11347457D02*
X8926190Y-11299838D01*
X8926190Y-11299838D02*
X9021428Y-11252219D01*
X9021428Y-11252219D02*
X9259523Y-11252219D01*
X9259523Y-11252219D02*
X9354761Y-11299838D01*
X9354761Y-11299838D02*
X9402380Y-11347457D01*
X9402380Y-11347457D02*
X9449999Y-11442695D01*
X9449999Y-11442695D02*
X9449999Y-11537933D01*
X9449999Y-11537933D02*
X9402380Y-11680790D01*
X9402380Y-11680790D02*
X8830952Y-12252219D01*
X8830952Y-12252219D02*
X9449999Y-12252219D01*
X6450000Y-12997457D02*
X6497619Y-12949838D01*
X6497619Y-12949838D02*
X6592857Y-12902219D01*
X6592857Y-12902219D02*
X6830952Y-12902219D01*
X6830952Y-12902219D02*
X6926190Y-12949838D01*
X6926190Y-12949838D02*
X6973809Y-12997457D01*
X6973809Y-12997457D02*
X7021428Y-13092695D01*
X7021428Y-13092695D02*
X7021428Y-13187933D01*
X7021428Y-13187933D02*
X6973809Y-13330790D01*
X6973809Y-13330790D02*
X6402381Y-13902219D01*
X6402381Y-13902219D02*
X7021428Y-13902219D01*
X7450000Y-13806980D02*
X7497619Y-13854600D01*
X7497619Y-13854600D02*
X7450000Y-13902219D01*
X7450000Y-13902219D02*
X7402381Y-13854600D01*
X7402381Y-13854600D02*
X7450000Y-13806980D01*
X7450000Y-13806980D02*
X7450000Y-13902219D01*
X7450000Y-13283171D02*
X7497619Y-13330790D01*
X7497619Y-13330790D02*
X7450000Y-13378409D01*
X7450000Y-13378409D02*
X7402381Y-13330790D01*
X7402381Y-13330790D02*
X7450000Y-13283171D01*
X7450000Y-13283171D02*
X7450000Y-13378409D01*
X8259523Y-13378409D02*
X8402380Y-13426028D01*
X8402380Y-13426028D02*
X8449999Y-13473647D01*
X8449999Y-13473647D02*
X8497618Y-13568885D01*
X8497618Y-13568885D02*
X8497618Y-13711742D01*
X8497618Y-13711742D02*
X8449999Y-13806980D01*
X8449999Y-13806980D02*
X8402380Y-13854600D01*
X8402380Y-13854600D02*
X8307142Y-13902219D01*
X8307142Y-13902219D02*
X7926190Y-13902219D01*
X7926190Y-13902219D02*
X7926190Y-12902219D01*
X7926190Y-12902219D02*
X8259523Y-12902219D01*
X8259523Y-12902219D02*
X8354761Y-12949838D01*
X8354761Y-12949838D02*
X8402380Y-12997457D01*
X8402380Y-12997457D02*
X8449999Y-13092695D01*
X8449999Y-13092695D02*
X8449999Y-13187933D01*
X8449999Y-13187933D02*
X8402380Y-13283171D01*
X8402380Y-13283171D02*
X8354761Y-13330790D01*
X8354761Y-13330790D02*
X8259523Y-13378409D01*
X8259523Y-13378409D02*
X7926190Y-13378409D01*
X8830952Y-12902219D02*
X9449999Y-12902219D01*
X9449999Y-12902219D02*
X9116666Y-13283171D01*
X9116666Y-13283171D02*
X9259523Y-13283171D01*
X9259523Y-13283171D02*
X9354761Y-13330790D01*
X9354761Y-13330790D02*
X9402380Y-13378409D01*
X9402380Y-13378409D02*
X9449999Y-13473647D01*
X9449999Y-13473647D02*
X9449999Y-13711742D01*
X9449999Y-13711742D02*
X9402380Y-13806980D01*
X9402380Y-13806980D02*
X9354761Y-13854600D01*
X9354761Y-13854600D02*
X9259523Y-13902219D01*
X9259523Y-13902219D02*
X8973809Y-13902219D01*
X8973809Y-13902219D02*
X8878571Y-13854600D01*
X8878571Y-13854600D02*
X8830952Y-13806980D01*
D10*
X5183334Y-35838152D02*
X5421429Y-36504819D01*
X5421429Y-36504819D02*
X5659524Y-35838152D01*
X6040477Y-36409580D02*
X6088096Y-36457200D01*
X6088096Y-36457200D02*
X6040477Y-36504819D01*
X6040477Y-36504819D02*
X5992858Y-36457200D01*
X5992858Y-36457200D02*
X6040477Y-36409580D01*
X6040477Y-36409580D02*
X6040477Y-36504819D01*
X6040477Y-35885771D02*
X6088096Y-35933390D01*
X6088096Y-35933390D02*
X6040477Y-35981009D01*
X6040477Y-35981009D02*
X5992858Y-35933390D01*
X5992858Y-35933390D02*
X6040477Y-35885771D01*
X6040477Y-35885771D02*
X6040477Y-35981009D01*
X7040476Y-36504819D02*
X6469048Y-36504819D01*
X6754762Y-36504819D02*
X6754762Y-35504819D01*
X6754762Y-35504819D02*
X6659524Y-35647676D01*
X6659524Y-35647676D02*
X6564286Y-35742914D01*
X6564286Y-35742914D02*
X6469048Y-35790533D01*
X7469048Y-36409580D02*
X7516667Y-36457200D01*
X7516667Y-36457200D02*
X7469048Y-36504819D01*
X7469048Y-36504819D02*
X7421429Y-36457200D01*
X7421429Y-36457200D02*
X7469048Y-36409580D01*
X7469048Y-36409580D02*
X7469048Y-36504819D01*
X8373809Y-35838152D02*
X8373809Y-36504819D01*
X8135714Y-35457200D02*
X7897619Y-36171485D01*
X7897619Y-36171485D02*
X8516666Y-36171485D01*
D11*
X7121428Y-15502219D02*
X6550000Y-15502219D01*
X6835714Y-15502219D02*
X6835714Y-14502219D01*
X6835714Y-14502219D02*
X6740476Y-14645076D01*
X6740476Y-14645076D02*
X6645238Y-14740314D01*
X6645238Y-14740314D02*
X6550000Y-14787933D01*
X7550000Y-15406980D02*
X7597619Y-15454600D01*
X7597619Y-15454600D02*
X7550000Y-15502219D01*
X7550000Y-15502219D02*
X7502381Y-15454600D01*
X7502381Y-15454600D02*
X7550000Y-15406980D01*
X7550000Y-15406980D02*
X7550000Y-15502219D01*
X7550000Y-14883171D02*
X7597619Y-14930790D01*
X7597619Y-14930790D02*
X7550000Y-14978409D01*
X7550000Y-14978409D02*
X7502381Y-14930790D01*
X7502381Y-14930790D02*
X7550000Y-14883171D01*
X7550000Y-14883171D02*
X7550000Y-14978409D01*
X8359523Y-14978409D02*
X8502380Y-15026028D01*
X8502380Y-15026028D02*
X8549999Y-15073647D01*
X8549999Y-15073647D02*
X8597618Y-15168885D01*
X8597618Y-15168885D02*
X8597618Y-15311742D01*
X8597618Y-15311742D02*
X8549999Y-15406980D01*
X8549999Y-15406980D02*
X8502380Y-15454600D01*
X8502380Y-15454600D02*
X8407142Y-15502219D01*
X8407142Y-15502219D02*
X8026190Y-15502219D01*
X8026190Y-15502219D02*
X8026190Y-14502219D01*
X8026190Y-14502219D02*
X8359523Y-14502219D01*
X8359523Y-14502219D02*
X8454761Y-14549838D01*
X8454761Y-14549838D02*
X8502380Y-14597457D01*
X8502380Y-14597457D02*
X8549999Y-14692695D01*
X8549999Y-14692695D02*
X8549999Y-14787933D01*
X8549999Y-14787933D02*
X8502380Y-14883171D01*
X8502380Y-14883171D02*
X8454761Y-14930790D01*
X8454761Y-14930790D02*
X8359523Y-14978409D01*
X8359523Y-14978409D02*
X8026190Y-14978409D01*
X9454761Y-14835552D02*
X9454761Y-15502219D01*
X9216666Y-14454600D02*
X8978571Y-15168885D01*
X8978571Y-15168885D02*
X9597618Y-15168885D01*
D10*
X7890476Y-1304819D02*
X8557142Y-2304819D01*
X8557142Y-1304819D02*
X7890476Y-2304819D01*
X9461904Y-2304819D02*
X8890476Y-2304819D01*
X9176190Y-2304819D02*
X9176190Y-1304819D01*
X9176190Y-1304819D02*
X9080952Y-1447676D01*
X9080952Y-1447676D02*
X8985714Y-1542914D01*
X8985714Y-1542914D02*
X8890476Y-1590533D01*
X10638095Y-730057D02*
X10685714Y-682438D01*
X10685714Y-682438D02*
X10780952Y-634819D01*
X10780952Y-634819D02*
X11019047Y-634819D01*
X11019047Y-634819D02*
X11114285Y-682438D01*
X11114285Y-682438D02*
X11161904Y-730057D01*
X11161904Y-730057D02*
X11209523Y-825295D01*
X11209523Y-825295D02*
X11209523Y-920533D01*
X11209523Y-920533D02*
X11161904Y-1063390D01*
X11161904Y-1063390D02*
X10590476Y-1634819D01*
X10590476Y-1634819D02*
X11209523Y-1634819D01*
X12066666Y-968152D02*
X12066666Y-1634819D01*
X11828571Y-587200D02*
X11590476Y-1301485D01*
X11590476Y-1301485D02*
X12209523Y-1301485D01*
X26085714Y-1634819D02*
X25514286Y-1634819D01*
X25800000Y-1634819D02*
X25800000Y-634819D01*
X25800000Y-634819D02*
X25704762Y-777676D01*
X25704762Y-777676D02*
X25609524Y-872914D01*
X25609524Y-872914D02*
X25514286Y-920533D01*
X28161905Y-26854819D02*
X28161905Y-25854819D01*
X28161905Y-25854819D02*
X28400000Y-25854819D01*
X28400000Y-25854819D02*
X28542857Y-25902438D01*
X28542857Y-25902438D02*
X28638095Y-25997676D01*
X28638095Y-25997676D02*
X28685714Y-26092914D01*
X28685714Y-26092914D02*
X28733333Y-26283390D01*
X28733333Y-26283390D02*
X28733333Y-26426247D01*
X28733333Y-26426247D02*
X28685714Y-26616723D01*
X28685714Y-26616723D02*
X28638095Y-26711961D01*
X28638095Y-26711961D02*
X28542857Y-26807200D01*
X28542857Y-26807200D02*
X28400000Y-26854819D01*
X28400000Y-26854819D02*
X28161905Y-26854819D01*
X29161905Y-26854819D02*
X29161905Y-25854819D01*
X29161905Y-25854819D02*
X29400000Y-25854819D01*
X29400000Y-25854819D02*
X29542857Y-25902438D01*
X29542857Y-25902438D02*
X29638095Y-25997676D01*
X29638095Y-25997676D02*
X29685714Y-26092914D01*
X29685714Y-26092914D02*
X29733333Y-26283390D01*
X29733333Y-26283390D02*
X29733333Y-26426247D01*
X29733333Y-26426247D02*
X29685714Y-26616723D01*
X29685714Y-26616723D02*
X29638095Y-26711961D01*
X29638095Y-26711961D02*
X29542857Y-26807200D01*
X29542857Y-26807200D02*
X29400000Y-26854819D01*
X29400000Y-26854819D02*
X29161905Y-26854819D01*
X30685714Y-26854819D02*
X30114286Y-26854819D01*
X30400000Y-26854819D02*
X30400000Y-25854819D01*
X30400000Y-25854819D02*
X30304762Y-25997676D01*
X30304762Y-25997676D02*
X30209524Y-26092914D01*
X30209524Y-26092914D02*
X30114286Y-26140533D01*
D12*
%TO.C,R40*%
X23580000Y-31046359D02*
X23580000Y-31353641D01*
X22820000Y-31046359D02*
X22820000Y-31353641D01*
%TO.C,C59*%
X35792164Y-6890000D02*
X36007836Y-6890000D01*
X35792164Y-7610000D02*
X36007836Y-7610000D01*
%TO.C,C63*%
X35792164Y-8140000D02*
X36007836Y-8140000D01*
X35792164Y-8860000D02*
X36007836Y-8860000D01*
%TO.C,D1*%
X976250Y-13965000D02*
X976250Y-15435000D01*
X976250Y-15435000D02*
X3261250Y-15435000D01*
X3261250Y-13965000D02*
X976250Y-13965000D01*
%TO.C,C62*%
X31542164Y-4460000D02*
X31757836Y-4460000D01*
X31542164Y-3740000D02*
X31757836Y-3740000D01*
%TO.C,D3*%
X3253868Y-10765000D02*
X968868Y-10765000D01*
X968868Y-12235000D02*
X3253868Y-12235000D01*
X968868Y-10765000D02*
X968868Y-12235000D01*
%TO.C,C60*%
X35892164Y-9340000D02*
X36107836Y-9340000D01*
X35892164Y-10060000D02*
X36107836Y-10060000D01*
%TO.C,C13*%
X27360000Y-28292164D02*
X27360000Y-28507836D01*
X26640000Y-28292164D02*
X26640000Y-28507836D01*
%TO.C,J4*%
X490000Y-23085000D02*
X3910000Y-23085000D01*
X2650000Y-16625000D02*
X2650000Y-16425000D01*
X490000Y-16115000D02*
X490000Y-23085000D01*
X3400000Y-16625000D02*
X2650000Y-16625000D01*
X3400000Y-19600000D02*
X3400000Y-16625000D01*
X1000000Y-16625000D02*
X1000000Y-19600000D01*
X1850000Y-22775000D02*
X1850000Y-22575000D01*
X1850000Y-16425000D02*
X1850000Y-16625000D01*
X2650000Y-22575000D02*
X2650000Y-22775000D01*
X1850000Y-16625000D02*
X1000000Y-16625000D01*
X4200000Y-23375000D02*
X4200000Y-22375000D01*
X1000000Y-22575000D02*
X1000000Y-19600000D01*
X3910000Y-16115000D02*
X490000Y-16115000D01*
X2650000Y-16425000D02*
X1850000Y-16425000D01*
X3400000Y-22575000D02*
X2650000Y-22575000D01*
X3400000Y-19600000D02*
X3400000Y-22575000D01*
X1850000Y-22575000D02*
X1000000Y-22575000D01*
X2650000Y-22775000D02*
X1850000Y-22775000D01*
X4200000Y-23375000D02*
X3200000Y-23375000D01*
X3910000Y-23085000D02*
X3910000Y-16115000D01*
%TO.C,C45*%
X29892164Y-19960000D02*
X30107836Y-19960000D01*
X29892164Y-19240000D02*
X30107836Y-19240000D01*
%TO.C,C27*%
X7960000Y-23907836D02*
X7960000Y-23692164D01*
X7240000Y-23907836D02*
X7240000Y-23692164D01*
%TO.C,R15*%
X24480000Y-31046359D02*
X24480000Y-31353641D01*
X23720000Y-31046359D02*
X23720000Y-31353641D01*
%TO.C,X1*%
X27300000Y-7200000D02*
X10500000Y-7200000D01*
X12600000Y-2200000D02*
X10500000Y-2200000D01*
X25200000Y-2200000D02*
X27300000Y-2200000D01*
%TO.C,R33*%
X5103641Y-14570000D02*
X4796359Y-14570000D01*
X5103641Y-15330000D02*
X4796359Y-15330000D01*
%TO.C,C42*%
X28092164Y-32340000D02*
X28307836Y-32340000D01*
X28092164Y-33060000D02*
X28307836Y-33060000D01*
%TO.C,C18*%
X8890000Y-26059420D02*
X8890000Y-26340580D01*
X9910000Y-26059420D02*
X9910000Y-26340580D01*
%TO.C,C48*%
X28292164Y-27440000D02*
X28507836Y-27440000D01*
X28292164Y-28160000D02*
X28507836Y-28160000D01*
%TO.C,R11*%
X28553641Y-29180000D02*
X28246359Y-29180000D01*
X28553641Y-28420000D02*
X28246359Y-28420000D01*
%TO.C,C9*%
X10259420Y-31490000D02*
X10540580Y-31490000D01*
X10259420Y-32510000D02*
X10540580Y-32510000D01*
%TO.C,Y2*%
X27275000Y-30125000D02*
X25925000Y-30125000D01*
X27275000Y-31875000D02*
X25925000Y-31875000D01*
%TO.C,R38*%
X5103641Y-13730000D02*
X4796359Y-13730000D01*
X5103641Y-12970000D02*
X4796359Y-12970000D01*
%TO.C,C58*%
X32940000Y-4507836D02*
X32940000Y-4292164D01*
X33660000Y-4507836D02*
X33660000Y-4292164D01*
%TO.C,C51*%
X9760000Y-19107836D02*
X9760000Y-18892164D01*
X9040000Y-19107836D02*
X9040000Y-18892164D01*
%TO.C,C30*%
X28240000Y-17707836D02*
X28240000Y-17492164D01*
X28960000Y-17707836D02*
X28960000Y-17492164D01*
%TO.C,C39*%
X21240000Y-32292164D02*
X21240000Y-32507836D01*
X21960000Y-32292164D02*
X21960000Y-32507836D01*
%TO.C,C43*%
X18692164Y-34560000D02*
X18907836Y-34560000D01*
X18692164Y-33840000D02*
X18907836Y-33840000D01*
%TO.C,R18*%
X15246359Y-31820000D02*
X15553641Y-31820000D01*
X15246359Y-32580000D02*
X15553641Y-32580000D01*
%TO.C,C23*%
X12640000Y-31692164D02*
X12640000Y-31907836D01*
X13360000Y-31692164D02*
X13360000Y-31907836D01*
%TO.C,DD1*%
X26110000Y-13915000D02*
X26110000Y-13390000D01*
X25585000Y-13390000D02*
X25585000Y-12100000D01*
X11890000Y-27085000D02*
X11890000Y-27610000D01*
X11890000Y-13915000D02*
X11890000Y-13390000D01*
X11890000Y-13390000D02*
X12415000Y-13390000D01*
X26110000Y-27610000D02*
X25585000Y-27610000D01*
X26110000Y-13390000D02*
X25585000Y-13390000D01*
X11890000Y-27610000D02*
X12415000Y-27610000D01*
X26110000Y-27085000D02*
X26110000Y-27610000D01*
%TO.C,C40*%
X24307836Y-32440000D02*
X24092164Y-32440000D01*
X24307836Y-33160000D02*
X24092164Y-33160000D01*
%TO.C,C49*%
X11160000Y-28092164D02*
X11160000Y-28307836D01*
X10440000Y-28092164D02*
X10440000Y-28307836D01*
%TO.C,D2*%
X976250Y-13835000D02*
X3261250Y-13835000D01*
X976250Y-12365000D02*
X976250Y-13835000D01*
X3261250Y-12365000D02*
X976250Y-12365000D01*
%TO.C,J3*%
X31675000Y-37000000D02*
X26200000Y-37000000D01*
X32185000Y-34090000D02*
X20215000Y-34090000D01*
X32475000Y-33800000D02*
X31475000Y-33800000D01*
X32475000Y-33800000D02*
X32475000Y-34800000D01*
X20525000Y-36150000D02*
X20725000Y-36150000D01*
X31675000Y-34600000D02*
X31675000Y-35350000D01*
X20725000Y-34600000D02*
X20725000Y-35350000D01*
X32185000Y-37510000D02*
X32185000Y-34090000D01*
X31675000Y-36150000D02*
X31675000Y-37000000D01*
X20725000Y-36150000D02*
X20725000Y-37000000D01*
X26200000Y-34600000D02*
X20725000Y-34600000D01*
X20215000Y-37510000D02*
X32185000Y-37510000D01*
X20725000Y-35350000D02*
X20525000Y-35350000D01*
X20525000Y-35350000D02*
X20525000Y-36150000D01*
X31675000Y-35350000D02*
X31875000Y-35350000D01*
X26200000Y-34600000D02*
X31675000Y-34600000D01*
X20725000Y-37000000D02*
X26200000Y-37000000D01*
X20215000Y-34090000D02*
X20215000Y-37510000D01*
X31875000Y-36150000D02*
X31675000Y-36150000D01*
X31875000Y-35350000D02*
X31875000Y-36150000D01*
%TO.C,R19*%
X14420000Y-33646359D02*
X14420000Y-33953641D01*
X15180000Y-33646359D02*
X15180000Y-33953641D01*
%TO.C,C21*%
X16160000Y-33692164D02*
X16160000Y-33907836D01*
X15440000Y-33692164D02*
X15440000Y-33907836D01*
%TO.C,R35*%
X35163641Y-5970000D02*
X34856359Y-5970000D01*
X35163641Y-6730000D02*
X34856359Y-6730000D01*
%TO.C,C19*%
X8890000Y-23340580D02*
X8890000Y-23059420D01*
X9910000Y-23340580D02*
X9910000Y-23059420D01*
%TO.C,R39*%
X5103641Y-11420000D02*
X4796359Y-11420000D01*
X5103641Y-12180000D02*
X4796359Y-12180000D01*
%TO.C,R26*%
X26046359Y-33180000D02*
X26353641Y-33180000D01*
X26046359Y-32420000D02*
X26353641Y-32420000D01*
%TO.C,U1*%
X33510000Y-11360000D02*
X33035000Y-11360000D01*
X33510000Y-6615000D02*
X33510000Y-6140000D01*
X28290000Y-6615000D02*
X28290000Y-6140000D01*
X28290000Y-11360000D02*
X28765000Y-11360000D01*
X33510000Y-10885000D02*
X33510000Y-11360000D01*
X28290000Y-6140000D02*
X28765000Y-6140000D01*
X28290000Y-10885000D02*
X28290000Y-11360000D01*
%TO.C,C47*%
X15292164Y-31560000D02*
X15507836Y-31560000D01*
X15292164Y-30840000D02*
X15507836Y-30840000D01*
%TO.C,Y1*%
X21000000Y-30350000D02*
X17000000Y-30350000D01*
X21000000Y-33650000D02*
X21000000Y-30350000D01*
%TO.C,J5*%
X34260000Y-26810000D02*
X32490000Y-26810000D01*
X32490000Y-26810000D02*
X32490000Y-26430000D01*
X36800000Y-26810000D02*
X36540000Y-26810000D01*
X36540000Y-19190000D02*
X36800000Y-19190000D01*
X32490000Y-19190000D02*
X34260000Y-19190000D01*
X32490000Y-19190000D02*
X32490000Y-19570000D01*
%TO.C,R20*%
X30353641Y-21380000D02*
X30046359Y-21380000D01*
X30353641Y-20620000D02*
X30046359Y-20620000D01*
%TO.C,R24*%
X30353641Y-21620000D02*
X30046359Y-21620000D01*
X30353641Y-22380000D02*
X30046359Y-22380000D01*
%TO.C,C56*%
X13640000Y-31692164D02*
X13640000Y-31907836D01*
X14360000Y-31692164D02*
X14360000Y-31907836D01*
%TO.C,C33*%
X29892164Y-18760000D02*
X30107836Y-18760000D01*
X29892164Y-18040000D02*
X30107836Y-18040000D01*
%TD*%
M02*
