%TF.GenerationSoftware,KiCad,Pcbnew,7.0.7*%
%TF.CreationDate,2023-12-03T17:08:10+03:00*%
%TF.ProjectId,camera_v3s,63616d65-7261-45f7-9633-732e6b696361,rev?*%
%TF.SameCoordinates,Original*%
%TF.FileFunction,Legend,Bot*%
%TF.FilePolarity,Positive*%
%FSLAX46Y46*%
G04 Gerber Fmt 4.6, Leading zero omitted, Abs format (unit mm)*
G04 Created by KiCad (PCBNEW 7.0.7) date 2023-12-03 17:08:10*
%MOMM*%
%LPD*%
G01*
G04 APERTURE LIST*
%ADD10C,0.150000*%
%ADD11C,0.120000*%
G04 APERTURE END LIST*
D10*
X24900000Y-4400000D02*
X37900000Y-4400000D01*
X37900000Y-17400000D01*
X24900000Y-17400000D01*
X24900000Y-4400000D01*
X6091416Y-31854819D02*
X6091416Y-30854819D01*
X6091416Y-30854819D02*
X5853321Y-30854819D01*
X5853321Y-30854819D02*
X5710464Y-30902438D01*
X5710464Y-30902438D02*
X5615226Y-30997676D01*
X5615226Y-30997676D02*
X5567607Y-31092914D01*
X5567607Y-31092914D02*
X5519988Y-31283390D01*
X5519988Y-31283390D02*
X5519988Y-31426247D01*
X5519988Y-31426247D02*
X5567607Y-31616723D01*
X5567607Y-31616723D02*
X5615226Y-31711961D01*
X5615226Y-31711961D02*
X5710464Y-31807200D01*
X5710464Y-31807200D02*
X5853321Y-31854819D01*
X5853321Y-31854819D02*
X6091416Y-31854819D01*
X5139035Y-31569104D02*
X4662845Y-31569104D01*
X5234273Y-31854819D02*
X4900940Y-30854819D01*
X4900940Y-30854819D02*
X4567607Y-31854819D01*
X3710464Y-31854819D02*
X4281892Y-31854819D01*
X3996178Y-31854819D02*
X3996178Y-30854819D01*
X3996178Y-30854819D02*
X4091416Y-30997676D01*
X4091416Y-30997676D02*
X4186654Y-31092914D01*
X4186654Y-31092914D02*
X4281892Y-31140533D01*
X22888094Y-25004819D02*
X22888094Y-24004819D01*
X22888094Y-24004819D02*
X22649999Y-24004819D01*
X22649999Y-24004819D02*
X22507142Y-24052438D01*
X22507142Y-24052438D02*
X22411904Y-24147676D01*
X22411904Y-24147676D02*
X22364285Y-24242914D01*
X22364285Y-24242914D02*
X22316666Y-24433390D01*
X22316666Y-24433390D02*
X22316666Y-24576247D01*
X22316666Y-24576247D02*
X22364285Y-24766723D01*
X22364285Y-24766723D02*
X22411904Y-24861961D01*
X22411904Y-24861961D02*
X22507142Y-24957200D01*
X22507142Y-24957200D02*
X22649999Y-25004819D01*
X22649999Y-25004819D02*
X22888094Y-25004819D01*
X21888094Y-25004819D02*
X21888094Y-24004819D01*
X21888094Y-24004819D02*
X21649999Y-24004819D01*
X21649999Y-24004819D02*
X21507142Y-24052438D01*
X21507142Y-24052438D02*
X21411904Y-24147676D01*
X21411904Y-24147676D02*
X21364285Y-24242914D01*
X21364285Y-24242914D02*
X21316666Y-24433390D01*
X21316666Y-24433390D02*
X21316666Y-24576247D01*
X21316666Y-24576247D02*
X21364285Y-24766723D01*
X21364285Y-24766723D02*
X21411904Y-24861961D01*
X21411904Y-24861961D02*
X21507142Y-24957200D01*
X21507142Y-24957200D02*
X21649999Y-25004819D01*
X21649999Y-25004819D02*
X21888094Y-25004819D01*
X20935713Y-24100057D02*
X20888094Y-24052438D01*
X20888094Y-24052438D02*
X20792856Y-24004819D01*
X20792856Y-24004819D02*
X20554761Y-24004819D01*
X20554761Y-24004819D02*
X20459523Y-24052438D01*
X20459523Y-24052438D02*
X20411904Y-24100057D01*
X20411904Y-24100057D02*
X20364285Y-24195295D01*
X20364285Y-24195295D02*
X20364285Y-24290533D01*
X20364285Y-24290533D02*
X20411904Y-24433390D01*
X20411904Y-24433390D02*
X20983332Y-25004819D01*
X20983332Y-25004819D02*
X20364285Y-25004819D01*
D11*
%TO.C,R36*%
X4396359Y-10630000D02*
X4703641Y-10630000D01*
X4396359Y-9870000D02*
X4703641Y-9870000D01*
%TO.C,C69*%
X8910000Y-7442164D02*
X8910000Y-7657836D01*
X8190000Y-7442164D02*
X8190000Y-7657836D01*
%TO.C,C68*%
X4442164Y-8940000D02*
X4657836Y-8940000D01*
X4442164Y-9660000D02*
X4657836Y-9660000D01*
%TO.C,C67*%
X6392164Y-10610000D02*
X6607836Y-10610000D01*
X6392164Y-9890000D02*
X6607836Y-9890000D01*
%TO.C,C66*%
X7490000Y-11707836D02*
X7490000Y-11492164D01*
X8210000Y-11707836D02*
X8210000Y-11492164D01*
%TO.C,C65*%
X9142164Y-11790000D02*
X9357836Y-11790000D01*
X9142164Y-12510000D02*
X9357836Y-12510000D01*
%TO.C,C64*%
X9162164Y-10690000D02*
X9377836Y-10690000D01*
X9162164Y-11410000D02*
X9377836Y-11410000D01*
%TO.C,R23*%
X22620000Y-8153641D02*
X22620000Y-7846359D01*
X23380000Y-8153641D02*
X23380000Y-7846359D01*
%TO.C,R4*%
X12780000Y-31246359D02*
X12780000Y-31553641D01*
X12020000Y-31246359D02*
X12020000Y-31553641D01*
%TO.C,DA3*%
X10240000Y-4200000D02*
X10240000Y-3550000D01*
X10240000Y-4200000D02*
X10240000Y-4850000D01*
X13360000Y-4200000D02*
X13360000Y-3550000D01*
X13360000Y-4200000D02*
X13360000Y-5875000D01*
%TO.C,R29*%
X21570000Y-7846359D02*
X21570000Y-8153641D01*
X22330000Y-7846359D02*
X22330000Y-8153641D01*
%TO.C,R14*%
X15420000Y-25553641D02*
X15420000Y-25246359D01*
X16180000Y-25553641D02*
X16180000Y-25246359D01*
%TO.C,R2*%
X5046359Y-29380000D02*
X5353641Y-29380000D01*
X5046359Y-28620000D02*
X5353641Y-28620000D01*
%TO.C,C37*%
X24707836Y-25360000D02*
X24492164Y-25360000D01*
X24707836Y-24640000D02*
X24492164Y-24640000D01*
%TO.C,DA1*%
X7764750Y-30810000D02*
X7314750Y-30810000D01*
X7314750Y-27590000D02*
X7314750Y-28040000D01*
X10084750Y-30810000D02*
X10534750Y-30810000D01*
X10534750Y-27590000D02*
X10534750Y-28040000D01*
X10084750Y-27590000D02*
X10534750Y-27590000D01*
X7764750Y-27590000D02*
X7314750Y-27590000D01*
X10534750Y-30810000D02*
X10534750Y-30360000D01*
%TO.C,C7*%
X10259420Y-32710000D02*
X10540580Y-32710000D01*
X10259420Y-31690000D02*
X10540580Y-31690000D01*
%TO.C,C4*%
X13760000Y-31292164D02*
X13760000Y-31507836D01*
X13040000Y-31292164D02*
X13040000Y-31507836D01*
%TO.C,DA5*%
X34600000Y-25960000D02*
X35400000Y-25960000D01*
X34600000Y-22840000D02*
X35400000Y-22840000D01*
X34600000Y-25960000D02*
X32800000Y-25960000D01*
X34600000Y-22840000D02*
X33800000Y-22840000D01*
%TO.C,C12*%
X15110000Y-3659420D02*
X15110000Y-3940580D01*
X14090000Y-3659420D02*
X14090000Y-3940580D01*
%TO.C,C61*%
X27110000Y-6840580D02*
X27110000Y-6559420D01*
X26090000Y-6840580D02*
X26090000Y-6559420D01*
%TO.C,R5*%
X5353641Y-30380000D02*
X5046359Y-30380000D01*
X5353641Y-29620000D02*
X5046359Y-29620000D01*
%TO.C,C36*%
X18440000Y-25507836D02*
X18440000Y-25292164D01*
X19160000Y-25507836D02*
X19160000Y-25292164D01*
%TO.C,C55*%
X23292164Y-31640000D02*
X23507836Y-31640000D01*
X23292164Y-32360000D02*
X23507836Y-32360000D01*
%TO.C,L1*%
X16002064Y-27440000D02*
X14797936Y-27440000D01*
X16002064Y-30160000D02*
X14797936Y-30160000D01*
%TO.C,C54*%
X16440000Y-25507836D02*
X16440000Y-25292164D01*
X17160000Y-25507836D02*
X17160000Y-25292164D01*
%TO.C,C35*%
X17160000Y-15692164D02*
X17160000Y-15907836D01*
X16440000Y-15692164D02*
X16440000Y-15907836D01*
%TO.C,R28*%
X35646359Y-27420000D02*
X35953641Y-27420000D01*
X35646359Y-28180000D02*
X35953641Y-28180000D01*
%TO.C,L2*%
X3797936Y-25240000D02*
X5002064Y-25240000D01*
X3797936Y-27960000D02*
X5002064Y-27960000D01*
%TO.C,R13*%
X35953641Y-29180000D02*
X35646359Y-29180000D01*
X35953641Y-28420000D02*
X35646359Y-28420000D01*
%TO.C,C53*%
X20360000Y-28707836D02*
X20360000Y-28492164D01*
X19640000Y-28707836D02*
X19640000Y-28492164D01*
%TO.C,C3*%
X13290000Y-34940580D02*
X13290000Y-34659420D01*
X14310000Y-34940580D02*
X14310000Y-34659420D01*
%TO.C,R16*%
X29530000Y-30796359D02*
X29530000Y-31103641D01*
X28770000Y-30796359D02*
X28770000Y-31103641D01*
%TO.C,C11*%
X21390000Y-3196920D02*
X21390000Y-3478080D01*
X22410000Y-3196920D02*
X22410000Y-3478080D01*
%TO.C,R6*%
X6020000Y-32526359D02*
X6020000Y-32833641D01*
X6780000Y-32526359D02*
X6780000Y-32833641D01*
%TO.C,C22*%
X12540580Y-23140000D02*
X12259420Y-23140000D01*
X12540580Y-24160000D02*
X12259420Y-24160000D01*
%TO.C,DD2*%
X21950000Y-17775000D02*
X21950000Y-18035000D01*
X21950000Y-18035000D02*
X23600000Y-18035000D01*
X19200000Y-23225000D02*
X16450000Y-23225000D01*
X19200000Y-17775000D02*
X21950000Y-17775000D01*
X21950000Y-23225000D02*
X21950000Y-22965000D01*
X19200000Y-23225000D02*
X21950000Y-23225000D01*
X19200000Y-17775000D02*
X16450000Y-17775000D01*
X16450000Y-17775000D02*
X16450000Y-18035000D01*
X16450000Y-23225000D02*
X16450000Y-22965000D01*
%TO.C,C26*%
X18560000Y-15692164D02*
X18560000Y-15907836D01*
X17840000Y-15692164D02*
X17840000Y-15907836D01*
%TO.C,C1*%
X18090000Y-28940580D02*
X18090000Y-28659420D01*
X19110000Y-28940580D02*
X19110000Y-28659420D01*
%TO.C,DA2*%
X17840000Y-3100000D02*
X17840000Y-2450000D01*
X20960000Y-3100000D02*
X20960000Y-4775000D01*
X20960000Y-3100000D02*
X20960000Y-2450000D01*
X17840000Y-3100000D02*
X17840000Y-3750000D01*
%TO.C,R12*%
X6653641Y-9680000D02*
X6346359Y-9680000D01*
X6653641Y-8920000D02*
X6346359Y-8920000D01*
%TO.C,C6*%
X7760000Y-34787836D02*
X7760000Y-34572164D01*
X7040000Y-34787836D02*
X7040000Y-34572164D01*
%TO.C,Y3*%
X37150000Y-4200000D02*
X37150000Y-8200000D01*
X33850000Y-4200000D02*
X37150000Y-4200000D01*
%TO.C,R31*%
X20470000Y-7846359D02*
X20470000Y-8153641D01*
X21230000Y-7846359D02*
X21230000Y-8153641D01*
%TO.C,R21*%
X25353641Y-2580000D02*
X25046359Y-2580000D01*
X25353641Y-1820000D02*
X25046359Y-1820000D01*
%TO.C,C15*%
X16710000Y-5340580D02*
X16710000Y-5059420D01*
X15690000Y-5340580D02*
X15690000Y-5059420D01*
%TO.C,C25*%
X12107836Y-18840000D02*
X11892164Y-18840000D01*
X12107836Y-19560000D02*
X11892164Y-19560000D01*
%TO.C,R17*%
X27646359Y-25380000D02*
X27953641Y-25380000D01*
X27646359Y-24620000D02*
X27953641Y-24620000D01*
%TO.C,L4*%
X33997936Y-19760000D02*
X35202064Y-19760000D01*
X33997936Y-22480000D02*
X35202064Y-22480000D01*
%TO.C,C34*%
X20090000Y-31659420D02*
X20090000Y-31940580D01*
X21110000Y-31659420D02*
X21110000Y-31940580D01*
%TO.C,C29*%
X15190000Y-32490580D02*
X15190000Y-32209420D01*
X16210000Y-32490580D02*
X16210000Y-32209420D01*
%TO.C,L3*%
X10802064Y-35960000D02*
X9597936Y-35960000D01*
X10802064Y-33240000D02*
X9597936Y-33240000D01*
%TO.C,R9*%
X6780000Y-34833641D02*
X6780000Y-34526359D01*
X6020000Y-34833641D02*
X6020000Y-34526359D01*
%TO.C,C2*%
X3140580Y-24710000D02*
X2859420Y-24710000D01*
X3140580Y-23690000D02*
X2859420Y-23690000D01*
%TO.C,C31*%
X19040000Y-15692164D02*
X19040000Y-15907836D01*
X19760000Y-15692164D02*
X19760000Y-15907836D01*
%TO.C,C46*%
X17440000Y-25507836D02*
X17440000Y-25292164D01*
X18160000Y-25507836D02*
X18160000Y-25292164D01*
%TO.C,C16*%
X28892164Y-25640000D02*
X29107836Y-25640000D01*
X28892164Y-26360000D02*
X29107836Y-26360000D01*
%TO.C,R3*%
X7780000Y-32833641D02*
X7780000Y-32526359D01*
X7020000Y-32833641D02*
X7020000Y-32526359D01*
%TO.C,R25*%
X28646359Y-17820000D02*
X28953641Y-17820000D01*
X28646359Y-18580000D02*
X28953641Y-18580000D01*
%TO.C,C5*%
X3092164Y-28640000D02*
X3307836Y-28640000D01*
X3092164Y-29360000D02*
X3307836Y-29360000D01*
%TO.C,C28*%
X29092164Y-24360000D02*
X29307836Y-24360000D01*
X29092164Y-23640000D02*
X29307836Y-23640000D01*
%TO.C,DA4*%
X16640000Y-32400000D02*
X16640000Y-30725000D01*
X19760000Y-32400000D02*
X19760000Y-33050000D01*
X16640000Y-32400000D02*
X16640000Y-33050000D01*
X19760000Y-32400000D02*
X19760000Y-31750000D01*
%TO.C,R32*%
X29820000Y-31103641D02*
X29820000Y-30796359D01*
X30580000Y-31103641D02*
X30580000Y-30796359D01*
%TO.C,C20*%
X21440000Y-13227836D02*
X21440000Y-13012164D01*
X22160000Y-13227836D02*
X22160000Y-13012164D01*
%TO.C,R8*%
X3046359Y-29620000D02*
X3353641Y-29620000D01*
X3046359Y-30380000D02*
X3353641Y-30380000D01*
%TO.C,R10*%
X21046359Y-16980000D02*
X21353641Y-16980000D01*
X21046359Y-16220000D02*
X21353641Y-16220000D01*
%TO.C,R7*%
X14780000Y-31246359D02*
X14780000Y-31553641D01*
X14020000Y-31246359D02*
X14020000Y-31553641D01*
%TO.C,C14*%
X23910000Y-5540580D02*
X23910000Y-5259420D01*
X22890000Y-5540580D02*
X22890000Y-5259420D01*
%TO.C,X2*%
X29500000Y-3900000D02*
X30100000Y-3900000D01*
X30300000Y-1100000D02*
X30300000Y-900000D01*
X29500000Y-3900000D02*
X29500000Y-4400000D01*
X27300000Y-900000D02*
X27300000Y-1100000D01*
X30100000Y-3900000D02*
X30300000Y-3700000D01*
X28100000Y-3900000D02*
X28100000Y-4400000D01*
X30300000Y-900000D02*
X29500000Y-900000D01*
X27300000Y-3900000D02*
X28100000Y-3900000D01*
X27300000Y-3700000D02*
X27300000Y-3900000D01*
X28100000Y-900000D02*
X27300000Y-900000D01*
%TO.C,R30*%
X21570000Y-10053641D02*
X21570000Y-9746359D01*
X22330000Y-10053641D02*
X22330000Y-9746359D01*
%TO.C,C10*%
X9259420Y-23140000D02*
X9540580Y-23140000D01*
X9259420Y-24160000D02*
X9540580Y-24160000D01*
%TO.C,R34*%
X21230000Y-10053641D02*
X21230000Y-9746359D01*
X20470000Y-10053641D02*
X20470000Y-9746359D01*
%TO.C,C17*%
X11740580Y-22310000D02*
X11459420Y-22310000D01*
X11740580Y-21290000D02*
X11459420Y-21290000D01*
%TO.C,R27*%
X35646359Y-26420000D02*
X35953641Y-26420000D01*
X35646359Y-27180000D02*
X35953641Y-27180000D01*
%TO.C,C41*%
X35340580Y-18290000D02*
X35059420Y-18290000D01*
X35340580Y-19310000D02*
X35059420Y-19310000D01*
%TO.C,C24*%
X8892164Y-21560000D02*
X9107836Y-21560000D01*
X8892164Y-20840000D02*
X9107836Y-20840000D01*
%TO.C,C38*%
X31390000Y-26490580D02*
X31390000Y-26209420D01*
X32410000Y-26490580D02*
X32410000Y-26209420D01*
%TO.C,C44*%
X25892164Y-28640000D02*
X26107836Y-28640000D01*
X25892164Y-29360000D02*
X26107836Y-29360000D01*
%TO.C,C32*%
X13640000Y-13307836D02*
X13640000Y-13092164D01*
X14360000Y-13307836D02*
X14360000Y-13092164D01*
%TO.C,R37*%
X30762742Y-28627500D02*
X31237258Y-28627500D01*
X30762742Y-29672500D02*
X31237258Y-29672500D01*
%TO.C,R22*%
X24380000Y-8153641D02*
X24380000Y-7846359D01*
X23620000Y-8153641D02*
X23620000Y-7846359D01*
%TO.C,C52*%
X22160000Y-28707836D02*
X22160000Y-28492164D01*
X21440000Y-28707836D02*
X21440000Y-28492164D01*
%TO.C,R1*%
X12930000Y-29246359D02*
X12930000Y-29553641D01*
X12170000Y-29246359D02*
X12170000Y-29553641D01*
%TO.C,C57*%
X28692164Y-21840000D02*
X28907836Y-21840000D01*
X28692164Y-22560000D02*
X28907836Y-22560000D01*
%TO.C,C8*%
X9259420Y-25910000D02*
X9540580Y-25910000D01*
X9259420Y-24890000D02*
X9540580Y-24890000D01*
%TO.C,C50*%
X14492164Y-17460000D02*
X14707836Y-17460000D01*
X14492164Y-16740000D02*
X14707836Y-16740000D01*
%TD*%
M02*
