%TF.GenerationSoftware,KiCad,Pcbnew,6.0.7*%
%TF.CreationDate,2022-11-09T14:03:12+03:00*%
%TF.ProjectId,camera_v3s,63616d65-7261-45f7-9633-732e6b696361,rev?*%
%TF.SameCoordinates,Original*%
%TF.FileFunction,Soldermask,Top*%
%TF.FilePolarity,Negative*%
%FSLAX46Y46*%
G04 Gerber Fmt 4.6, Leading zero omitted, Abs format (unit mm)*
G04 Created by KiCad (PCBNEW 6.0.7) date 2022-11-09 14:03:12*
%MOMM*%
%LPD*%
G01*
G04 APERTURE LIST*
G04 Aperture macros list*
%AMRoundRect*
0 Rectangle with rounded corners*
0 $1 Rounding radius*
0 $2 $3 $4 $5 $6 $7 $8 $9 X,Y pos of 4 corners*
0 Add a 4 corners polygon primitive as box body*
4,1,4,$2,$3,$4,$5,$6,$7,$8,$9,$2,$3,0*
0 Add four circle primitives for the rounded corners*
1,1,$1+$1,$2,$3*
1,1,$1+$1,$4,$5*
1,1,$1+$1,$6,$7*
1,1,$1+$1,$8,$9*
0 Add four rect primitives between the rounded corners*
20,1,$1+$1,$2,$3,$4,$5,0*
20,1,$1+$1,$4,$5,$6,$7,0*
20,1,$1+$1,$6,$7,$8,$9,0*
20,1,$1+$1,$8,$9,$2,$3,0*%
G04 Aperture macros list end*
%ADD10C,1.000000*%
%ADD11RoundRect,0.135000X0.135000X0.185000X-0.135000X0.185000X-0.135000X-0.185000X0.135000X-0.185000X0*%
%ADD12RoundRect,0.140000X-0.140000X-0.170000X0.140000X-0.170000X0.140000X0.170000X-0.140000X0.170000X0*%
%ADD13RoundRect,0.140000X0.170000X-0.140000X0.170000X0.140000X-0.170000X0.140000X-0.170000X-0.140000X0*%
%ADD14R,3.450000X3.450000*%
%ADD15RoundRect,0.062500X-0.375000X0.062500X-0.375000X-0.062500X0.375000X-0.062500X0.375000X0.062500X0*%
%ADD16RoundRect,0.062500X-0.062500X0.375000X-0.062500X-0.375000X0.062500X-0.375000X0.062500X0.375000X0*%
%ADD17RoundRect,0.625000X0.625000X1.375000X-0.625000X1.375000X-0.625000X-1.375000X0.625000X-1.375000X0*%
%ADD18RoundRect,0.062500X0.062500X0.937500X-0.062500X0.937500X-0.062500X-0.937500X0.062500X-0.937500X0*%
%ADD19RoundRect,0.140000X-0.170000X0.140000X-0.170000X-0.140000X0.170000X-0.140000X0.170000X0.140000X0*%
%ADD20RoundRect,0.225000X0.250000X-0.225000X0.250000X0.225000X-0.250000X0.225000X-0.250000X-0.225000X0*%
%ADD21RoundRect,0.225000X-0.250000X0.225000X-0.250000X-0.225000X0.250000X-0.225000X0.250000X0.225000X0*%
%ADD22RoundRect,0.135000X-0.135000X-0.185000X0.135000X-0.185000X0.135000X0.185000X-0.135000X0.185000X0*%
%ADD23RoundRect,0.135000X-0.185000X0.135000X-0.185000X-0.135000X0.185000X-0.135000X0.185000X0.135000X0*%
%ADD24RoundRect,0.140000X0.140000X0.170000X-0.140000X0.170000X-0.140000X-0.170000X0.140000X-0.170000X0*%
%ADD25RoundRect,0.200000X0.450000X-0.200000X0.450000X0.200000X-0.450000X0.200000X-0.450000X-0.200000X0*%
%ADD26O,1.300000X0.800000*%
%ADD27RoundRect,0.225000X-0.225000X-0.250000X0.225000X-0.250000X0.225000X0.250000X-0.225000X0.250000X0*%
%ADD28R,1.000000X1.800000*%
%ADD29RoundRect,2.000000X-2.000000X2.000000X-2.000000X-2.000000X2.000000X-2.000000X2.000000X2.000000X0*%
%ADD30RoundRect,0.050000X-0.687500X0.050000X-0.687500X-0.050000X0.687500X-0.050000X0.687500X0.050000X0*%
%ADD31RoundRect,0.050000X-0.050000X0.687500X-0.050000X-0.687500X0.050000X-0.687500X0.050000X0.687500X0*%
%ADD32O,0.800000X1.300000*%
%ADD33RoundRect,0.200000X0.200000X0.450000X-0.200000X0.450000X-0.200000X-0.450000X0.200000X-0.450000X0*%
%ADD34R,1.400000X1.200000*%
%ADD35R,1.900000X1.000000*%
%ADD36R,1.300000X1.650000*%
%ADD37R,1.550000X1.425000*%
%ADD38R,1.900000X1.800000*%
%ADD39R,1.380000X0.450000*%
%ADD40RoundRect,0.218750X-0.218750X-0.256250X0.218750X-0.256250X0.218750X0.256250X-0.218750X0.256250X0*%
G04 APERTURE END LIST*
D10*
%TO.C,TP15*%
X35650000Y-33050000D03*
%TD*%
%TO.C,TP7*%
X34950000Y-11200000D03*
%TD*%
%TO.C,TP6*%
X34600000Y-12500000D03*
%TD*%
D11*
%TO.C,R35*%
X35520000Y-6350000D03*
X34500000Y-6350000D03*
%TD*%
D12*
%TO.C,C63*%
X35420000Y-8500000D03*
X36380000Y-8500000D03*
%TD*%
%TO.C,C62*%
X31170000Y-4100000D03*
X32130000Y-4100000D03*
%TD*%
%TO.C,C60*%
X35520000Y-9700000D03*
X36480000Y-9700000D03*
%TD*%
%TO.C,C59*%
X35420000Y-7250000D03*
X36380000Y-7250000D03*
%TD*%
D13*
%TO.C,C58*%
X33300000Y-4880000D03*
X33300000Y-3920000D03*
%TD*%
D14*
%TO.C,U1*%
X30900000Y-8750000D03*
D15*
X33337500Y-7000000D03*
X33337500Y-7500000D03*
X33337500Y-8000000D03*
X33337500Y-8500000D03*
X33337500Y-9000000D03*
X33337500Y-9500000D03*
X33337500Y-10000000D03*
X33337500Y-10500000D03*
D16*
X32650000Y-11187500D03*
X32150000Y-11187500D03*
X31650000Y-11187500D03*
X31150000Y-11187500D03*
X30650000Y-11187500D03*
X30150000Y-11187500D03*
X29650000Y-11187500D03*
X29150000Y-11187500D03*
D15*
X28462500Y-10500000D03*
X28462500Y-10000000D03*
X28462500Y-9500000D03*
X28462500Y-9000000D03*
X28462500Y-8500000D03*
X28462500Y-8000000D03*
X28462500Y-7500000D03*
X28462500Y-7000000D03*
D16*
X29150000Y-6312500D03*
X29650000Y-6312500D03*
X30150000Y-6312500D03*
X30650000Y-6312500D03*
X31150000Y-6312500D03*
X31650000Y-6312500D03*
X32150000Y-6312500D03*
X32650000Y-6312500D03*
%TD*%
D10*
%TO.C,TP5*%
X5950000Y-7550000D03*
%TD*%
%TO.C,TP2*%
X3400000Y-7550000D03*
%TD*%
D17*
%TO.C,X1*%
X26700000Y-4700000D03*
X11200000Y-4600000D03*
D18*
X13200000Y-2200000D03*
X13700000Y-2200000D03*
X14200000Y-2200000D03*
X14700000Y-2200000D03*
X15200000Y-2200000D03*
X15700000Y-2200000D03*
X16200000Y-2200000D03*
X16700000Y-2200000D03*
X17200000Y-2200000D03*
X17700000Y-2200000D03*
X18200000Y-2200000D03*
X18700000Y-2200000D03*
X19200000Y-2200000D03*
X19700000Y-2200000D03*
X20200000Y-2200000D03*
X20700000Y-2200000D03*
X21200000Y-2200000D03*
X21700000Y-2200000D03*
X22200000Y-2200000D03*
X22700000Y-2200000D03*
X23200000Y-2200000D03*
X23700000Y-2200000D03*
X24200000Y-2200000D03*
X24700000Y-2200000D03*
%TD*%
D19*
%TO.C,C56*%
X14000000Y-32280000D03*
X14000000Y-31320000D03*
%TD*%
D20*
%TO.C,C19*%
X9400000Y-22425000D03*
X9400000Y-23975000D03*
%TD*%
D21*
%TO.C,C18*%
X9400000Y-26975000D03*
X9400000Y-25425000D03*
%TD*%
D13*
%TO.C,C30*%
X28600000Y-17120000D03*
X28600000Y-18080000D03*
%TD*%
%TO.C,C51*%
X9400000Y-18520000D03*
X9400000Y-19480000D03*
%TD*%
D19*
%TO.C,C49*%
X10800000Y-28680000D03*
X10800000Y-27720000D03*
%TD*%
D12*
%TO.C,C48*%
X28880000Y-27800000D03*
X27920000Y-27800000D03*
%TD*%
D11*
%TO.C,R39*%
X5460000Y-11800000D03*
X4440000Y-11800000D03*
%TD*%
%TO.C,R38*%
X4440000Y-13350000D03*
X5460000Y-13350000D03*
%TD*%
%TO.C,R33*%
X4440000Y-14950000D03*
X5460000Y-14950000D03*
%TD*%
D22*
%TO.C,R26*%
X26710000Y-32800000D03*
X25690000Y-32800000D03*
%TD*%
D11*
%TO.C,R24*%
X29690000Y-22000000D03*
X30710000Y-22000000D03*
%TD*%
%TO.C,R20*%
X30710000Y-21000000D03*
X29690000Y-21000000D03*
%TD*%
D23*
%TO.C,R19*%
X14800000Y-34310000D03*
X14800000Y-33290000D03*
%TD*%
D22*
%TO.C,R18*%
X15910000Y-32200000D03*
X14890000Y-32200000D03*
%TD*%
D23*
%TO.C,R15*%
X24000000Y-31710000D03*
X24000000Y-30690000D03*
%TD*%
D11*
%TO.C,R11*%
X28910000Y-28800000D03*
X27890000Y-28800000D03*
%TD*%
D12*
%TO.C,C47*%
X15880000Y-31200000D03*
X14920000Y-31200000D03*
%TD*%
%TO.C,C45*%
X30480000Y-19600000D03*
X29520000Y-19600000D03*
%TD*%
%TO.C,C43*%
X19280000Y-34200000D03*
X18320000Y-34200000D03*
%TD*%
%TO.C,C42*%
X28680000Y-32700000D03*
X27720000Y-32700000D03*
%TD*%
D24*
%TO.C,C40*%
X23720000Y-32800000D03*
X24680000Y-32800000D03*
%TD*%
D19*
%TO.C,C39*%
X21600000Y-32880000D03*
X21600000Y-31920000D03*
%TD*%
D12*
%TO.C,C33*%
X30480000Y-18400000D03*
X29520000Y-18400000D03*
%TD*%
D13*
%TO.C,C27*%
X7600000Y-23320000D03*
X7600000Y-24280000D03*
%TD*%
D19*
%TO.C,C23*%
X13000000Y-32280000D03*
X13000000Y-31320000D03*
%TD*%
%TO.C,C21*%
X15800000Y-34280000D03*
X15800000Y-33320000D03*
%TD*%
%TO.C,C13*%
X27000000Y-28880000D03*
X27000000Y-27920000D03*
%TD*%
D25*
%TO.C,J4*%
X2650000Y-21475000D03*
D26*
X2650000Y-20225000D03*
X2650000Y-18975000D03*
X2650000Y-17725000D03*
%TD*%
D27*
%TO.C,C9*%
X11175000Y-32000000D03*
X9625000Y-32000000D03*
%TD*%
D28*
%TO.C,Y2*%
X27850000Y-31000000D03*
X25350000Y-31000000D03*
%TD*%
D29*
%TO.C,DD1*%
X19000000Y-20500000D03*
D30*
X26662500Y-14300000D03*
X26662500Y-14700000D03*
X26662500Y-15100000D03*
X26662500Y-15500000D03*
X26662500Y-15900000D03*
X26662500Y-16300000D03*
X26662500Y-16700000D03*
X26662500Y-17100000D03*
X26662500Y-17500000D03*
X26662500Y-17900000D03*
X26662500Y-18300000D03*
X26662500Y-18700000D03*
X26662500Y-19100000D03*
X26662500Y-19500000D03*
X26662500Y-19900000D03*
X26662500Y-20300000D03*
X26662500Y-20700000D03*
X26662500Y-21100000D03*
X26662500Y-21500000D03*
X26662500Y-21900000D03*
X26662500Y-22300000D03*
X26662500Y-22700000D03*
X26662500Y-23100000D03*
X26662500Y-23500000D03*
X26662500Y-23900000D03*
X26662500Y-24300000D03*
X26662500Y-24700000D03*
X26662500Y-25100000D03*
X26662500Y-25500000D03*
X26662500Y-25900000D03*
X26662500Y-26300000D03*
X26662500Y-26700000D03*
D31*
X25200000Y-28162500D03*
X24800000Y-28162500D03*
X24400000Y-28162500D03*
X24000000Y-28162500D03*
X23600000Y-28162500D03*
X23200000Y-28162500D03*
X22800000Y-28162500D03*
X22400000Y-28162500D03*
X22000000Y-28162500D03*
X21600000Y-28162500D03*
X21200000Y-28162500D03*
X20800000Y-28162500D03*
X20400000Y-28162500D03*
X20000000Y-28162500D03*
X19600000Y-28162500D03*
X19200000Y-28162500D03*
X18800000Y-28162500D03*
X18400000Y-28162500D03*
X18000000Y-28162500D03*
X17600000Y-28162500D03*
X17200000Y-28162500D03*
X16800000Y-28162500D03*
X16400000Y-28162500D03*
X16000000Y-28162500D03*
X15600000Y-28162500D03*
X15200000Y-28162500D03*
X14800000Y-28162500D03*
X14400000Y-28162500D03*
X14000000Y-28162500D03*
X13600000Y-28162500D03*
X13200000Y-28162500D03*
X12800000Y-28162500D03*
D30*
X11337500Y-26700000D03*
X11337500Y-26300000D03*
X11337500Y-25900000D03*
X11337500Y-25500000D03*
X11337500Y-25100000D03*
X11337500Y-24700000D03*
X11337500Y-24300000D03*
X11337500Y-23900000D03*
X11337500Y-23500000D03*
X11337500Y-23100000D03*
X11337500Y-22700000D03*
X11337500Y-22300000D03*
X11337500Y-21900000D03*
X11337500Y-21500000D03*
X11337500Y-21100000D03*
X11337500Y-20700000D03*
X11337500Y-20300000D03*
X11337500Y-19900000D03*
X11337500Y-19500000D03*
X11337500Y-19100000D03*
X11337500Y-18700000D03*
X11337500Y-18300000D03*
X11337500Y-17900000D03*
X11337500Y-17500000D03*
X11337500Y-17100000D03*
X11337500Y-16700000D03*
X11337500Y-16300000D03*
X11337500Y-15900000D03*
X11337500Y-15500000D03*
X11337500Y-15100000D03*
X11337500Y-14700000D03*
X11337500Y-14300000D03*
D31*
X12800000Y-12837500D03*
X13200000Y-12837500D03*
X13600000Y-12837500D03*
X14000000Y-12837500D03*
X14400000Y-12837500D03*
X14800000Y-12837500D03*
X15200000Y-12837500D03*
X15600000Y-12837500D03*
X16000000Y-12837500D03*
X16400000Y-12837500D03*
X16800000Y-12837500D03*
X17200000Y-12837500D03*
X17600000Y-12837500D03*
X18000000Y-12837500D03*
X18400000Y-12837500D03*
X18800000Y-12837500D03*
X19200000Y-12837500D03*
X19600000Y-12837500D03*
X20000000Y-12837500D03*
X20400000Y-12837500D03*
X20800000Y-12837500D03*
X21200000Y-12837500D03*
X21600000Y-12837500D03*
X22000000Y-12837500D03*
X22400000Y-12837500D03*
X22800000Y-12837500D03*
X23200000Y-12837500D03*
X23600000Y-12837500D03*
X24000000Y-12837500D03*
X24400000Y-12837500D03*
X24800000Y-12837500D03*
X25200000Y-12837500D03*
%TD*%
D32*
%TO.C,J3*%
X21825000Y-35350000D03*
X23075000Y-35350000D03*
X24325000Y-35350000D03*
X25575000Y-35350000D03*
X26825000Y-35350000D03*
X28075000Y-35350000D03*
X29325000Y-35350000D03*
D33*
X30575000Y-35350000D03*
%TD*%
D34*
%TO.C,Y1*%
X20100000Y-31150000D03*
X17900000Y-31150000D03*
X17900000Y-32850000D03*
X20100000Y-32850000D03*
%TD*%
D35*
%TO.C,J5*%
X35400000Y-21450000D03*
D36*
X35400000Y-19625000D03*
D37*
X32825000Y-25487500D03*
D38*
X35400000Y-24150000D03*
D36*
X35400000Y-26375000D03*
D37*
X32825000Y-20512500D03*
D39*
X32740000Y-21700000D03*
X32740000Y-22350000D03*
X32740000Y-23000000D03*
X32740000Y-23650000D03*
X32740000Y-24300000D03*
%TD*%
D40*
%TO.C,D1*%
X3248750Y-14700000D03*
X1673750Y-14700000D03*
%TD*%
%TO.C,D3*%
X1666368Y-11500000D03*
X3241368Y-11500000D03*
%TD*%
%TO.C,D2*%
X3248750Y-13100000D03*
X1673750Y-13100000D03*
%TD*%
M02*
