M48
; DRILL file {KiCad 7.0.7} date Вс 03 дек 2023 17:08:16
; FORMAT={-:-/ absolute / inch / decimal}
; #@! TF.CreationDate,2023-12-03T17:08:16+03:00
; #@! TF.GenerationSoftware,Kicad,Pcbnew,7.0.7
; #@! TF.FileFunction,Plated,1,2,PTH
FMAT,2
INCH
; #@! TA.AperFunction,Plated,PTH,ViaDrill
T1C0.0118
; #@! TA.AperFunction,Plated,PTH,ViaDrill
T2C0.0157
; #@! TA.AperFunction,Plated,PTH,ComponentDrill
T3C0.0197
; #@! TA.AperFunction,Plated,PTH,ViaDrill
T4C0.0276
; #@! TA.AperFunction,Plated,PTH,ViaDrill
T5C0.0394
; #@! TA.AperFunction,Plated,PTH,ViaDrill
T6C0.0787
%
G90
G05
T1
X0.0866Y-0.9528
X0.0965Y-0.4055
X0.1339Y-1.2835
X0.1506Y-1.0079
X0.2598Y-1.1181
X0.2756Y-1.2283
X0.2992Y-0.8976
X0.315Y-1.0236
X0.3228Y-1.2854
X0.3354Y-0.8377
X0.3386Y-0.3858
X0.3573Y-1.1552
X0.3701Y-0.311
X0.3701Y-0.7244
X0.376Y-0.2677
X0.378Y-0.3858
X0.378Y-0.8819
X0.3843Y-1.2584
X0.4173Y-0.3858
X0.434Y-1.215
X0.4567Y-0.3858
X0.4567Y-1.0787
X0.4626Y-1.1417
X0.4646Y-0.5118
X0.4882Y-0.2047
X0.5042Y-0.7956
X0.5118Y-0.3701
X0.5132Y-0.9505
X0.5197Y-0.4134
X0.5445Y-0.555
X0.5453Y-0.9734
X0.5512Y-0.685
X0.5512Y-0.748
X0.5512Y-0.8031
X0.5512Y-1.2891
X0.5613Y-0.8836
X0.5748Y-0.3622
X0.5769Y-0.917
X0.5827Y-1.3508
X0.5854Y-0.9734
X0.5934Y-0.6772
X0.5984Y-0.6369
X0.6299Y-0.3858
X0.6378Y-0.5984
X0.6397Y-1.0492
X0.6614Y-0.2835
X0.6614Y-1.3307
X0.6649Y-1.0285
X0.6772Y-0.5984
X0.7008Y-0.6387
X0.7008Y-1.2283
X0.7009Y-1.048
X0.7165Y-0.5984
X0.7244Y-1.4173
X0.7253Y-0.315
X0.7559Y-1.0236
X0.7638Y-1.2913
X0.7717Y-0.6378
X0.7756Y-0.3209
X0.7756Y-0.3996
X0.7871Y-0.2832
X0.7874Y-0.2441
X0.7908Y-0.3602
X0.7913Y-0.9921
X0.7953Y-1.1654
X0.8189Y-0.5571
X0.8422Y-1.2129
X0.8543Y-0.376
X0.8671Y-1.1644
X0.872Y-0.9843
X0.878Y-1.2264
X0.9075Y-0.3661
X0.9213Y-1.0394
X0.9291Y-0.2598
X0.935Y-1.3209
X0.937Y-1.1732
X0.9488Y-0.689
X0.9626Y-0.439
X0.9642Y-0.1732
X0.9646Y-0.6339
X0.9764Y-0.5748
X0.98Y-0.2989
X0.9921Y-0.874
X1.0079Y-0.4016
X1.0197Y-1.0906
X1.0276Y-0.4961
X1.0433Y-0.3839
X1.0433Y-0.4193
X1.0472Y-0.1811
X1.0591Y-0.3047
X1.063Y-1.1417
X1.0728Y-0.3498
X1.1067Y-0.7122
X1.1102Y-0.6614
X1.1162Y-0.8724
X1.1228Y-1.0252
X1.128Y-0.5698
X1.128Y-0.9465
X1.1339Y-1.2756
X1.1392Y-1.0571
X1.1437Y-1.1693
X1.1752Y-0.3012
X1.1752Y-0.3445
X1.1752Y-0.3839
X1.187Y-0.5698
X1.192Y-0.7636
X1.192Y-0.4827
X1.1929Y-0.6614
X1.1969Y-0.7244
X1.2107Y-0.9098
X1.2127Y-0.8245
X1.2185Y-0.3839
X1.2205Y-0.2992
X1.2205Y-0.3425
X1.2362Y-0.2028
X1.2362Y-0.9528
X1.2441Y-0.8819
X1.2638Y-0.3012
X1.2638Y-0.3425
X1.2638Y-0.3839
X1.2657Y-0.5354
X1.2913Y-0.7402
X1.313Y-0.2087
X1.313Y-0.4902
X1.3228Y-1.1181
X1.3248Y-0.2441
X1.3307Y-0.6614
X1.3563Y-0.1713
X1.3661Y-0.3346
X1.4055Y-1.2343
X1.4055Y-1.3012
X1.4094Y-0.6614
X1.4134Y-0.2008
X1.4252Y-0.5276
X1.4567Y-0.3346
X1.4567Y-1.1614
T2
X0.7323Y-0.7087
X0.7323Y-0.7638
X0.7323Y-0.8268
X0.7323Y-0.8898
X0.8189Y-0.7087
X0.8189Y-0.7638
X0.8189Y-0.8189
X0.8189Y-0.8898
T3
X0.1043Y-0.6978
X0.1043Y-0.747
X0.1043Y-0.7963
X0.1043Y-0.8455
X0.8593Y-1.3917
X0.9085Y-1.3917
X0.9577Y-1.3917
X1.0069Y-1.3917
X1.0561Y-1.3917
X1.1053Y-1.3917
X1.1545Y-1.3917
X1.2037Y-1.3917
T4
X1.1496Y-0.1693
T5
X0.1339Y-0.2972
X0.2343Y-0.2972
X0.315Y-0.748
T6
X0.0984Y-0.0984
X0.0984Y-1.3976
X1.3976Y-0.0984
X1.3976Y-1.3976
T0
M30
